/* XPM */
static char *xpm_[] = {
/* columns rows colors chars-per-pixel */
"50 50 136 2 ",
"   c #101417",
".  c #121719",
"X  c #13191A",
"o  c #273E2D",
"O  c #283F2C",
"+  c #294430",
"@  c #305036",
"#  c #305136",
"$  c #315236",
"%  c #4B763C",
"&  c #4B783E",
"*  c #4D793D",
"=  c #365C51",
"-  c #427247",
";  c #45764C",
":  c #477D4C",
">  c #467C4D",
",  c #477C4D",
"<  c #497E4B",
"1  c #497F4B",
"2  c #4A7F4B",
"3  c #4B7F4B",
"4  c #487D4C",
"5  c #487E4C",
"6  c #497E4C",
"7  c #55833D",
"8  c #5F913F",
"9  c #6E9E37",
"0  c #6F9E37",
"q  c #6F9F37",
"w  c #66973B",
"e  c #61933E",
"r  c #60923F",
"t  c #61923F",
"y  c #62933E",
"u  c #64903C",
"i  c #63943D",
"p  c #63953D",
"a  c #62943E",
"s  c #63943E",
"d  c #63953E",
"f  c #64953D",
"g  c #65963C",
"h  c #64963D",
"j  c #66973C",
"k  c #67983B",
"l  c #6A9A39",
"z  c #6A9B39",
"x  c #6B9B39",
"c  c #69983A",
"v  c #68993A",
"b  c #69993A",
"n  c #68983B",
"m  c #68993B",
"M  c #699A3A",
"N  c #6A9A3A",
"B  c #6B9C39",
"V  c #6C9C38",
"C  c #6D9D38",
"Z  c #6C9C39",
"A  c #6E9D38",
"S  c #6E9E38",
"D  c #6E9F38",
"F  c #6C9E3B",
"G  c #6C9E3C",
"H  c #709F36",
"J  c #75A433",
"K  c #77A532",
"L  c #76A433",
"P  c #76A533",
"I  c #77A533",
"U  c #77A632",
"Y  c #71A135",
"T  c #72A135",
"R  c #73A234",
"E  c #73A334",
"W  c #72A235",
"Q  c #73A235",
"!  c #70A036",
"~  c #71A036",
"^  c #71A136",
"/  c #74A334",
"(  c #75A334",
")  c #75A434",
"_  c #78A632",
"`  c #4B804A",
"'  c #4B804B",
"]  c #4B814B",
"[  c #4D8149",
"{  c #4D8249",
"}  c #4F8348",
"|  c #4E8249",
" . c #4E8349",
".. c #4C804A",
"X. c #4C814A",
"o. c #4D814A",
"O. c #4F8448",
"+. c #508447",
"@. c #518547",
"#. c #528547",
"$. c #528646",
"%. c #538646",
"&. c #538746",
"*. c #528647",
"=. c #538747",
"-. c #548746",
";. c #548845",
":. c #558845",
">. c #558945",
",. c #568944",
"<. c #568945",
"1. c #568A44",
"2. c #578A44",
"3. c #578B44",
"4. c #548846",
"5. c #588B43",
"6. c #5B8E41",
"7. c #598C43",
"8. c #598D43",
"9. c #5A8C42",
"0. c #5A8D42",
"q. c #5B8D42",
"w. c #5B8E42",
"e. c #5C8E41",
"r. c #5C8F41",
"t. c #5D8F41",
"y. c #588B44",
"u. c #508448",
"i. c #5D9040",
"p. c #5D9041",
"a. c #5E9040",
"s. c #5E9140",
"d. c #5F9140",
"f. c #5C9044",
"g. c #639640",
"h. c None",
/* pixels */
"h.X $ f.E / / / / n u.H / / / x u.x / / J 9 +.N ( R / / / >.a.) / / / / ( N u.9 / / / / E u.O . h.h.",
"X $ 7 D / / / / E E N / / / / E N E J f q.E N E R J / / / C 9 / / / / / E E w 9.C ( / / E C % + . h.",
"$ - g.) / / / / / / / / / / / / J / ) N 8 a./ ) J / / / / J ) / / / / / / / / r q.N ) / / J G % + . ",
"w.w.k ) / / / / / / / / / / / / / / J J x q.E / E / / / / / / / / / / / / / / ( r f J / / / ) G & O ",
"N E E J / / / / / / / / / / / / / / / / / / / / / / / E / / / / / / / / / / / / ( ( / / / / / E a o.",
"+.N J R / / E E E / / / / / / / / / / / / / / / / / E E / / / / / / / / / / / / J R / / / / / a o.6 ",
"C E R ( ( ( / q.8 J / / / / / / / / / / / / / / / / C -.9 ) / / / / / / / / / / R / / / / ) a.a.a ' ",
") / ( R ( H 9.g.C / / / / / / / / / / / / / / / / N q.f E / / / / / / / / / / / J E / / E q.a.C E k ",
"r 9 ) / / E g.V ( R ( R / / / / / / / / / / / / / N r J ( ( R J / / / / / / / / / / / / / r 9 x a.r ",
">.B J / / / R R ( ( R ( / / / / / / / / / / / / / / ( / ( ( / E / / / / / / / / / / / / / J ( n u.6 ",
"/ / / / / / / / / / J R / / / / / / / / / / / / / / / / / / / / / / / / / / / / / / / / / / / J N u.",
"/ / / / / / / / / / E J / / / / / / / / / / / / / / / / / / / / / / / / / / / / / / / / / / / / / H ",
"/ / / / / / / / / / / / / / / / / / / / / / / / / / / / / / / / / / / / / / / / / / / / / / / J N >.",
"/ / / / / / / / / / / / / / / / / / / / / / / / / / / / / / / / / / / / / / / / / / / / / / / / H a ",
"J / / / / / / / / / / / / / / / / / / / / / / / / / / / / / / / / / / / / / / / / / / / / / / J E f ",
"N E / / / / / / / / / / / / / / / / / / / / / / / / / / / / / / / / / / / / / / / / / / / / / H r 6 ",
"u.N J / / / / / / / / / / / / / / / / / / / / / / / / / / / / / / / / / / / / / / / / / / / J a o.< ",
"C E / / / / / / / / / / / / / / / / / / / / / / / / / / / / / / / / / / / / / / / / / / / / / E a ' ",
") / / / / / / / / / / / / / / / / / / / / / / / / / / / / / / / / / / / / / / / / / / / / / ( ( E k ",
"r 9 ) / / / / / / / / / / / / / / / / ) / / / / / / / / / / / / / / / / / / / / / / / / / E J N 8 a ",
"6 N _ / / / / / / / / / / / / / / / J C N J / / / / / / / / / / / / / / / / E N H ) / / / / J N +.< ",
"+.f E / / / / / / / / / / / / / / / J r q.9 / E / / / / / / / / / / / / / / 9 -.f / / / / / / J N +.",
"H y.r J / / / / / / / / / / / / / / / E f >.E E / / / / / / / / / / / / / / / E y.r ( / / / / / E 9 ",
"/ C H / / / / / / / / / / / / / / / / ) E N E E / / / / / / / / / / / / / / / / C H / / / / / J N ;.",
"/ ) / / / / / / ) / / / / / / / / / / / / / / / / / ( ( ( R ( R / / / / / / / / / / / / E J J J E g.",
"/ / / / / / / n x ( / / / / / / / / / / / / / / / / H f E ( R ( / / / / / / / / / / / / / J k N ( / ",
"/ E / / / / C y.r J / / / / / / / / / / / / / / / H f -.9 ) ( R / / / / / / / / / / / / E C q.a E N ",
"E E / / / E -.n / / / / / / / / / / / / / / / / / f y.E ) / E J / / / / / / / / / / E E E >.f ) f o.",
"+.x / / / / C E / / / / / / / / / / / / / / / / E E 9 / / / / / / / / / / / / / / / / / / H / f o.< ",
"N H / / / / / / / / / / / / / / / / / / / / / / E ) ) / / / / / / / / / / / / / / / / / / ) ) C 8 3 ",
"J ) / / / / / / / / / / / / / / / / / / / / / / / / / / / / / / / / / / / / / / / / / / / / J J C ' ",
"f E / / / / / / / / / / / / / / / / / / / / / / / / / / / / / / / / / / / / / / / / / / / / / 9 8 < ",
"u.N / / / / / / / / / / / / / / / / / / / / / / / / / / / / / / / / / / / / / / / / / / / / / f o.' ",
"E E / / / / / / / / / / / / / / / / / / / / / / / / / / / / / / / / / / / / / / / / / / / / / / k o.",
"/ / / / / / / / / / / / / / / / / / / / / / / / / / / / / / / / / / / / / / / / / / / / / / / / E N ",
"/ / / / / / / / / / / / / / / / / / / / / / / / / / / / / / / / / / / / / / / / / / / / / / / ) C q.",
"/ / / / / / / / / / / / / / / / / / / / / / / / / / / / / / / / / / / / / / / / / / / / / / / ) C q.",
"/ / / / / / / / / / / / / / / / / / / / / / / / / / / / / / / / / / / / / / / / / / / / / / / / E N ",
"/ / E E / / / / / / / / / / / / / / / / / / / / / / / / / / / / / / / / / / / / / / / / / H E / n  .",
"/ / q.q./ / / / / / / / / / / / / / / / / / / / / / / / / / / / / / / / / / / / / / / / E 9.f ) E E ",
">.>.g.C / / / / / / ( R ( R J E E / J a 8 J E / / / / / / / E J / / / / / / E q.x / ( R R N q.a J J ",
"< 6 q._ ) / / / / / ( ( R ( / / J E ) N q.8 E / / / / / / / / E / / / / / / H r q.N ( R J J w 8 a.a.",
"< -.N H k E / / / / / ( / / / / R J ( ( C q.E / / / / / / ) J J / / / / / ( ( J g.f ( R w E _ a 5 < ",
"o.f q a >.E / / / / C C E / / / R 9 V E ) / E / / / / / ) 9 V q / / / / H 9 C E E / ( 9 -.k 9 8 < < ",
"< o.o.q.E E E E E k o.o.N / / / E +.' 8 / E E E E / / E R q.' q./ / / ( f o.u.9 / / E E 9 +.o.o.< ' ",
"< < < o.+.;.C a.+.O. .N E / / ) E 9 >.' q.E E q.o.a C +.+.' q.q / / / J E a ' +.x ) N +.+.o.< < ' < ",
"< 6 < < , < 3.a 9., o.9.E f 9.y.3.q. .6 y.E q.o.< o.q.a o.< +.q.q.q.E f q.>.' < N N +.< < ' ' < < < ",
"' q.+.+.q.< 5 q.3.5 < 6 q.-., o.q.' < 6 +.q.' 6 6 +.8 r ' < ' < , < q.u., 6 < ' q.+.} q.' < ' +.3.' ",
"' N a.8.B o.+.O.+.+.o.>.' +.u.>.q +.+.u. .-.' +.o.i.V ' +.O.} +.' >.' +.+.o.>.' +.o.q.C o.;.' 8 N ; ",
"' N q.q.V O.B q.q.k +.q >.a f +.E +.f a.>.9 O.C q.q.N O.9 3.8 w +.9 ;.f a >.9 +.N q.q.C o.B q.a.u = "
};
