/* XPM */
static char *_b409977707d4bcf82b63c1177bd8109BSMCYogA76AEqykZ[] = {
/* columns rows colors chars-per-pixel */
"50 50 152 2 ",
"   c #181F1F",
".  c #1A231C",
"X  c #1F2A1D",
"o  c #202B1E",
"O  c #25331F",
"+  c #1D2522",
"@  c #1F2922",
"#  c #212A24",
"$  c #252C29",
"%  c #292E2C",
"&  c #273520",
"*  c #2C3C21",
"=  c #2C322F",
"-  c #313E2B",
";  c #2C3634",
":  c #303732",
">  c #323934",
",  c #353C39",
"<  c #393D3A",
"1  c #2E4022",
"2  c #324623",
"3  c #354A23",
"4  c #344528",
"5  c #3D5525",
"6  c #3F5826",
"7  c #3E522B",
"8  c #354032",
"9  c #36413E",
"0  c #41592A",
"q  c #414D39",
"w  c #445733",
"e  c #485B37",
"r  c #47553D",
"t  c #495A3A",
"y  c #4B652E",
"u  c #4D6C29",
"i  c #53752B",
"p  c #57782E",
"a  c #587C2D",
"s  c #4A6132",
"d  c #4F6339",
"f  c #374241",
"g  c #3B4341",
"h  c #434541",
"j  c #444C43",
"k  c #4A4C47",
"l  c #434D49",
"z  c #4D4B4A",
"x  c #495345",
"c  c #46504A",
"v  c #4E574B",
"b  c #505E44",
"n  c #54504F",
"m  c #515A4C",
"M  c #4B5754",
"N  c #4D5A57",
"B  c #555351",
"V  c #555D53",
"C  c #5B5A55",
"Z  c #586B46",
"A  c #57614F",
"S  c #5F714C",
"D  c #5B6256",
"F  c #5D675A",
"G  c #5F685A",
"H  c #64645D",
"J  c #626C5B",
"K  c #6B7E55",
"L  c #707F5F",
"P  c #636E64",
"I  c #6B6D63",
"U  c #686E6B",
"Y  c #677164",
"T  c #6B7363",
"R  c #6B756B",
"E  c #6B786D",
"W  c #707367",
"Q  c #727669",
"!  c #747B6A",
"~  c #797E6F",
"^  c #6B7A74",
"/  c #6C7C79",
"(  c #5E842E",
")  c #5F8135",
"_  c #638B2F",
"`  c #658D31",
"'  c #688A3C",
"]  c #679130",
"[  c #6F9C34",
"{  c #66973C",
"}  c #709F36",
"|  c #74A334",
" . c #77A23C",
".. c #598C42",
"X. c #6D8F41",
"o. c #709242",
"O. c #7B9F4C",
"+. c #769152",
"@. c #7F9D58",
"#. c #79A142",
"$. c #77816D",
"%. c #7D9264",
"&. c #778272",
"*. c #7D8472",
"=. c #73837E",
"-. c #7D847B",
";. c #7E8B7C",
":. c #839B63",
">. c #869A6C",
",. c #818B75",
"<. c #858F79",
"1. c #879573",
"2. c #87917B",
"3. c #8D967F",
"4. c #768784",
"5. c #7C8782",
"6. c #7C8B83",
"7. c #828F82",
"8. c #869382",
"9. c #8C9781",
"0. c #8E9981",
"q. c #8A968A",
"w. c #909C86",
"e. c #929E8A",
"r. c #8A9791",
"t. c #889992",
"y. c #8B9F9A",
"u. c #94A18D",
"i. c #96A492",
"p. c #98A695",
"a. c #99A897",
"s. c #93A39A",
"d. c #9BAA9B",
"f. c #9DAEA1",
"g. c #9FB0A3",
"h. c #9EB2A9",
"j. c #A0B2A6",
"k. c #A1B4A8",
"l. c #A3B7AC",
"z. c #A4B7AD",
"x. c #A4B8AD",
"c. c #A5B9AF",
"v. c #A1B7B1",
"b. c #A5BAB1",
"n. c #A6BBB2",
"m. c #A7BCB3",
"M. c #A7BDB6",
"N. c #A8BEB7",
"B. c #A7BEB8",
"V. c #A9BFB8",
"C. c #AAC1BB",
"Z. c #ABC2BC",
/* pixels */
"Z.Z.Z.Z.Z.Z.Z.Z.Z.Z.Z.Z.x.p.w.a.M.Z.Z.Z.Z.Z.Z.Z.Z.Z.Z.Z.Z.Z.Z.Z.Z.C.j.u.e.g.C.Z.Z.Z.Z.Z.Z.Z.Z.Z.Z.Z.",
"Z.Z.Z.Z.Z.Z.Z.Z.Z.Z.Z.Z.x.p.w.a.M.Z.Z.Z.Z.Z.Z.Z.Z.Z.Z.Z.Z.Z.Z.Z.Z.C.j.u.e.g.C.Z.Z.Z.Z.Z.Z.Z.Z.Z.Z.Z.",
"Z.Z.Z.Z.Z.Z.Z.Z.Z.Z.Z.Z.x.p.w.a.M.Z.Z.Z.Z.Z.Z.Z.Z.Z.Z.Z.Z.Z.Z.Z.Z.C.j.u.e.g.C.Z.Z.Z.Z.Z.Z.Z.Z.Z.Z.Z.",
"C.C.C.C.C.C.C.C.C.Z.Z.Z.x.a.w.a.b.C.C.Z.Z.Z.Z.Z.Z.Z.Z.Z.Z.Z.Z.C.C.C.j.u.e.g.C.Z.Z.C.C.C.C.C.C.C.C.C.",
"N.x.j.j.j.j.j.k.b.C.Z.Z.M.g.a.d.g.k.M.Z.Z.Z.Z.Z.Z.Z.Z.Z.Z.Z.Z.C.b.j.f.a.d.l.C.Z.Z.N.l.j.j.j.j.j.k.b.",
"b.d.u.u.u.u.u.i.j.V.Z.Z.C.m.l.d.i.a.z.Z.Z.Z.Z.Z.Z.Z.Z.Z.Z.Z.Z.N.g.i.a.j.b.N.C.Z.Z.b.d.u.u.u.u.u.i.j.",
"j.a.u.e.e.e.e.u.d.x.M.C.Z.Z.N.f.w.u.f.b.N.C.Z.Z.Z.Z.Z.Z.Z.V.m.k.a.0.i.z.Z.Z.C.N.b.j.a.e.e.e.e.e.i.f.",
"a.d.g.g.g.g.g.g.d.a.g.M.Z.Z.N.f.w.w.u.a.k.V.Z.Z.Z.Z.Z.Z.Z.b.g.p.e.0.i.z.Z.Z.C.l.d.a.d.g.g.g.g.g.g.d.",
"i.j.V.C.C.C.C.b.d.e.a.l.V.C.N.f.w.3.0.w.d.m.V.V.V.V.V.V.V.k.i.0.9.9.i.z.C.C.M.g.u.i.k.C.C.C.C.C.b.d.",
"f.x.C.Z.Z.Z.Z.N.k.d.d.d.j.b.N.f.w.3.3.0.i.d.f.f.f.f.f.f.f.a.e.3.3.9.i.z.N.l.f.d.a.g.b.C.Z.Z.Z.Z.N.k.",
"M.V.C.Z.Z.Z.Z.C.N.b.g.i.i.k.N.f.w.3.3.3.0.w.w.w.w.w.w.w.w.w.0.3.3.9.i.z.b.d.u.a.l.M.C.Z.Z.Z.Z.Z.C.N.",
"Z.Z.Z.Z.Z.Z.Z.Z.Z.C.k.a.p.f.j.a.w.3.3.3.3.3.3.3.3.3.3.3.3.3.3.3.3.3.u.f.j.a.i.f.M.Z.Z.Z.Z.Z.Z.Z.Z.Z.",
"Z.Z.Z.Z.Z.Z.Z.Z.Z.C.M.l.g.a.i.e.0.3.3.3.3.3.3.3.3.3.3.3.3.3.3.3.3.3.w.u.p.d.k.b.V.Z.Z.Z.Z.Z.Z.Z.Z.Z.",
"Z.Z.Z.Z.Z.Z.Z.Z.Z.Z.Z.Z.x.p.0.2.<.<.<.<.,.,.,.,.,.,.,.,.,.,.<.<.<.<.2.3.e.g.C.Z.Z.Z.Z.Z.Z.Z.Z.Z.Z.Z.",
"Z.Z.Z.Z.Z.Z.Z.Z.Z.Z.Z.Z.x.p.3.*.W I I I D m v v v v v v v V H I I I ~ <.e.g.C.Z.Z.Z.Z.Z.Z.Z.Z.Z.Z.Z.",
"C.C.C.C.C.C.C.C.C.C.C.C.x.p.2.Q C n n z , # + @ # # # + + = h n n B H *.e.f.V.C.C.C.C.C.C.C.C.C.C.C.",
"N.x.j.j.j.j.j.j.j.k.z.N.k.q.~ T H H H C < + o * 3 3 2 & . % k H H H I Q -.s.M.m.k.j.j.j.j.j.j.j.k.b.",
"b.d.u.u.u.u.u.u.u.i.d.b.f.-.H I ~ *.*.Q j + 1 u ( ( a 5 X : D *.*.*.Q H I r.b.k.p.u.u.u.u.u.u.u.p.k.",
"k.a.e.e.e.e.e.e.e.e.a.k.s.U z H ,.3.3.,.D > 7 p _ _ ( y - j T 3.3.3.! B B 5.h.f.i.e.e.e.e.e.e.e.i.f.",
"a.d.g.g.g.g.g.g.g.g.d.a.7.V , V ,.3.3.2.! G b w 5 5 5 t A Y *.3.3.3.Y h g R i.d.f.g.g.g.g.g.g.g.f.d.",
"i.j.N.C.C.V.N.N.N.M.g.u.$.j # x $.2.3.3.3.<.J 8 X X # x $.2.3.3.2.<.J > = F 9.a.z.N.N.N.N.V.C.C.b.d.",
"f.x.C.Z.Z.M.k.f.f.f.d.a.;.c + > m Y *.3.3.3.L d 5 5 0 S ,.3.3.2.! F j $ ; P i.d.f.f.f.g.x.C.Z.Z.N.k.",
"M.V.C.Z.Z.l.a.e.e.e.a.k.t.M + + $ j T 3.3.3.%.X.` ` ` +.1.3.3.,.D > #   ; ^ h.f.u.e.e.u.f.N.Z.Z.C.N.",
"Z.Z.Z.Z.Z.x.a.u.u.i.d.b.y.N + X * w K >.>.>.@.#.| | | O.:.>.>.%.Z 4 O . ; / v.k.p.u.u.i.g.N.Z.Z.Z.Z.",
"Z.Z.Z.Z.Z.N.x.k.k.k.x.V.y.N + 2 u ) o.O.O.O.#. .| | |  .O.O.O.O.' p 5 O ; / v.m.k.k.k.k.b.C.Z.Z.Z.Z.",
"Z.Z.Z.Z.Z.C.N.M.M.M.V.C.y.N @ 6 ] | | | | | | | | | } { | | | | | | i * ; / v.C.N.M.M.N.C.C.Z.Z.Z.Z.",
"Z.Z.Z.Z.Z.b.j.d.d.d.k.M.y.N # 6 ] | | | | | | | | } { ..[ | | | | | i * ; / v.x.g.d.d.f.l.C.Z.Z.Z.Z.",
"Z.Z.Z.Z.Z.k.p.w.w.w.a.b.y.N # 6 ] | | | | | | | | { ..[ | | | | | | i * ; / v.g.u.w.w.e.f.N.Z.Z.Z.Z.",
"Z.Z.Z.Z.Z.x.d.i.i.p.g.M.y.N # 6 ] | | | | | | | | | [ | | | | | | | i * ; / v.k.a.i.i.a.j.V.Z.Z.Z.Z.",
"Z.Z.Z.Z.Z.N.b.l.l.l.b.V.y.N # 6 ] | | | | | | | | | | | | | | | | | i * ; / v.N.x.l.l.x.M.C.Z.Z.Z.Z.",
"C.N.b.b.b.b.b.b.b.b.b.b.t.M @ 6 ] | | | | | | | | | | | | | | | | | i * ; ^ h.b.b.b.b.b.b.b.b.b.m.N.",
"M.g.a.a.a.a.a.a.a.a.a.a.;.c @ 6 ] | | | | | | | | | | | | | | | | | i * ; P i.a.a.a.a.a.a.a.a.a.d.l.",
"l.a.w.w.w.w.w.w.w.w.w.w.&.j # 0 ` [ [ [ [ [ [ [ [ [ [ [ [ [ [ [ [ [ i * ; G 9.w.w.w.w.w.w.w.w.w.u.f.",
"f.d.a.a.a.a.a.a.a.a.a.a.8.P x e y u u u u u u u u u u u u u u u u u s r V &.i.a.a.a.a.a.a.a.a.a.a.d.",
"i.g.b.b.b.b.b.b.b.b.b.b.f.q.! m - O O O O O O O O O O O O O O O O & q J ;.i.l.b.b.b.b.b.b.b.b.b.k.a.",
"a.k.C.Z.Z.Z.Z.Z.Z.Z.Z.Z.x.p.2.Y l f f f f f , > > > > , 9 f f f f f V &.e.g.C.Z.Z.Z.Z.Z.Z.Z.Z.Z.M.f.",
"k.M.C.Z.Z.Z.Z.Z.Z.Z.Z.Z.x.p.9.8.6.4.4.4.4.4.^ Y J J J E =.4.4.4.4.4.6.8.e.g.C.Z.Z.Z.Z.Z.Z.Z.Z.Z.V.x.",
"C.C.Z.Z.Z.Z.Z.Z.Z.Z.Z.Z.x.p.0.a.b.V.V.V.V.M.f.e.3.3.9.p.x.V.V.V.V.B.g.u.e.g.C.Z.Z.Z.Z.Z.Z.Z.Z.Z.C.Z.",
"Z.Z.Z.Z.Z.Z.Z.Z.Z.Z.Z.Z.x.p.w.a.M.Z.Z.Z.Z.C.j.u.3.3.0.a.b.Z.Z.Z.Z.C.j.u.e.g.C.Z.Z.Z.Z.Z.Z.Z.Z.Z.Z.Z.",
"Z.Z.Z.Z.Z.Z.Z.Z.Z.Z.Z.Z.x.p.w.a.M.Z.Z.Z.Z.C.j.u.3.3.0.a.b.Z.Z.Z.Z.C.j.u.e.g.C.Z.Z.Z.Z.Z.Z.Z.Z.Z.Z.Z.",
"z.M.C.Z.Z.Z.Z.Z.Z.C.M.l.g.a.p.g.N.Z.Z.Z.Z.C.j.u.3.3.0.a.b.Z.Z.Z.Z.C.x.d.p.d.k.b.V.Z.Z.Z.Z.Z.Z.Z.C.b.",
"a.l.C.Z.Z.Z.Z.Z.Z.C.k.a.p.f.k.b.C.Z.Z.Z.Z.C.j.u.3.3.0.a.b.Z.Z.Z.Z.Z.N.x.j.a.i.f.M.Z.Z.Z.Z.Z.Z.Z.M.g.",
"u.j.C.Z.Z.Z.Z.Z.Z.C.j.e.e.j.C.Z.Z.Z.Z.Z.Z.C.j.u.3.3.0.a.b.Z.Z.Z.Z.Z.Z.Z.b.a.w.a.b.Z.Z.Z.Z.Z.Z.Z.b.a.",
"u.j.C.Z.Z.Z.Z.Z.Z.C.j.e.e.j.C.Z.Z.Z.Z.Z.Z.C.j.u.3.3.0.a.b.Z.Z.Z.Z.Z.Z.Z.b.a.w.a.b.Z.Z.Z.Z.Z.Z.Z.b.a.",
"u.g.V.C.C.Z.Z.C.C.V.g.u.u.j.C.Z.Z.Z.Z.Z.Z.C.j.u.9.3.0.a.b.Z.Z.Z.Z.Z.Z.Z.b.a.w.a.b.C.C.Z.Z.Z.C.C.b.a.",
"w.a.j.x.C.Z.Z.V.x.j.d.a.d.x.C.Z.Z.Z.Z.Z.Z.C.j.u.3.3.0.a.b.Z.Z.Z.Z.Z.Z.Z.N.j.a.d.g.k.M.C.Z.Z.M.k.d.u.",
"0.w.u.f.N.Z.Z.M.f.u.a.k.b.N.C.Z.Z.Z.Z.Z.Z.C.j.u.3.3.0.a.b.Z.Z.Z.Z.Z.Z.Z.C.M.x.f.i.a.k.C.Z.C.l.a.e.0.",
"3.3.0.p.k.x.x.k.p.0.i.g.x.x.x.x.x.x.x.x.x.l.d.e.3.3.0.i.j.x.x.x.x.x.x.x.x.x.l.a.w.e.d.x.x.x.d.u.3.3.",
"3.3.0.e.i.p.p.i.e.0.w.i.p.p.p.p.p.p.p.p.p.p.u.0.3.3.9.e.i.p.p.p.p.p.p.p.p.p.p.u.0.0.u.p.p.p.u.0.3.3.",
"3.3.3.3.0.0.0.0.3.3.3.0.0.0.0.0.0.0.0.0.0.0.9.3.3.3.3.3.0.0.0.0.0.0.0.0.0.0.0.9.3.3.9.0.0.0.9.3.3.3."
};
