/* XPM */
static char *_8e910a130aa41128e5d0ffb1ed709d3HOcUTKK4vkdnmQLB[] = {
/* columns rows colors chars-per-pixel */
"50 50 160 2 ",
"   c #151C1C",
".  c #1A241C",
"X  c #212E1F",
"o  c #202B20",
"O  c #2B2921",
"+  c #252B2B",
"@  c #2D3A28",
"#  c #343924",
"$  c #333D2B",
"%  c #2A442E",
"&  c #374C24",
"*  c #354529",
"=  c #3C4D2D",
"-  c #3C5425",
";  c #345536",
":  c #405A26",
">  c #475F28",
",  c #5B5F2E",
"<  c #695438",
"1  c #466228",
"2  c #4A652C",
"3  c #4E6E2A",
"4  c #53712C",
"5  c #5A7E2D",
"6  c #52663D",
"7  c #556D3B",
"8  c #4C763B",
"9  c #597B30",
"0  c #666131",
"q  c #396050",
"w  c #464F44",
"e  c #4D544C",
"r  c #465E4A",
"t  c #545A56",
"y  c #545759",
"u  c #426045",
"i  c #596B46",
"p  c #457548",
"a  c #4A7F4B",
"s  c #616E55",
"d  c #626B5B",
"f  c #666B66",
"g  c #696A6D",
"h  c #6F7868",
"j  c #71796C",
"k  c #737772",
"l  c #797A73",
"z  c #797E7D",
"x  c #83653C",
"c  c #8B683C",
"v  c #936A3E",
"b  c #E67540",
"n  c #E57E4F",
"m  c #5E832E",
"M  c #598136",
"N  c #5F913F",
"B  c #60872E",
"V  c #628A2F",
"C  c #679130",
"Z  c #699331",
"A  c #6E9D36",
"S  c #63943D",
"D  c #67983B",
"F  c #6A9B39",
"G  c #709F35",
"H  c #74A334",
"J  c #79A63B",
"K  c #4F8447",
"L  c #4D8149",
"P  c #528646",
"I  c #558944",
"U  c #5A8D42",
"Y  c #5E9040",
"T  c #7EA945",
"R  c #76AB4C",
"E  c #6CA352",
"W  c #7E807E",
"Q  c #82B25B",
"!  c #8DB159",
"~  c #A2816D",
"^  c #B18467",
"/  c #8FB86B",
"(  c #93B563",
")  c #9DB976",
"_  c #9FB67D",
"`  c #C88B4E",
"'  c #DB8B56",
"]  c #DD9652",
"[  c #F38F4D",
"{  c #E68B58",
"}  c #F0A157",
"|  c #E99C7F",
" . c #7BC8A7",
".. c #79B8CE",
"X. c #7ABCD0",
"o. c #828485",
"O. c #868A83",
"+. c #858488",
"@. c #99999A",
"#. c #9FA09E",
"$. c #A4AE94",
"%. c #A9A7A9",
"&. c #B1ADB1",
"*. c #BABEB0",
"=. c #BAB6BB",
"-. c #EAA389",
";. c #E5AA95",
":. c #DFB5A8",
">. c #ABC18A",
",. c #BCCB9F",
"<. c #83CFA2",
"1. c #8ED1A9",
"2. c #99D4B1",
"3. c #B9CEA5",
"4. c #C6CCBA",
"5. c #CCD5B9",
"6. c #EEC6BC",
"7. c #84BCD1",
"8. c #C1BDC0",
"9. c #85C0D3",
"0. c #90C3D6",
"q. c #84D3DF",
"w. c #BFDECD",
"e. c #A1C8DA",
"r. c #A9CBDC",
"t. c #B1CFDE",
"y. c #8ED5E0",
"u. c #99D7E3",
"i. c #BAD4E1",
"p. c #BFDFE9",
"a. c #8CE7E7",
"s. c #8CE8E7",
"d. c #8CE7E8",
"f. c #96E8E8",
"g. c #A0E8E9",
"h. c #CAC5CB",
"j. c #D0C5C7",
"k. c #D5D9C5",
"l. c #D2CCD2",
"z. c #DDD9DD",
"x. c #EFCFCB",
"c. c #EFD5D3",
"v. c #E2D8DC",
"b. c #F0D9D8",
"n. c #CDE1D7",
"m. c #E2E0DB",
"M. c #CBDAE6",
"N. c #DDDAE1",
"B. c #D7DFE9",
"V. c #D9DFEA",
"C. c #E3DCE2",
"Z. c #C8E6EC",
"A. c #DCE1EB",
"S. c #D0E9EE",
"D. c #E6E5E3",
"F. c #E6E5ED",
"G. c #EAE5EC",
"H. c #F1E2E5",
"J. c gray96",
"K. c #FEFEFE",
/* pixels */
"D.t ; U H H H H H D I A H H H A I A H H H A I D H H H H H U S H H H H H H D I A H H H H G I % z J.K.",
"t u M A H H H H H H D H H H H H D H H S N H D H H H H H H A A H H H H H H H D U D H H H H D 8 r o.J.",
"; p S H H H H H H H H H H H H H H H H D N S H H H H H H H H H H H H H H H H H S Y D H H H H D 8 r z ",
"U U D H H H H H H H H H H H H H H H H H F N H H H H H H H H H H H H H H H H H H S D H H H H H D 8 % ",
"D H H H H H H H H H H H H H H H H H H H H H H H H H H H H H H H H H H H H H H H H H H H H H H H S L ",
"I D H H H H H H H H H H H H H H H H H H H H H H H H H G H H H H H H H H H H H H H H H H H H H S P a ",
"A H H H H H H N S H H H H H H H H H H H H H H H H H F U A H H H H H H H H H H H H H H H H H N Y S L ",
"H H H H H H N S A H H H H H H H H H H H H H H H H D U D H H H H H H H H H H H H H H H H H N S F H D ",
"S A H H H H S A H H H H H H H H H H H H H H H H H D S H H H H H H H H H H H H H H H H H H S F D S S ",
"U A H H H H H H H H H H H H H H H H H H H H H H H H H H H H H H H H H H H H H H H H H H H H H D P a ",
"H H H H H H H H H H H H H H H H H H H H H H H H H H H H H H H H H H H H H H H H H H H H H H H H D P ",
"H H H H H H H H H H H H H H H H H H H H H H H H H H H H H H H H H H H H H H H H H H H H H H H H H F ",
"H H H H H H H H H H H H H H H H H H H H H H H H H H H H H H H H H H H H H H H H H H H H H H H H F I ",
"H H H H H H H H H H H H H H H H H H G 5 - & & & & & & & & : m H H H H H H H H H H H H H H H H H A S ",
"H H H H H H H H H H H H H H H H H A C 2 # O O O O O O O O # 4 Z G H H H H H H H H H H H H H H H A S ",
"A H H H H H H H H H H H H H H H G 5 > 0 c v v v v v v v v x , 1 m H H H H H H H H H H H H H H G S L ",
"I D H H H H H H H H H H H H H G Z 2 $ x ] } } } } } } } } ` < $ 4 A H H H H H H H H H H H H H S P a ",
"A H H H H H H H H H H H H H H m 2 s l ^ { [ [ [ [ [ [ [ [ ' ~ k i 1 Z H H H H H H H H H H H H H S L ",
"H H H H H H H H H H H H H H H 1 @ W j.;.n b b b b b b b b { :.8.f o m H H H H H H H H H H H H H H D ",
"S A H H H H H H H H H H H H H : + +.v.6.-.| | | | | | | | ;.x.l.g   5 H H H H H H H H H H H H D N N ",
"L D H H H H H H H H H H H H H : + +.C.H.c.c.c.c.c.c.c.c.c.b.H.l.g   5 H H H H D G H H H H H H D P a ",
"P D H H H H H H H H H H H H H 3 = j %.l.G.m.k.5.5.5.5.k.D.C.h.@.d * V H H H A U S H H H H H H H D P ",
"A U S H H H H H H H H H H H H C 9 6 t @.z.4.) ( ( ( ( >.k.l.o.e 7 m A H H H H A U S H H H H H H H F ",
"H A A H H H H H H H H H H H H Z m 6 e O.4.>.T H H H H ! ,.*.k w 7 m A H H H H H A A H H H H H H D I ",
"H H H H H H H H H H H H H H H 4 = h #.$.) ! J H H H H T ( _ $.@.s & V H H H H H H H H H H H H H A S ",
"H H H H H H H D D H H H H H H : + +.z.3.Q R R R R R R E R / 5.l.g   5 H H H H H H H H H H H D D H H ",
"H H H H H H F U S H H H H H H : + +.z.w.1.<.<.<.<.<. . .<.2.n.l.g   5 H H H H H H H H H H A U S H D ",
"A H H H H G U D H H H H H H H : + +.N.Z.f.s.s.s.s.d.d.d.a.g.S.l.g   5 H H H H H H H H H H U S A D L ",
"I D H H H H A H H H H H H H H : + +.N.p.y.q.q.q.q.q.q.q.q.u.Z.l.g   5 H H H H H H H H H H A H S P a ",
"D H H H H H H H H H H H H H H : + +.N.i.9.X.X.X.X.X.X.X.X.0.M.l.g   5 H H H H H H H H H H H H A N L ",
"H H H H H H H H H H H H H H H : + +.N.i.7.................0.M.l.g   5 H H H H H H H H H H H H H D L ",
"D H H H H H H H H H H H H H H : + +.N.i.7.................0.M.l.g   5 H H H H H H H H H H H H A N L ",
"I D H H H H H H H H H H H H H : + +.N.M.r.e.e.e.e.e.e.e.e.t.B.l.g   5 H H H H H H H H H H H H S P a ",
"A H H H H H H H H H H H H H H : + +.C.F.A.V.V.V.V.V.V.V.V.A.G.l.g   5 H H H H H H H H H H H H H D L ",
"H H H H H H H H H H H H H H H 3 * k &.=.=.=.=.=.=.=.=.=.=.=.=.%.d @ B H H H H H H H H H H H H H H A ",
"H H H H H H H H H H H H H H H C 9 i t y y y y y y y y y y y y t 7 5 A H H H H H H H H H H H H H A U ",
"H H H H H H H H H H H H H H H H A : .                         X 3 H H H H H H H H H H H H H H H A U ",
"H H H H H H H H H H H H H H H H H A Z Z Z Z Z Z Z Z Z Z Z Z Z Z A H H H H H H H H H H H H H H H H D ",
"H H H H H H H H H H H H H H H H H H H H H H H H H H H H H H H H H H H H H H H H H H H H H A H H D I ",
"H H S N H H H H H H H H H H H H H H H H H H H H H H H H H H H H H H H H H H H H H H H H H U D H H A ",
"I I S A H H H H H H H H H H H H H H H S N H H H H H H H H H H H H H H H H H A U D H H H H D U S H H ",
"a a S H H H H H H H H H H H H H H H H D N S H H H H H H H H H H H H H H H H H S N D H H H H D N Y Y ",
"a I D A D H H H H H H H H H H H H H H H D N H H H H H H H H H H H H H H H H H H S D H H D H H S a a ",
"L S F S U H H H H H A A H H H H H A A G H H H H H H H H H A A A H H H H H A A H H H H A U D A U a a ",
"a L L U A G H H G D P I F H H H G U K N H H H H G H H G A U P Y H H H H D P P D H H H A D I L L a a ",
"a a a L P I A N P K L D H H H H H F I L U H H U P N A I P L U A H H H H A S L P D H D P P L a a a a ",
"a a a a a L I S U a L U A S U U U U L a I A U L a P U S L a P U U U A S U I L L D D I a a a a a a a ",
"L I P P U L a U I a a L U P a L U L a a P U L a a P Y U L a a a a L U P a a a L U I P U L a a P I L ",
"L D U U D L P L K P L P L P P P F P P K L P L P L U D L P L K P L P L P P L P L P K U F L P L U D p ",
"L D U U D P D I U D P D I S S P F P S Y I D P D U U D P D I Y S P D P S S I D P D U U F P D U U S q "
};
