/* XPM */
static char *xpm_[] = {
/* columns rows colors chars-per-pixel */
"64 64 197 2 ",
"   c #010100",
".  c #090705",
"X  c #0C0A06",
"o  c #04040A",
"O  c #0C0C0B",
"+  c #110C07",
"@  c #120E0A",
"#  c #14100A",
"$  c #1A130D",
"%  c #030411",
"&  c #060816",
"*  c #141414",
"=  c gray10",
"-  c #1C1614",
";  c #21180A",
":  c #221A14",
">  c #291D12",
",  c #231E19",
"<  c #2F2403",
"1  c #3B2D03",
"2  c #352906",
"3  c #2D2019",
"4  c #2B231A",
"5  c #36271E",
"6  c #3A2919",
"7  c #101127",
"8  c #201E2C",
"9  c #242424",
"0  c #2E2E2D",
"q  c #2B2123",
"w  c #392B22",
"e  c #3A332A",
"r  c #3C3C3C",
"t  c #323232",
"y  c #432F1C",
"u  c #503A0D",
"i  c #5C1923",
"p  c #4A352A",
"a  c #563B27",
"s  c #453B31",
"d  c #795E10",
"f  c #5D4127",
"g  c #4B4237",
"h  c #4C4238",
"j  c #5B4536",
"k  c #6A4729",
"l  c #674528",
"z  c #694B3A",
"x  c #77563B",
"c  c #774F2E",
"v  c #1D1F4E",
"b  c #1C215F",
"n  c #292C53",
"m  c #333447",
"M  c #1F256B",
"N  c #393D63",
"B  c #272C6E",
"V  c #3D406A",
"C  c #454545",
"Z  c #474847",
"A  c #544C44",
"S  c #575757",
"D  c #54555C",
"F  c #4F5057",
"G  c #665747",
"H  c #745340",
"J  c #765845",
"K  c #6F6150",
"L  c #796856",
"P  c #414577",
"I  c #56576F",
"U  c #7A7A7D",
"Y  c #6C6568",
"T  c #967208",
"R  c #846407",
"E  c #825632",
"W  c #865B38",
"Q  c #905F37",
"!  c #966339",
"~  c #99663C",
"^  c #9C693E",
"/  c #835D48",
"(  c #B74B55",
")  c #BD585D",
"_  c #8C6643",
"`  c #8A624C",
"'  c #9F6C41",
"]  c #966840",
"[  c #886B57",
"{  c #927056",
"}  c #A16D42",
"|  c #A57145",
" . c #A3764E",
".. c #AA764A",
"X. c #AD794C",
"o. c #A6784F",
"O. c #B17C4F",
"+. c #A2755B",
"@. c #AA795E",
"#. c #B27E50",
"$. c #897560",
"%. c #B88C0A",
"&. c #CE9D0B",
"*. c #EAB20D",
"=. c #B68254",
"-. c #B98456",
";. c #BC8758",
":. c #BF8A5B",
">. c #99856E",
",. c #BA8567",
"<. c #A28D75",
"1. c #AE967D",
"2. c #B39479",
"3. c #BD8F70",
"4. c #C08B5C",
"5. c #C38D6D",
"6. c #C79678",
"7. c #DEA07C",
"8. c #D0A07F",
"9. c #E3A37E",
"0. c #2B3089",
"q. c #2B3297",
"w. c #2D3499",
"e. c #353C9C",
"r. c #3B419F",
"t. c #3940A0",
"y. c #42478D",
"u. c #51529B",
"i. c #6B6F90",
"p. c #434AA3",
"a. c #4C52A9",
"s. c #5359AA",
"d. c #5F64B2",
"f. c #5C61AD",
"g. c #666BB4",
"h. c #6C71B7",
"j. c #7479BD",
"k. c #7F83BD",
"l. c #7F83C1",
"z. c #8B8B8B",
"x. c #959595",
"c. c #989897",
"v. c #B59D82",
"b. c #BAA286",
"n. c #9A9BA9",
"m. c #9093BF",
"M. c #A592AE",
"N. c #9EA0BF",
"B. c #AAAAAD",
"V. c #B2B2B2",
"C. c #BABAB9",
"Z. c #D39881",
"A. c #C6AC8E",
"S. c #CBA98B",
"D. c #D7A685",
"F. c #CCB293",
"G. c #D7B999",
"H. c #EBAA84",
"J. c #E6A882",
"K. c #F2B48D",
"L. c #F7BD96",
"P. c #EAB292",
"I. c #F9C49E",
"U. c #F1C6A2",
"Y. c #F5C9A5",
"T. c #F6CFAB",
"R. c #FACDAA",
"E. c #FBD3AD",
"W. c #F3D3AE",
"Q. c #F7D7B2",
"!. c #FDD6B0",
"~. c #FDDBB5",
"^. c #FFDFB9",
"/. c #E7CAA7",
"(. c #878BC5",
"). c #989BCA",
"_. c #A69EC1",
"`. c #9EA1CF",
"'. c #A9ACD6",
"]. c #B2B4D6",
"[. c #A0A2C1",
"{. c #C1BFDA",
"}. c #C7C7C9",
"|. c #C9C9D3",
" X c #D7D7D8",
".X c #C2C4E2",
"XX c #C9CBE5",
"oX c #D6D7EB",
"OX c #DFE0EF",
"+X c gray91",
"@X c #EAEBF6",
"#X c #E7E8F5",
"$X c #EFF1F9",
"%X c #F4F4FB",
"&X c #FEFEFE",
"*X c #F3F3F4",
"=X c None",
/* pixels */
"=X=X=X=X=X=X=X=X=X=X=X=X=X=X=X=X=X=X=X=X                    o   =X=X=X=X=X=X=X=X=X=X=X=X=X=X=X=X=X=X=X=X=X=X=X=X=X=X=X=X=X=X=X=X",
"=X=X=X=X=X=X=X=X=X=X=X=X=X=X=X=X=X=X                      O t *   =X=X=X=X=X=X=X=X=X=X=X=X=X=X=X=X=X=X=X=X=X=X=X=X=X=X=X=X=X=X=X",
"=X=X=X=X=X=X=X=X=X=X=X=X=X=X=X=X                          O 0 9 *   =X=X=X=X=X=X=X=X=X=X=X=X=X=X=X=X=X=X=X=X=X=X=X=X=X=X=X=X=X=X",
"=X=X=X=X=X=X=X=X=X=X=X=X=X=X=X                                0 t O .   =X=X=X=X=X=X=X=X=X=X=X=X=X=X=X=X=X=X=X=X=X=X=X=X=X=X=X=X",
"=X=X=X=X=X=X=X=X=X=X=X=X=X                                    . * r *     =X=X=X=X=X=X=X=X=X=X=X=X=X=X=X=X=X=X=X=X=X=X=X=X=X=X=X",
"=X=X=X=X=X=X=X=X=X=X=X                                          O C r 9     =X=X=X=X=X=X=X=X=X=X=X=X=X=X=X=X=X=X=X=X=X=X=X=X=X=X",
"=X=X=X=X=X=X=X=X=X                        : / ` ` ` ` x .       O C C 0     =X=X=X=X=X=X=X=X=X=X=X=X=X=X=X=X=X=X=X=X=X=X=X=X=X=X",
"=X=X=X=X=X=X=X=X=X                      = z K.K.K.K.K.D.H >     O t *     =X=X=X=X=X=X=X=X=X=X=X=X=X=X=X=X=X=X=X=X=X=X=X=X=X=X=X",
"=X=X=X=X=X=X=X=X=X=X=X                . <.W.^.!.!.!.^.E.P.z     $ X     =X=X=X=X=X=X=X=X=X=X=X=X=X=X=X=X=X=X=X=X=X=X=X=X=X=X=X=X",
"=X=X=X=X=X=X=X=X=X=X=X=X=X=X=X=X  R R . 1.!.1.G.^.Q.b.A.!.J     T 1   =X=X=X=X=X=X=X=X=X=X=X=X=X=X=X=X=X=X=X=X=X=X=X=X=X=X=X=X=X",
"=X=X=X=X=X=X=X=X=X=X=X=X=X=X=X=X  u d $.G.W.>.A.^.Q.<.v.^.6.H   T 1   =X=X=X=X=X=X=X=X=X=X=X=X=X=X=X=X=X=X=X=X=X=X=X=X=X=X=X=X=X",
"=X=X=X=X=X=X=X=X=X=X=X=X=X=X=X=X    9 F.~.^.^.^.~.^.^.^.R.6.W u %.1   =X=X=X=X=X=X=X=X=X=X=X=X=X=X=X=X=X=X=X=X=X=X=X=X=X=X=X=X=X",
"=X=X=X=X=X=X=X=X=X=X=X=X=X=X=X=X=X  . = F.^.~.^.~.~.~.E.J.a 2 *.&.<   =X=X=X=X=X=X=X=X=X=X=X=X=X=X=X=X=X=X=X=X=X=X=X=X=X=X=X=X=X",
"=X=X=X=X=X=X=X=X=X=X=X=X=X=X=X=X=X=X=XX v.Q.~.T.T.T.Q.T.H.a 2 &.<                     =X=X=X=X=X=X=X=X=X=X=X=X=X=X=X=X=X=X=X=X=X",
"=X=X=X=X=X=X=X=X=X=X=X=X=X=X=X=X=X=X=X. = <.T.) ( ( P.E.H.p . 2 v I n.x.N N x.x.x.c.Y           =X=X=X=X=X=X=X=X=X=X=X=X=X=X=X=X",
"=X=X=X=X=X=X=X=X=X=X=X=X=X=X=X=X=X=X=X=X  A [ i i i [ L.J.Y Y n 0.j.%X&X(.d.%X&X&X&X}.S S S S m =X=X=X=X=X=X=X=X=X=X=X=X=X=X=X=X",
"=X=X=X=X=X=X=X=X=X=X=X=X=X=X=X=X=X=X=X=X=X# - * # o q 6.8.M.@Xg.q.r.XX&X.Xr..X&X&X&X&X&X&X&X&XN.%   =X=X=X=X=X=X=X=X=X=X=X=X=X=X",
"=X=X=X=X=X=X=X=X=X=X=X=X=X=X=X=X=X=X=X  . i. X X}.r.0.u.N.{.&X'.w.e.(.&X@Xf.k.%X*X&X%X*X&X&X&XN.%   =X=X=X=X=X=X=X=X=X=X=X=X=X=X",
"=X=X=X=X=X=X=X=X=X=X=X=X=X=X=X=X=X=X0 z.n.u.'.&X&X(.w.e.].&X&XoXp.q.d.$X&XD 7 C Z Z C F |.%X%XN.%   =X=X=X=X=X=X=X=X=X=X=X=X=X=X",
"=X=X=X=X=X=X=X=X=X=X=X=X=X=X=X=X=X% D &X$Xh.r.m.}.].t.q.h.%X&X%Xd.q.r.XX&XU 4           m N N n o   =X=X=X=X=X=X=X=X=X=X=X=X=X=X",
"=X=X=X=X=X=X=X=X=X=X=X=X=X=X=X  O & V oX&X|.r.b * B.j.q.r..X&X&X].e.w.k.&X&Xz.* =X=X=X  @ $ +       =X=X=X=X=X=X=X=X=X=X=X=X=X=X",
"=X=X=X=X=X=X=X=X=X=X=X=X=X=X=X@ >.h 8 N ).D X     V.'.e.w.(.&X&XoXa.q.s.#X&X*X}., =X=X. 1.D.`   =X=X=X=X=X=X=X=X=X=X=X=X=X=X=X=X",
"=X=X=X=X=X=X=X=X=X=X=X=X=X=X=X@ G.Q.L - 7 & =X  . V.#Xp.w.s.@X&X%Xg.w.e.XX&X&X+X9 =X=X. A.L.+.. =X=X=X=X=X=X=X=X=X=X=X=X=X=X=X=X",
"=X=X=X=X=X=X=X=X=X=X=X=X=X=X=XO L F.Y.3.a : =X=X  V.%Xh.w.e.XX&X&X`.w.w.).&X&X%XC.C e G G.6./   =X=X=X=X=X=X=X=X=X=X=X=X=X=X=X=X",
"=X=X=X=X=X=X=X=X=X=X=X=X=X=X=X=X  K /.E.9.p   =X. V.&X).w.w.).&X&XXXr.q.g.*X&X+XV.9 K ^.T.s   =X=X=X=X=X=X=X=X=X=X=X=X=X=X=X=X=X",
"=X=X=X=X=X=X=X=X=X=X=X=X=X=X=X=X=XO j Q.R.6.z     B.&XXXe.w.h.%X&X@Xa.q.p.#X&XC.*   L !.H.w   =X=X=X=X=X=X=X=X=X=X=X=X=X=X=X=X=X",
"=X=X=X=X=X=X=X=X=X=X=X=X=X=X=X=X=X  r Q.^.R.S.$.` A z.@Xs.w.a.#X&X&Xj.q.t..Xc.A v.b.G.!.J.w   =X=X=X=X=X=X=X=X=X=X=X=X=X=X=X=X=X",
"=X=X=X=X=X=X=X=X=X=X=X=X=X=X=X=X=X=Xw >./.!.G.2.+.- r B.V M B n.C.V.i.M M i.Z * L $.b.!.J.H , =X=X=X=X=X=X=X=X=X=X=X=X=X=X=X=X=X",
"=X=X=X=X=X=X=X=X=X=X=X=X=X=X=X=X=X=X=XO A.I.J   . . . O X X . . O X O . . O X       G !.H.J.H   =X=X=X=X=X=X=X=X=X=X=X=X=X=X=X=X",
"=X=X=X=X=X=X=X=X=X=X=X=X=X=X=X=X=X=X=XO A.I.H X x _ _ _ _ _ _ _ _ _ _ _ _ _ _ _ x + L ~.H.H.H   =X=X=X=X=X=X=X=X=X=X=X=X=X=X=X=X",
"=X=X=X=X=X=X=X=X=X=X=X=X=X=X=X=X=X=X=XX 3.K.x + ~ ........................X.X.' 5 G G.L.J.J 5 =X=X=X=X=X=X=X=X=X=X=X=X=X=X=X=X=X",
"=X=X=X=X=X=X=X=X=X=X=X=X=X=X=X=X=X=X=X. z ,.H . E ~ ! ! ! ! ! ! ! ! ! ! ! ! ! E . / L.J.@.;   =X=X=X=X=X=X=X=X=X=X=X=X=X=X=X=X=X",
"=X=X=X=X=X=X=X=X=X=X=X=X=X=X=X=X=X=X=X  . j j + Q ' ' ~ ' ' ' ' ^ ~ ~ ' ' ' ^ E + l ,.@.:     =X=X=X=X=X=X=X=X=X=X=X=X=X=X=X=X=X",
"=X=X=X=X=X=X=X=X=X=X=X=X=X=X=X=X=X=X=X# Q y   $  .:.X.~ =.:.:.:.;.' | :.;.:...W + . X + a $   =X=X=X=X=X=X=X=X=X=X=X=X=X=X=X=X=X",
"=X=X=X=X=X=X=X=X=X=X=X=X=X=X=X=X=X=X=X#  .W l x -.:.X.~ -.:.:.:.:.' | :.:.:.X.Q l a a l E >   =X=X=X=X=X=X=X=X=X=X=X=X=X=X=X=X=X",
"=X=X=X=X=X=X=X=X=X=X=X=X=X=X=X=X=X=X=X#  .X.' :.:.:.X.~ -.:.:.:.;.' | :.:.:.X.! ~ | | ~ ! >   =X=X=X=X=X=X=X=X=X=X=X=X=X=X=X=X=X",
"=X=X=X=X=X=X=X=X=X=X=X=X=X=X=X=X=X=X=X#  ...~ ;.:.:.X.~ -.:.:.:.:.' | :.:.4.X.! ! =.O.! Q 3   =X=X=X=X=X=X=X=X=X=X=X=X=X=X=X=X=X",
"=X=X=X=X=X=X=X=X=X=X=X=X=X=X=X=X=X=X=X#  ...^ ;.:.5.X.~ -.:.:.:.:.^ | :.:.4.X.! ! =.O.! ! 3   =X=X=X=X=X=X=X=X=X=X=X=X=X=X=X=X=X",
"=X=X=X=X=X=X=X=X=X=X=X=X=X=X=X=X=X=X=X#  ...^ ;.:.4.X.~ ;.:.:.:.;.' | ;.:.:.X.! ! =.X.! Q <   =X=X=X=X=X=X=X=X=X=X=X=X=X=X=X=X=X",
"=X=X=X=X=X=X=X=X=X=X=X=X=X=X=X=X=X=X=X#  .X.^ :.:.:.X.^ ;.:.4.:.:.' ..:.:.:...! ! #.=.! ! :   =X=X=X=X=X=X=X=X=X=X=X=X=X=X=X=X=X",
"=X=X=X=X=X=X=X=X=X=X=X=X=X=X=X=X=X=X=X#  .X.~ ;.:.4.X.~ ;.:.:.4.;.' | :.:.4.X.! ! #.X.! ! >   =X=X=X=X=X=X=X=X=X=X=X=X=X=X=X=X=X",
"=X=X=X=X=X=X=X=X=X=X=X=X=X=X=X=X=X=X=X#  .X.~ ;.:.4.X.~ ;.:.:.:.:.' | :.:.:.X.! ~ =.#.~ Q >   =X=X=X=X=X=X=X=X=X=X=X=X=X=X=X=X=X",
"=X=X=X=X=X=X=X=X=X=X=X=X=X=X=X=X=X=X=X#  .=.| | ;.:.X.~ -.:.:.:.;.' | :.:.:.X.! ! #.=.! ! >   =X=X=X=X=X=X=X=X=X=X=X=X=X=X=X=X=X",
"=X=X=X=X=X=X=X=X=X=X=X=X=X=X=X=X=X=X=X#  .4.X.~ -.4.X.~ -.:.:.:.:.^ ..:.:.-.| ~ } #...! ! 3   =X=X=X=X=X=X=X=X=X=X=X=X=X=X=X=X=X",
"=X=X=X=X=X=X=X=X=X=X=X=X=X=X=X=X=X=X=X#  .4.O.~ -.4.X.~ -.:.:.4.;.' | :.:...! ~ ;...~ ! W >   =X=X=X=X=X=X=X=X=X=X=X=X=X=X=X=X=X",
"=X=X=X=X=X=X=X=X=X=X=X=X=X=X=X=X=X=X=X=X4 x =.~ -.4.X.~ -.4.:.:.:.' | :.;.| ! ~ -...~ W > + =X=X=X=X=X=X=X=X=X=X=X=X=X=X=X=X=X=X",
"=X=X=X=X=X=X=X=X=X=X=X=X=X=X=X=X=X=X=X=X  f } ~ -.4.X.~ -.:.:.:.:.' ..:.:...! ~ | ~ ~ c X =X=X=X=X=X=X=X=X=X=X=X=X=X=X=X=X=X=X=X",
"=X=X=X=X=X=X=X=X=X=X=X=X=X=X=X=X=X=X=X=X  a ~ ~ X.:.X.~ -.4.4.4.=.~ | ;.=.' ! ! ! ! ~ E + =X=X=X=X=X=X=X=X=X=X=X=X=X=X=X=X=X=X=X",
"=X=X=X=X=X=X=X=X=X=X=X=X=X=X=X=X=X=X=X=X  a ! ! ~ O...~ =.-.-.=.^ ! | O.~ ! ! ! ! ! ! c X =X=X=X=X=X=X=X=X=X=X=X=X=X=X=X=X=X=X=X",
"=X=X=X=X=X=X=X=X=X=X=X=X=X=X=X=X=X=X=X=X=X# 6 ! ~ ~ ~ ! ~ ~ ~ ^ ~ ! ~ ~ ~ ~ ! ~ ~ ! f $ =X=X=X=X=X=X=X=X=X=X=X=X=X=X=X=X=X=X=X=X",
"=X=X=X=X=X=X=X=X=X=X=X=X=X=X=X=X=X=X=X=X=X=X@ y y c ~ ~ ~ ~ ~ ~ ~ ~ ~ ~ ~ ~ ! ~ k 6 ;   =X=X=X=X=X=X=X=X=X=X=X=X=X=X=X=X=X=X=X=X",
"=X=X=X=X=X=X=X=X=X=X=X=X=X=X=X=X=X=X=X=X=X=X=X  . y k k k k l k k k k k k k k k 6     =X=X=X=X=X=X=X=X=X=X=X=X=X=X=X=X=X=X=X=X=X",
"=X=X=X=X=X=X=X=X=X=X=X=X=X=X=X=X=X=X=X=X=X=X=X=X=X. . . . X . . . .   . X X   . . =X=X=X=X=X=X=X=X=X=X=X=X=X=X=X=X=X=X=X=X=X=X=X",
"=X=X=X=X=X=X=X=X=X=X=X=X=X=X=X=X=X=X=X=X=X=X=X=X=X=X  e 2.+.,   =X=X  e 2.+.4   =X=X=X=X=X=X=X=X=X=X=X=X=X=X=X=X=X=X=X=X=X=X=X=X",
"=X=X=X=X=X=X=X=X=X=X=X=X=X=X=X=X=X=X=X=X=X=X=X=X=X=X  h U.7.5   =X=X  h Y.9.5   =X=X=X=X=X=X=X=X=X=X=X=X=X=X=X=X=X=X=X=X=X=X=X=X",
"=X=X=X=X=X=X=X=X=X=X=X=X=X=X=X=X=X=X=X=X=X=X=X=X=X=X  g U.7.5   =X=X  h U.7.5   =X=X=X=X=X=X=X=X=X=X=X=X=X=X=X=X=X=X=X=X=X=X=X=X",
"=X=X=X=X=X=X=X=X=X=X=X=X=X=X=X=X=X=X=X=X=X=X=X=X=X=X  g Y.9.5   =X=X  g U.7.5   =X=X=X=X=X=X=X=X=X=X=X=X=X=X=X=X=X=X=X=X=X=X=X=X",
"=X=X=X=X=X=X=X=X=X=X=X=X=X=X=X=X=X=X=X=X=X=X=X=X=X=X  g S.5.5   =X=X  g U.7.5   =X=X=X=X=X=X=X=X=X=X=X=X=X=X=X=X=X=X=X=X=X=X=X=X",
"=X=X=X=X=X=X=X=X=X=X=X=X=X=X=X=X=X=X=X=X=X=X=X=X=X=X  - , 5 *   =X=X  g U.7.5   =X=X=X=X=X=X=X=X=X=X=X=X=X=X=X=X=X=X=X=X=X=X=X=X",
"=X=X=X=X=X=X=X=X=X=X=X=X=X=X=X=X=X=X=X=X=X=X=X=X=X=X            =X=X  g U.7.5   =X=X=X=X=X=X=X=X=X=X=X=X=X=X=X=X=X=X=X=X=X=X=X=X",
"=X=X=X=X=X=X=X=X=X=X=X=X=X=X=X=X=X=X=X=X=X=X=X=X=X=X=X=X=X=X=X=X=X=X  h U.7.5   =X=X=X=X=X=X=X=X=X=X=X=X=X=X=X=X=X=X=X=X=X=X=X=X",
"=X=X=X=X=X=X=X=X=X=X=X=X=X=X=X=X=X=X=X=X=X=X=X=X=X=X=X=X=X=X=X=X=X=X  s S.5.5   =X=X=X=X=X=X=X=X=X=X=X=X=X=X=X=X=X=X=X=X=X=X=X=X",
"=X=X=X=X=X=X=X=X=X=X=X=X=X=X=X=X=X=X=X=X=X=X=X=X=X=X=X=X=X=X=X=X=X=X  , , > $   =X=X=X=X=X=X=X=X=X=X=X=X=X=X=X=X=X=X=X=X=X=X=X=X",
"=X=X=X=X=X=X=X=X=X=X=X=X=X=X=X=X=X=X=X=X=X=X=X=X=X=X=X=X=X=X=X=X=X=X            =X=X=X=X=X=X=X=X=X=X=X=X=X=X=X=X=X=X=X=X=X=X=X=X"
};
