/* XPM */
static char *c676ec64d2da475faf7dce0d4cf73bcaezhy1Ikdoz2cO23d[] = {
/* columns rows colors chars-per-pixel */
"50 50 203 2 ",
"   c #141C1C",
".  c #1B261D",
"X  c #1C261E",
"o  c #202C1E",
"O  c #24321F",
"+  c #1B2423",
"@  c #1D2927",
"#  c #1E2A2A",
"$  c #202E24",
"%  c #263521",
"&  c #293A26",
"*  c #24332A",
"=  c #202E31",
"-  c #293736",
";  c #253539",
":  c #27383C",
">  c #343A3A",
",  c #2F4122",
"<  c #2B422C",
"1  c #314524",
"2  c #344924",
"3  c #384E28",
"4  c #3C5425",
"5  c #39542B",
"6  c #2E4339",
"7  c #314938",
"8  c #385538",
"9  c #3F6133",
"0  c #3B623C",
"q  c #415B26",
"w  c #425E2D",
"e  c #425E38",
"r  c #46632A",
"t  c #496629",
"y  c #4C6A2A",
"u  c #4D702F",
"i  c #53742B",
"p  c #56792D",
"a  c #597C2D",
"s  c #4C6B33",
"d  c #466538",
"f  c #4D7132",
"g  c #4B753C",
"h  c #527431",
"j  c #293C40",
"k  c #2E454A",
"l  c #3B4744",
"z  c #324A4D",
"x  c #395447",
"c  c #3E5941",
"v  c #344C52",
"b  c #3A5659",
"n  c #396050",
"m  c #3E5C64",
"M  c #464C4C",
"N  c #465847",
"B  c #455856",
"V  c #54595A",
"C  c #446746",
"Z  c #487845",
"A  c #4A7F4B",
"S  c #446252",
"D  c #47685E",
"F  c #456767",
"G  c #43626A",
"H  c #496C6A",
"J  c #596264",
"K  c #466872",
"L  c #476B73",
"P  c #526F78",
"I  c #4D7274",
"U  c #4B717C",
"Y  c #50757C",
"T  c #69726E",
"R  c #6F7A7C",
"E  c #5D822E",
"W  c #5D8331",
"Q  c #54833E",
"!  c #5F913F",
"~  c #60862E",
"^  c #628A2F",
"/  c #648D31",
"(  c #628B36",
")  c #679030",
"_  c #6A9531",
"`  c #6E9C34",
"'  c #63943D",
"]  c #67983B",
"[  c #6A9B39",
"{  c #709E34",
"}  c #74A334",
"|  c #4D8047",
" . c #4C8149",
".. c #528646",
"X. c #558944",
"o. c #5A8D41",
"O. c #5E9040",
"+. c #89937B",
"@. c #4E7582",
"#. c #4F7885",
"$. c #557B85",
"%. c #537D8A",
"&. c #727E81",
"*. c #55808D",
"=. c #5F828D",
"-. c #578392",
";. c #5A8694",
":. c #5D8C9A",
">. c #5F909F",
",. c #7C8283",
"<. c #608895",
"1. c #6B919E",
"2. c #5F8FA0",
"3. c #5F90A1",
"4. c #6295A5",
"5. c #6599AB",
"6. c #6898A8",
"7. c #7399A6",
"8. c #689EB1",
"9. c #6BA3B6",
"0. c #6DA5B9",
"q. c #6EA8BC",
"w. c #77A3B2",
"e. c #70AABE",
"r. c #72ADC2",
"t. c #76B1C6",
"y. c #7BB2C5",
"u. c #76B4C9",
"i. c #7BB6CA",
"p. c #79B8CE",
"a. c #858989",
"s. c #8A8E8E",
"d. c #8D9394",
"f. c #949898",
"g. c #959EA0",
"h. c #84A4AE",
"j. c #98A7AC",
"k. c #9BA9AD",
"l. c #86AAB6",
"z. c #8FACB6",
"x. c #8BAEBA",
"c. c #93ACB3",
"v. c #9AAEB3",
"b. c #86B1BF",
"n. c #8BB0BD",
"m. c #95B5BF",
"M. c #9CB4BB",
"N. c #A3AAAB",
"B. c #A7AAAA",
"V. c #A0ADB0",
"C. c #ACB3B4",
"Z. c #A8B5B8",
"A. c #B3B6B6",
"S. c #B3BABC",
"D. c #82B3C4",
"F. c #8BB4C2",
"G. c #86B8C9",
"H. c #94BAC6",
"J. c #9EBAC4",
"K. c #83BDD1",
"L. c #A4BCC3",
"P. c #AABBC1",
"I. c #B3BEC1",
"U. c #B8BEC0",
"Y. c #8CC2D5",
"T. c #93C4D5",
"R. c #98C7D8",
"E. c #ADC5CC",
"W. c #BBC3C5",
"Q. c #B8C3C6",
"!. c #B5C5CA",
"~. c #BBC6C9",
"^. c #A4CDDC",
"/. c #B5C9D0",
"(. c #BDCCD1",
"). c #A9D1DF",
"_. c #B7D3DD",
"`. c #AAD2E0",
"'. c #B6D7E2",
"]. c #C7C8C9",
"[. c #C3CACC",
"{. c #C6CED1",
"}. c #CCD2D4",
"|. c #C7D5D9",
" X c #D5D8D8",
".X c #D4DADC",
"XX c #C7DDE4",
"oX c #C3DFE9",
"OX c #D2DEE3",
"+X c #DADFE1",
"@X c #CCE3EB",
"#X c #DDE2E4",
"$X c #D4E6EB",
"%X c #D8EAF0",
"&X c #E2E4E4",
"*X c #E6E8E9",
"=X c #EAECED",
"-X c #E7EFF2",
";X c #E9F1F4",
":X c #F4F5F5",
">X c #F6F7F8",
",X c #F4F8F9",
"<X c #FEFEFE",
/* pixels */
"T - 8 o.} } } } } ] X.[ } } } [ X.[ } } } [ X.] } } } } } o.' } } } } } } ] X.[ } } } } { X.< N +.+.",
"- 8 Q [ } } } } } } ] } } } } } ] } } ] ! } ] } } } } } } [ [ } } } } } } } ] o.] } } } } ] g 8 N +.",
"8 Z ' } } } } } } } } } } } } } } } } ] ! ' } } } } } } } } } } } } } } } } } ] O.] } } } } ] g 8 N ",
"o.o.] } } } } } } } } } } } } } } } } } [ ! } } } } } } } } } } } } } } } } } } ' ] } } } } } ] g < ",
"] } } } } } } } } } } } } } } } } } } } } } } } } } } } } } } } } } } } } } } } } } } } } } } } '  .",
"X.] } } } } } } } } } } } } } } } } } } } } } } } } } { } } } } } } } } } } } } } } } } } } } ' ..A ",
"[ } } } } } } ! ' } } } } } } } } } } } } } } } } } [ o.[ } } } } } } } } } } } } } } } } } ! O.'  .",
"} } } } } } ! ' [ } } } } } } } } } } } } } } } ) u 5 5 4 q q q y E { } } } } } } } } } } ! ' [ { ] ",
"' [ } } } } ' [ } } } } } } } } } } } } } } } } E 3 .           & y ` } } } } } } } } } } ' [ ] ' ' ",
"o.[ } } } } } } } } } } } } } } } } } } } } } } E 3 . # j v v v x d p ^ _ } } } } } } } } } } ] ..A ",
"} } } } } } } } } } } } } } } } } } } } } } } } E 3 + k K -.-.-.I S 3 t ^ } } } } } } } } } } } ] ..",
"} } } } } } } } } } } } } } } } } } } } } } { ` a 5 * m <.u.u.u.4.G - 3 p ` { } } } } } } } } } } [ ",
"} } } } } } } } } } } } } } } } } } } } } ` ~ i d S G $.7.D.D.i.9.*.G S d y E ` } } } } } } } } [ X.",
"} } } } } } } } } } } } } } } } } } } } } _ y 1 x I 4.7.h.c.b.i.t.0.4.I x , y ) } } } } } } } } [ ' ",
"} } } } } } } } } } } } } } } } { _ / / ^ W d - b ;.t.F.M.Z.m.D.i.i.u.-.z X q ^ } } } } } } } } [ ] ",
"[ } } } } } } } } } } } } } } } / i q q q w S K *.5.i.T.(.}.E.m.b.D.t.-.z X q ^ } } } } } } } { '  .",
"X.] } } } } } } } } } } } } } } E 4 o X X - H 5.r.t.p.^.$X=X}.Z.c.D.t.-.z X q ^ } } } } } } } ] ..A ",
"[ } } } } } } } } } } } } { / E s c z k k b $.w.G.T.^.oX-X:X}.Z.c.b.u.4.K z e h E _ } } } } } } '  .",
"} } } } } } } } } } } } } _ i 4 c H %.*.*.;.7.h.J._.@X-X,X:X}.Z.c.b.i.q.3.$.D 8 q a ` } } } } } } ] ",
"' [ } } } } } } } } } { { / w * v *.e.t.t.y.x.v.Q..X,X<X<X:X XS.v.F.i.i.u.q.U - & y ` } } } } ] ! ! ",
" .] } } } } } } } } { / p s C b P 1.b.D.D.F.L.~. X=X<X<X<X>X&X}.!.J.F.D.i.e.U ; % y ` } } } } ] ..A ",
"..] } } } } } } } } ` p 4 7 F :.7.h.c.c.c.M.(.#X;X:X<X<X<X<X:X=X.X!.c.x.D.e.U ; % t ` } } } } } ] ..",
"[ o.] } } } } } { _ / s 7 k #.e.D.z.k.N.V.S. X:X<X<X<X<X<X<X<X<X=X[.V.z.D.e.U ; % r ` } } } } } } [ ",
"} [ [ } } } } } / i r C F @.4.t.D.z.k.S.[. X*X>X<X<X<X<X<X<X<X<X=X[.V.z.D.e.U ; % t ` } } } } } ] X.",
"} } } } } } } } a 4 * b :.q.r.p.D.z.k.Q.#X:X>X<X<X<X<X<X<X<X<X<X=X[.V.z.D.e.U ; % y ` } } } } } [ ' ",
"} } } } } } } ] h 2 @ m 4.p.i.D.F.L.S.Q.].{.&X>X<X<X<X=X X].&X:X=X[.V.z.D.e.U ; % y ` } } } ] ] } } ",
"} } } } } } [ o.f 2 @ m 4.i.D.x.L.(. XC.a.a.A.=X<X<X>X].f.,.A.=X=X[.V.z.D.e.U ; % y ` } } [ o.' } ] ",
"[ } } } } { o.] p 2 @ m 4.i.x.j.I..X=XB.V l d.&X<X<X:XC.V > s..X=X[.V.z.D.e.U ; % y ` } } o.] [ ]  .",
"X.] } } } } [ { a 2 @ m 4.i.x.j.U.+X=XB.B > s.&X<X<X:XB.V - a..X=X[.V.c.D.e.U ; % y ` } } [ } ] ..A ",
"] } } } } } } } a 2 @ m 4.i.x.j.U.+X=XB.B > s.&X<X<X:XB.V - a..X=X[.V.z.D.e.U ; % y ` } } } } [ !  .",
"} } } } } } } } a 2 @ m 4.i.n.c.I..X*XB.J M f.*X<X<X:XA.T M d. X#X~.v.x.D.e.U ; % y ` } } } } } ]  .",
"] } } } } } } } a 2 @ m 4.i.D.n.J.!.{.A.f.f.].:X<X<X>X XB.d.B.[.(.L.n.D.i.e.U ; % y ` } } } } [ !  .",
"X.] } } } } } } a 2 @ m 4.p.i.i.F.M.Z.Q. X&X=X>X<X<X<X:X*X X[.S.M.F.D.i.p.e.U ; % y ` } } } } ] ..A ",
"[ } } } } } } } E q < B *.5.q.u.D.x.c.!..X=X:X<X<X<X<X>X;X#X(.M.x.D.i.r.8.:.H 7 3 p ` } } } } } ]  .",
"} } } } } } } } _ a y C B K :.r.i.D.F.J.!.}.&X,X<X<X<X=X X~.L.F.D.i.i.5.@.b C s p ^ { } } } } } } [ ",
"} } } } } } } } } { _ y < : U 0.u.i.i.F.c.Z.}.:X<X<X,X+XQ.v.n.D.i.i.r.-.v * w ~ ` { } } } } } } [ o.",
"} } } } } } } } } } { a q 8 D $.3.q.i.D.x.M.!..X#X#X+X(.L.x.D.i.r.5.-.H c 4 i _ } } } } } } } } [ o.",
"} } } } } } } } } } } _ E h d z K 2.u.i.D.F.J.I.Q.Q.U.L.F.D.i.p.8.@.v c s E / ` } } } } } } } } } ] ",
"} } } } } } } } { ` _ _ _ W w * v ;.u.p.p.i.n.c.k.k.j.x.D.p.p.i.6.G ; 3 h _ _ _ ` { } } } [ } } ] X.",
"} } ' ! } } } } ) p t t t d S G $.7.l.D.i.i.D.n.x.x.x.D.i.p.D.b.7.=.K S d t t r i ^ { } } o.] } } [ ",
"X.X.' [ } } } } E 4 O O O 6 H 4.w.h.c.x.y.p.i.i.i.i.i.i.p.i.b.c.h.w.5.Y x O O $ 1 i ` } } ] o.' } } ",
"A A ' } } { _ ^ h 8 : j j b <.G.H.M.k.c.b.D.D.D.D.D.D.D.D.D.x.j.v.H.T.7.G j j j 6 d W / ` } ] ! O.O.",
"A X.] [ ] _ p q N F @.@.@.<.x._._.P.k.j.c.x.x.x.x.x.x.x.x.z.c.j.Z./.XXJ.7.@.@.@.K N 5 y W { } ' A A ",
" .' [ ' o./ q % z %.q.r.r.G._.-X#X~.N.k.k.k.j.j.j.j.j.j.k.k.k.k.S. X;XoXT.r.r.r.4.m * 2 d ] [ o.A A ",
"A  . .o.[ W 4 X z -.u.p.p.K.).@XOX{.Q.Q.Q.S.g.,.R R R d.V.Q.Q.Q.[.|.@X'.T.p.p.p.5.m @ 1 u .. . .A A ",
"A A A  ...g 4 . z -.u.p.p.p.Y.R._.XX#X&X&X{.d.V l l M &.A.&X&X&XOX'.^.T.K.p.p.p.5.m @ & 0 A A A A A ",
"A A A A A C 5 $ z %.q.e.e.r.t.p.R.@X;X,X,X.Xa.>     @ T U.,X,X,X%X`.K.u.r.e.e.e.>.m * < 0 A A A A A ",
" .X.....o.Z 0 5 x F U U U %.5.t.Y.`.oXoXoXE.&.-     + J c.oXoXoX'.R.p.9.;.@.U U H b 7 9 C A A ..X. .",
" .] o.o.] | Z C 0 7 : : : v %.e.K.Y.T.T.T.b.P =     + B 7.T.T.T.Y.K.i.>.m : : : 6 8 g ( A .. .o.] Z ",
" .] o.o.] ..] X.s 1       ; U q.p.p.p.p.p.9.K =     + b >.p.p.p.p.p.u.-.z       % 8 Q [ ..] o.o.' n "
};
