/* XPM */
static char *_d808cb3bd7d4242ce16dd3d032c05f75l5itIEsEcaIcK0M[] = {
/* columns rows colors chars-per-pixel */
"50 50 133 2 ",
"   c #141B1B",
".  c #181F1E",
"X  c #1C211E",
"o  c #20241F",
"O  c #1D2422",
"+  c #1F2825",
"@  c #212521",
"#  c #212926",
"$  c #2B2C24",
"%  c #252E2A",
"&  c #282F2A",
"*  c #26302C",
"=  c #29322D",
"-  c #313126",
";  c #34372D",
":  c #393629",
">  c #373A2F",
",  c #3E3B2B",
"<  c #2D3630",
"1  c #2F3933",
"2  c #303732",
"3  c #323A34",
"4  c #393F34",
"5  c #423D2D",
"6  c #37433B",
"7  c #3B443C",
"8  c #3D483E",
"9  c #46402E",
"0  c #454332",
"q  c #494533",
"w  c #4A4836",
"e  c #43473A",
"r  c #40483F",
"t  c #4D4D3C",
"y  c #514F3F",
"u  c #4E503E",
"i  c #52523F",
"p  c #3E4B41",
"a  c #434D43",
"s  c #514F40",
"d  c #445145",
"f  c #4D5343",
"g  c #4D5B4E",
"h  c #525544",
"j  c #595744",
"k  c #525847",
"l  c #545C4B",
"z  c #585F4D",
"x  c #4D5C50",
"c  c #545E52",
"v  c #5B5E51",
"b  c #56604F",
"n  c #59614E",
"m  c #546455",
"M  c #5A6555",
"N  c #5B6856",
"B  c #5E6758",
"V  c #576858",
"C  c #5C6C5B",
"Z  c #5E705F",
"A  c #61634F",
"S  c #606652",
"D  c #646E5C",
"F  c #686C58",
"G  c #6E715C",
"H  c #5F7160",
"J  c #646B63",
"K  c #617261",
"L  c #637462",
"P  c #647563",
"I  c #657664",
"U  c #6B7662",
"Y  c #697967",
"T  c #6E7B67",
"R  c #6B736A",
"E  c #6B7B68",
"W  c #6F7E6B",
"Q  c #727B69",
"!  c #707F6B",
"~  c #717F6C",
"^  c #6F7D72",
"/  c #727F72",
"(  c #72816C",
")  c #77816D",
"_  c #7A836F",
"`  c #778570",
"'  c #798671",
"]  c #7D8974",
"[  c #7F8C76",
"{  c #76827C",
"}  c #78877F",
"|  c #838B74",
" . c #848B75",
".. c #818D77",
"X. c #848D77",
"o. c #838F78",
"O. c #85917A",
"+. c #89937C",
"@. c #8A957D",
"#. c #8D977F",
"$. c #798780",
"%. c #7B8983",
"&. c #8F9B85",
"*. c #8E9E8F",
"=. c #909F8F",
"-. c #849592",
";. c #869993",
":. c #8B9C90",
">. c #90A090",
",. c #8EA2A1",
"<. c #9CAFA2",
"1. c #93AAAA",
"2. c #9DB3AC",
"3. c #97AFB1",
"4. c #99B2B4",
"5. c #A0BCBF",
"6. c #A8C3BF",
"7. c #A4C2C6",
"8. c #A9C4C1",
"9. c #A9C6C8",
"0. c #ADCCCD",
"q. c #ADCDD3",
"w. c #B2D2D7",
"e. c #B4D6DD",
"r. c #B6DAE2",
"t. c #B9DCE5",
"y. c #C1DEE7",
"u. c #C5DFE8",
"i. c #CEE1E9",
"p. c #D3E2EA",
"a. c #DBE4EC",
"s. c #E4E6EE",
"d. c #F2EAF1",
/* pixels */
"W L Y ` O.O.' E K H H H H H H C l t 0 t z C H H H H H H H H H H H H H C z t q j G  .#.#.#.#.#.#.#.#.",
"W K Y ` O.O.' E K H H H H H H C l t 0 t z C H H H H H H H H H H H H H C z t q j G | #.#.#.#.#.#.#.#.",
"U N D T ' ] ( Y H H H H H H H C l t 0 t z C H H H H H H H H H H H H H C z t q j F _ o.O.@.#.#.#.#.#.",
"F k n F T ~ Y P H H H H H H H C l t 0 t z C H H H H H H H H H H H H H C z t q i S T ` [ O.#.#.#.#.#.",
"A t h n D I L K H H H H H H H C l t 0 t z C H H H H H H H H H H H H H C z t 0 t z D W ' o.#.#.#.#.#.",
"A t t k M N N N N N m m m m m c f e 5 e f m m m m m m m m m m m m m N M l f w f z C I ( ] O.+.@.#.#.",
"F k k k k k k k k f d p p p p 6 4 ; - ; 4 8 p p p p p p p p p p a f f k k k k z M C L E ( ' [ O.@.#.",
"U N z k u t t t w 0 3 = * * * % # @ @ # # % * * * * * * * * * * = 4 e t k l M N C C K P Y W ` ..@.#.",
"W K M k w 0 9 5 5 - @ .                                         X $ : 0 t l N C C Z H H H L ! ] @.#.",
"Y K N b k t 0 , - $ o                                           . @ $ : 4 8 d g m C H H H K W ] @.+.",
"I K C M m g e ; @ X X                                             X @ @ & = 1 8 g N H H H K W ] @.O.",
"K H Z C C m p = .                                                         . O < a m H H H K W ] @...",
"H H H H H m p =                                                               = p m H H H K E ) ] ' ",
"H H H H H m p =                                                               = p m H H H K I W ( W ",
"H H H H H m p =                                                               = p V H H H H K L I P ",
"H H C N m g 6 %                                                               % 6 g m N C H H H H H ",
"H Z V g d 6 < +                                                               + < 6 d g V H H H H H ",
"H Z m a 3 % + X                                                               X + % 3 a m Z H H H H ",
"H Z g 6 #                                                                           # 6 x Z H H H H ",
"H Z g 6 #                                                                           # 6 x Z H H H H ",
"H Z g 6 #                                                                           # 6 x Z H H H H ",
"H Z g 6 #                                                                           # 6 x Z H H H H ",
"H Z g 6 #                                                                           # 6 x Z H H H H ",
"H Z g 6 #                                                                           # 6 x Z H H H H ",
"H Z g 6 #                                                                           # 6 x Z H H H H ",
"H Z g 6 #                                                                           # 6 x Z H H H H ",
"H Z g 6 #                                                                           # 6 x Z H H H H ",
"H Z g 6 #                                                                           # 6 x Z H H H H ",
"H Z g 6 #                                                                           # 6 x Z H H H H ",
"H Z g 6 #                                                                           # 6 x Z H H H H ",
"H Z g 6 #                                                                           # 6 x Z H H H H ",
"H Z g 6 #                                                                           # 6 x Z H H H H ",
"H Z c 8 = X X                   # = 3 3 3 3 3 3 3 3 3 3 3 = #                   X X = 8 c Z H H H H ",
"H Z m a > $ @ X               O < a c c c c c c c c c c c a < O               X @ $ > a m Z H H H H ",
"H Z m f 0 : $ X               # 8 B ) ' ' ' ' ' ' ' ' ' ) B 8 +               X $ : 0 f m Z H H H H ",
"H Z M k w , - @         . O # 3 l T +.#.#.#.#.#.#.#.#.#.+.T l 3 # O .         @ - , w k M Z H H H H ",
"H Z M k w , - @         # 3 r l D _ @.#.#.#.#.#.#.#.#.#.@._ D l r 2 +         @ - , w k M Z H H H H ",
"H Z M k w , - @         & a B Q ' X.#.#.#.#.#.#.#.#.#.#.#.X.' Q B a %         @ - , w k M Z H H H H ",
"C C m h w , - @     X O 3 m ' &.&.&.&.&.&.&.&.&.&.&.&.&.&.&.&.&.` m 3 O .     @ - , w k m C C C Z H ",
"M b k t q , - @   # < 7 c ^ :.<.<.<.<.<.<.<.<.<.<.<.<.<.<.<.<.<.:.^ c 7 < #   @ - , q t k b M C Z H ",
"l f t w 0 , - @ X < a B / ;.2.8.8.8.8.8.8.8.8.8.8.8.8.8.8.8.8.8.2.;./ B a < X @ - , 0 w t h l M C H ",
"h w 0 9 9 , - @ O 7 M ] >.2.0.e.e.e.e.e.e.e.e.e.e.e.e.e.e.e.e.e.0.2.=.] M 7 O @ - , 9 9 0 w h b C Z ",
"t 0 9 9 9 5 : $ # a R *.2.8.w.t.t.t.t.t.t.t.t.t.t.t.t.t.t.t.t.t.w.6.2.*.R a # $ : 5 9 9 9 0 t k m M ",
"w 9 9 9 9 5 , - ; c $.2.8.0.e.t.t.t.t.t.t.t.t.t.t.t.t.t.t.t.t.t.e.0.8.2.} c ; - , 5 9 9 9 9 w t h k ",
"0 9 9 9 9 5 5 5 0 J ;.9.w.e.r.t.t.t.t.t.t.t.t.t.t.t.t.t.t.t.t.t.r.e.w.9.;.J 0 5 5 5 9 9 9 9 0 q w w ",
"9 9 9 9 9 0 w h v { 1.w.t.t.t.y.y.y.y.y.y.y.y.y.y.y.y.y.y.y.y.y.t.t.t.w.1.{ v h w 0 9 9 9 9 9 9 9 9 ",
"9 9 9 9 9 w v R %.,.5.e.t.u.i.p.p.p.p.p.p.p.p.p.p.p.p.p.p.p.p.p.i.u.t.e.5.,.%.R v w 9 9 9 9 9 9 9 9 ",
"9 9 9 9 9 s R -.4.7.q.r.y.i.a.s.s.s.s.s.s.s.s.s.s.s.s.s.s.s.s.s.a.i.y.r.q.7.4.-.R y 9 9 9 9 9 9 9 9 ",
"9 9 9 9 9 h { 4.e.r.t.t.u.p.s.d.d.d.d.d.d.d.d.d.d.d.d.d.d.d.d.d.s.p.u.t.t.r.e.3.{ h 9 9 9 9 9 9 9 9 ",
"9 9 9 9 9 h { 4.r.t.t.t.u.p.s.d.d.d.d.d.d.d.d.d.d.d.d.d.d.d.d.d.s.p.u.t.t.t.r.4.{ h 9 9 9 9 9 9 9 9 "
};
