/* XPM */
static char *xpm_[] = {
/* columns rows colors chars-per-pixel */
"50 50 198 2 ",
"   c #141B1B",
".  c #191F1D",
"X  c #1D221E",
"o  c #20241F",
"O  c #171F20",
"+  c #172021",
"@  c #1C2424",
"#  c #1E2A2C",
"$  c #232621",
"%  c #222925",
"&  c #2C2D24",
"*  c #252E2A",
"=  c #2A2F29",
"-  c #26302C",
";  c #2B332D",
":  c #333227",
">  c #33342A",
",  c #37372B",
"<  c #3D392B",
"1  c #212E31",
"2  c #243234",
"3  c #2B3433",
"4  c #2D3935",
"5  c #253539",
"6  c #27393D",
"7  c #2A3A3C",
"8  c #333C34",
"9  c #373D38",
"0  c #423E2D",
"q  c #35413A",
"w  c #3B453C",
"e  c #46402E",
"r  c #454333",
"t  c #494533",
"y  c #44493A",
"u  c #4C4C3A",
"i  c #4E503F",
"p  c #2A3E43",
"a  c #2C4147",
"s  c #2E4349",
"d  c #3D4A41",
"f  c #364648",
"g  c #344C53",
"h  c #3B4E51",
"j  c #365057",
"k  c #39545C",
"l  c #3C5962",
"z  c #424D46",
"x  c #465247",
"c  c #4D5344",
"v  c #455349",
"b  c #4C5B4F",
"n  c #515644",
"m  c #525847",
"M  c #545B4A",
"N  c #5C5C49",
"B  c #4A5451",
"V  c #4F5E50",
"C  c #41565C",
"Z  c #545B58",
"A  c #56604E",
"S  c #59614F",
"D  c #546455",
"F  c #596554",
"G  c #586758",
"H  c #5C6B5B",
"J  c #5E705F",
"K  c #61634F",
"L  c #646E5B",
"P  c #6C725D",
"I  c #415E67",
"U  c #525F62",
"Y  c #4D6266",
"T  c #42626C",
"R  c #5B6162",
"E  c #5F7160",
"W  c #446570",
"Q  c #476A74",
"!  c #496B75",
"~  c #496E7A",
"^  c #4C717C",
"/  c #54747D",
"(  c #646969",
")  c #637463",
"_  c #6B7662",
"`  c #6A7A67",
"'  c #6E7D6A",
"]  c #727B67",
"[  c #73826E",
"{  c #798671",
"}  c #7C8973",
"|  c #818D77",
" . c #86917A",
".. c #8A947C",
"X. c #8D977F",
"o. c #4D7380",
"O. c #517987",
"+. c #587B86",
"@. c #537D8B",
"#. c #777E80",
"$. c #55808E",
"%. c #5D808B",
"&. c #568290",
"*. c #598695",
"=. c #5D8B9B",
"-. c #758184",
";. c #738F96",
":. c #6D919D",
">. c #5F90A0",
",. c #6192A3",
"<. c #6B98A6",
"1. c #669BAE",
"2. c #759CA8",
"3. c #689EB1",
"4. c #7DA0AB",
"5. c #6BA3B6",
"6. c #6DA6B9",
"7. c #6FA9BD",
"8. c #74A3B2",
"9. c #71ABBF",
"0. c #73AEC3",
"q. c #78AEC0",
"w. c #75B1C6",
"e. c #7FB4C7",
"r. c #77B4CA",
"t. c #7BB6CA",
"y. c #7AB8CE",
"u. c #7FBBD0",
"i. c #848888",
"p. c #8E9394",
"a. c #8F9595",
"s. c #86A4AE",
"d. c #99A6AA",
"f. c #9AA9AD",
"g. c #84AAB7",
"h. c #8EACB6",
"j. c #8BAFBA",
"k. c #92ABB3",
"l. c #99AEB4",
"z. c #87B1BF",
"x. c #89B1BE",
"c. c #9BB5B7",
"v. c #93B1BB",
"b. c #A6ABAB",
"n. c #A2AEB0",
"m. c #A6B3B7",
"M. c #ACB6B9",
"N. c #AEB9BC",
"B. c #B3B7B7",
"V. c #B6B9BA",
"C. c #83B3C3",
"Z. c #8AB4C3",
"A. c #8ABBCD",
"S. c #93B6C2",
"D. c #9DBAC3",
"F. c #91BCCB",
"G. c #85BED2",
"H. c #A6BCC3",
"J. c #B5BFC2",
"K. c #95C0CF",
"L. c #8DC1D4",
"P. c #95C5D6",
"I. c #99C9D9",
"U. c #ABC1C7",
"Y. c #BBC3C5",
"T. c #B7C5C9",
"R. c #B4C6CB",
"E. c #A2CDDC",
"W. c #B4CCD4",
"Q. c #B4D2DB",
"!. c #ADD3E1",
"~. c #BBDAE5",
"^. c #C5C9CB",
"/. c #C4CBCD",
"(. c #C6CFD1",
"). c #C7D2D6",
"_. c #CDD3D5",
"`. c #D2D3D3",
"'. c #D1D6D8",
"]. c #D5DADC",
"[. c #DBDDDD",
"{. c #C8DDE3",
"}. c #D7DEE0",
"|. c #C7E1EA",
" X c #CBE2EB",
".X c #DDE1E2",
"XX c #D3E3E9",
"oX c #DCECF2",
"OX c #E3E5E6",
"+X c #E5E8E9",
"@X c #EAECED",
"#X c #E2EFF3",
"$X c #EDF1F3",
"%X c #EFF7F9",
"&X c #F3F4F5",
"*X c #F5F7F8",
"=X c #F5F8F9",
"-X c #FEFEFE",
/* pixels */
"' ) ` {  . .{ ` E E E E E E J F A u t i A J J J E E E E E E E E J J J H A t t N ] ..X.X.X.X.X.X.X.X.",
"' ) _ {  . .[ ` E E E E E E J H m u t i A H J J E E E E E E E E J ) ) H A u t K P ..X.X.X.X.X.X.X.X.",
"_ H L ] { } [ ) E E E E E E E H m u t u A J E E E E E E E E E E J J J G m u t S P |  . ...X.X.X.X.X.",
"L m S L ' [ ` ) E E E E E E E H m u t i A J E E E E E E E E E E J J J H A t t i K ] | | ..X.X.X.X.X.",
"K u n S L ) ) ) E E E E J J J G S u e i A J J E E E J J E J J E J J J H A u t i S P [ {  .X.X.X.X.X.",
"K u i M F G H G G G G D G D G V i e e y c A D G D D D D G D D D D G H G A i u i S H ) [ }  .....X.X.",
"L N m m m m M M M c v d w d w w q , : 8 q w w d d d w d w w d d y c i A i i m A F J _ [ { [ }  .X.X.",
"_ F M m i u u u t w 8 - - - - % % o X % * - - - - * * % - @ # # $ q y u A A F H H J ) ) [ [ {  .X.X.",
"' E F n i e e e < : o X                                         + @ , r c A H H E E E E E ` { } X.X.",
"` E F S c u w < : & X                                 # 5 a a a q 2 & : q w h V D E E E E ) [  .X. .",
") E J F A m w > o X X                                 q I $.$.$.! s # X & - q w V E E E E ) [ } X.} ",
"E E E J J G w ; X                                 + # j *.0.0.0.=.T # X X X + q h H E E E ) [ } X.} ",
"E E E E E F d -                                 # 7 k / 1.z.t.r.6.$.l a 1   X 4 v H E E E ) [ { } { ",
"E E E E E D w - X                               5 T =.<.4.j.z.t.w.3.>.Q a     ; v H E E E E ` ' [ [ ",
"E E E E E D d -                             @ # g $.w.Z.c.c.v.C.t.y.r.*.g   X - h H E E E E ) E J J ",
"E E J F G b q #                           @ a l O.,.r.K.W.(.R.v.z.r.r.*.g   + - w D D H E E E E J J ",
"E E G V z 9 3 @                           # l ,.6.0.y.E. X@X).m.k.z.r.*.g     % 4 w v D H E E E E E ",
"E E D d 8 * @ O                 + 1 p p s g +.8.A.A.I.~.#X=X'.M.k.z.r.,.T p 2 @ @ * q v D E E E E E ",
"E E V 9 #                       1 k o.O.O.@.:.s.D.W.{.oX%X=X'.M.k.z.t.5.=.^ j 1     - d D E E E E E ",
"E H V 9 @                       s O.6.0.q.9.g.k.J.].&X=X-X=X'.N.l.x.t.r.r.5.~ 5     - d D E E E E E ",
"E E V q @                 O p g ~ =.g.z.C.Z.H.R._.+X-X-X-X=XOX(.R.D.C.C.t.7.o.6     - d D J E E E E ",
"E E V q #                 # j @.:.s.h.k.k.c.R.[.@X&X-X-X-X-X&X@X'.R.v.j.t.0.o.6     * d D L E E E E ",
"E E b 9 @               + p o.6.e.h.f.f.n.M.'.&X-X-X-X-X-X-X-X-X@X(.n.k.C.9.o.6     * d D E E E E E ",
"E E V q O             p j o.=.0.e.h.f.M.Y._.OX=X-X-X-X-X-X-X-X-X@X/.n.k.C.9.o.6     * d D E E E E E ",
"E E V q +           + g @.5.0.w.C.h.n.J.[.&X*X=X-X-X-X-X-X-X-X-X@X/.n.h.C.0.o.6     * d D E E E E E ",
"E G V q @           @ l ,.y.t.C.Z.D.J.J.^.`.OX*X-X-X-X@X[.`.OX=X@X/.n.h.C.7.o.6     - d D E E E E E ",
"E E V q @           @ k ,.y.C.j.H.R.`.B.p.i.V.@X-X-X-X`.b.i.V.+X$X/.n.h.Z.0.^ 6     * d D E E E E E ",
"E E b 6 %           + l ,.r.C.k.H.}.@Xb.( 0 p.OX-X-X*XB.( 9 i.[.@X/.n.k.C.7.o.6     - d D E E E E E ",
"E E V q @           + l >.e.C.f.J.}.$Xb.B 3 i.[.-X-X*Xb.Z 3 i.`.@X(.b.h.C.7.o.6     # d D E E E E E ",
"E H b q %           @ l ,.e.h.d.B.}.&Xb.Z 3 i.[.-X-X*XB.Z = i.`.@X(.n.k.C.0.o.6     - d F J E E E E ",
"E E V q @           + l ,.r.j.k.J.}.@Xb.( z p.OX-X-X*XB.( p i.`.+XR.l.h.e.9.o.6     - w D J E E E E ",
"E E V q %           @ l ,.r.C.j.D.J.`.B.a.i.V.@X-X-X*X`.b.i.b.^.(.U.v.z.e.9.^ 6     - d D E E E E E ",
"E E V q ; X X       + l ,.y.r.y.Z.D.M.J.(.].OX=X-X-X-X*X.X_.^.J.m.S.C.t.t.0.^ 6   X , z F J E E E E ",
"E E A z , & o X       g $.3.9.r.C.j.l.R.].$X*X-X-X-X-X*X&X+X/.m.j.C.t.0.5.,.T 5 . $ 8 c F J E E E E ",
"J E D c r , & X     X 2 j ~ =.0.t.C.Z.D.T._.+X*X-X-X-X@X[./.U.S.C.e.t.1.O.I s * $ : t b D E E E E E ",
"J E F c t < : X       X @ 6 ~ 6.r.y.e.Z.l.M._.&X-X-X-X.XY.l.v.C.t.y.r.*.k # @ $ : 0 u M H E E E E E ",
"J J S n t < : X           2 k @.,.6.e.C.Z.l.R.}.OXOX.X).H.h.C.e.0.1.*.Q p     o : 0 u M H E E E E E ",
"E J F n t < : X         - q h j Q >.r.e.C.Z.D.J.Y.Y.Y.H.S.C.e.t.5.O.k p #   . $ : e u M D ) E E E E ",
"J H S n t < : X     . + 8 V x 4 g @.0.y.t.e.Z.k.d.f.f.v.C.y.y.t.1.Q 2 @ + .   $ : 0 u M F H H E E E ",
"F A m i t < : X   $ # 3 9 c Y T ^ <.g.C.t.y.C.j.h.x.x.x.C.y.e.C.2.%.T h 7 +   o & < t c M F F H E E ",
"N i i t 0 < & + X % @ % - s ! =.2.s.h.j.e.y.y.e.t.C.C.t.t.t.C.h.s.8.>.^ f O     X : r t i c M G J E ",
"n t t 0 0 0 & $ @ 5 5 5 5 f O.C.F.l.f.h.C.e.e.e.t.C.t.t.t.C.h.f.c.S.A.<.T 5 5 5 5 > < 0 e u M F J E ",
"u 0 0 t 0 0 & . 7 C ~ ~ ~ +.s.Q.Q.H.f.k.k.h.j.j.h.x.h.j.j.h.k.f.m.R.~.D.:.~ ~ ~ T f ; : < r i M S F ",
"t 0 0 0 0 0 & . s O.5.9.9.C.Q.#X.XY.n.f.d.k.f.d.f.f.f.k.f.f.d.f.N._.$X{.F.0.7.0.>.l * $ : e u c n n ",
"t 0 0 0 0 0 & X s $.w.y.y.G.!. XXX(.J.J.J.B.d.i.#.#.#.a.n.J.J.J.T.'.XX~.P.u.r.y.1.I * o : 0 t t t u ",
"0 t 0 t 0 0 :   s $.w.y.y.G.P.E.!.{.}.OX}._.a.R z B C #.B.}.}..X}.~.!.I.G.t.y.y.1.T # @ , 0 e 0 e e ",
"e e 0 t r r 9 @ g @.9.w.0.0.w.y.I.|.=X=X=X}.p.p + + @ ( V.=X=X=XoX!.L.r.t.w.0.w.,.I % $ < e e e e e ",
"e e 0 0 0 u V B Y ^ O.O.O.$.1.w.L.!.{. X XW.#.7     + U k.|. X X~.I.t.6.=.O.O.O.~ h & & 0 0 e e e e ",
"e e e e e N ] a.;.Y s p p k @.9.G.G.I.I.I.Z./ 5     + C 2.P.P.I.P.L.y.>.W a a p a q < < 0 0 e e e e ",
"e e e e e N -.l.s.U @     1 Q 6.y.t.y.y.y.6.! 2     O j =.y.y.y.y.u.r.*.g       # 3 0 0 e 0 e e e e "
};
