/* XPM */
static char *xpm_[] = {
/* columns rows colors chars-per-pixel */
"50 50 147 2 ",
"   c #141B1B",
".  c #181F1D",
"X  c #1A201F",
"o  c #1C2423",
"O  c #222621",
"+  c #242822",
"@  c #2B2D25",
"#  c #232C29",
"$  c #26302C",
"%  c #2B342F",
"&  c #343327",
"*  c #37362A",
"=  c #3B392B",
"-  c #2E3933",
";  c #333A33",
":  c #3A3D33",
">  c #433E2D",
",  c #35413A",
"<  c #3D453C",
"1  c #46402E",
"2  c #474331",
"3  c #494634",
"4  c #4A4937",
"5  c #46493C",
"6  c #4C4C3A",
"7  c #504D3A",
"8  c #4F513F",
"9  c #53513E",
"0  c #3D4A41",
"q  c #434D42",
"w  c #514F40",
"e  c #455145",
"r  c #4E5241",
"t  c #455348",
"y  c #48574B",
"u  c #4C5B4F",
"i  c #525644",
"p  c #585643",
"a  c #525947",
"s  c #5A5946",
"d  c #575749",
"f  c #545B4A",
"g  c #5E5D4A",
"h  c #4F5E51",
"j  c #565F52",
"k  c #5C5F53",
"l  c #605F4B",
"z  c #56604E",
"x  c #5B614E",
"c  c #546354",
"v  c #596453",
"b  c #596857",
"n  c #566758",
"m  c #5C6B5A",
"M  c #5E705F",
"N  c #62624E",
"B  c #646652",
"V  c #636956",
"C  c #696B56",
"Z  c #636C5B",
"A  c #6D6F5A",
"S  c #60705F",
"D  c #6E715C",
"F  c #5F7160",
"G  c #676D63",
"H  c #637462",
"J  c #6C7361",
"K  c #677865",
"L  c #697967",
"P  c #6A7A67",
"I  c #6F7B67",
"U  c #6D756C",
"Y  c #6C7C69",
"T  c #6D7C69",
"R  c #6F7E6B",
"E  c #717660",
"W  c #727761",
"Q  c #737862",
"!  c #747863",
"~  c #747963",
"^  c #787D67",
"/  c #727C6A",
"(  c #727F6B",
")  c #707F6C",
"_  c #797F69",
"`  c #73816D",
"'  c #73826E",
"]  c #75826D",
"[  c #7B816B",
"{  c #7B826D",
"}  c #7F866F",
"|  c #768570",
" . c #778570",
".. c #7A8772",
"X. c #7D8673",
"o. c #7B8873",
"O. c #7C8973",
"+. c #7C8A74",
"@. c #7F8A74",
"#. c #828972",
"$. c #828973",
"%. c #838A74",
"&. c #808C76",
"*. c #848D75",
"=. c #838F78",
"-. c #858F79",
";. c #849079",
":. c #879078",
">. c #85907A",
",. c #86917A",
"<. c #87937B",
"1. c #88917A",
"2. c #89937C",
"3. c #89947C",
"4. c #8A947C",
"5. c #8B957E",
"6. c #8C967E",
"7. c #8C977F",
"8. c #8D977F",
"9. c #798680",
"0. c #7D8B85",
"q. c #8A9684",
"w. c #83928B",
"e. c #8F9B89",
"r. c #879691",
"t. c #8A9B94",
"y. c #93A18E",
"u. c #8EA098",
"i. c #92A59D",
"p. c #8FA4A3",
"a. c #90A5A5",
"s. c #96AAA1",
"d. c #9AAFA6",
"f. c #96AEAE",
"g. c #9DB2A9",
"h. c #9BB4B6",
"j. c #9DB6B8",
"k. c #A0B6AD",
"l. c #A1BCBE",
"z. c #A3BEC0",
"x. c #A8C5C6",
"c. c #AAC7C8",
"v. c #ACCACB",
"b. c #AFD0D7",
"n. c #B1D2D9",
"m. c #B7DAE3",
"M. c #B8DCE5",
/* pixels */
"F F P o.,.,.] P F F F F F F S b z 6 2 9 z M M M M M F F F F F F M M F b z 4 3 N E 1.6.6.8.8.8.8.8.8.",
"M F P ] ,.,. .P F F F F F F M b f 6 1 8 x m M M M M F F F F F F H M F m a 8 2 x E ,.q.6.8.8.8.8.8.8.",
"v v Z I ..o.' K F F M S F F F b z 6 3 8 x M S M M F F F F F F F M S S b f 6 2 g D @.:.1.6.8.6.6.8.8.",
"i i v Z I ' P H S M S M F F F M a 4 3 8 c M M S M F F F F F F F S M S m f 6 3 p B ` @.*.8.8.q.6.8.8.",
"4 4 r z Z K H F S M S S F S M b f 6 3 8 z M S M S S S M F M M M M M F m a 6 3 r x S ` o.<.6.6.6.8.8.",
"4 4 8 f v b b b m b b m m b m c i 4 1 8 z c b b m m b v M m b m m b m c a 8 4 i z M K ' @.<.4.4.8.8.",
"r i i i f f f f f f a z z a a i 8 3 1 4 8 a z a z a a z a z z a a f f a a a i z b M K I ' o.@.<.8.q.",
"v v z i 8 6 6 6 6 6 6 4 6 6 6 3 4 1 1 3 3 4 4 6 6 6 6 6 6 6 6 6 6 4 8 8 i z v b M M S K P ` o.=.8.8.",
"M M v a 4 3 1 1 1 1 1 1 1 1 1 1 1 1 1 1 1 1 1 1 1 1 1 1 1 1 1 1 1 1 1 4 r z m M F F F F F K  .,.8.8.",
"M M b z r 8 4 3 1 1 1 1 1 1 1 1 1 1 1 1 1 1 1 1 1 1 1 1 1 1 1 1 1 1 1 1 8 a z v m F F F F K ' +.4.8.",
"S M m b v a 8 4 1 1 1 1 1 1 1 1 1 1 1 1 1 1 1 1 1 1 1 1 1 1 1 1 1 1 1 1 4 6 r z v M F F F K ' +.8.8.",
"M M M M m b a 6 1 1 1 1 1 1 1 1 1 1 1 1 1 1 1 1 1 1 1 1 1 1 1 1 1 1 1 1 1 1 3 r c m F F F F ] +.8.8.",
"H M M b v z 9 4 1 1 1 1 3 3 6 8 6 4 6 6 6 6 6 7 6 4 6 6 4 6 6 6 4 3 3 1 1 1 1 8 z M F F F K '  .*.&.",
"M M b v f r 6 3 1 1 1 1 2 8 i f z a a z a z z 9 z z a z z 9 a z r 6 3 1 1 1 3 8 z m F F F K K P ` ' ",
"M M b a 6 4 2 1 1 1 1 1 4 i c b m m b b m b m b v b m b m m b b z 8 3 1 1 1 3 8 z m F F F F F F K K ",
"F M v i 4 1 1 1 1 1 3 3 8 z m M M M S M M S S S S S M M M S M M b i 6 4 3 4 4 8 u n n n F F F F M M ",
"M M v i 4 1 1 1 1 4 8 r u b m F M S M M F F F F F F F F F F F M m c a i i i r e e < t h n F F F F F ",
"M M v i 4 1 1 1 1 6 i v b n M F S M M S F F F F F F F F F F F F m v v v v v c t < % , y n F F F F F ",
"M M v i 4 1 1 1 4 8 z m M M F F F F S M F F F F F F F F H m F F H H H M M F m t - o $ 0 c F F F F F ",
"F M v r 4 1 4 8 r f v M M M F F F S M S F F F F F F F F M M ' ' R R R R P F m t - o $ 0 n F F F F F ",
"F M v i 3 1 8 i z v b M F F F F F F M M M M F F S M M S F ' (  .+.+.+. .R K m t - X $ 0 n M F F F F ",
"F M c i 4 3 r z M M M M M F M M M M M M M M F F M S M S F ' +.+.4.1.4.-. .T m t - X $ 0 c M F F F F ",
"F M v i 4 4 i v M S M M m n h u h h h c m M M M S M b b v V K ] #.*.4.-.+.' K t - X $ 0 c F F F F F ",
"F M v i 4 4 i v M M S M n y 0 , , , , y h M M M M M v z a x x B D { ,.2.=.+./ v , o $ 0 c F F F F F ",
"F M c a 4 4 9 v M F F M h 0 % o o o o , y m F M M m z 8 4 4 4 7 l E #.8.6.1.#.m , o $ 0 n F F F F F ",
"F M v i 4 4 i v M F F M u , o   o   o - t m F H S S z 8 1 1 1 1 p A #.8.6.6.*.Z 0 o $ 0 c F F F F F ",
"F M c i 4 4 i c M F F M u , o       o % t m H P ] D b 9 1 1 1 1 p A #.8.8.8.1.Z < o $ 0 c F F F F F ",
"F M v i 4 4 i v M F F M u , o X     o , 0 m K ] +.[ C 9 3 1 1 1 9 D #.8.8.8.-.Z < o $ 0 c F F F F F ",
"M M v i 3 4 9 v M F F M h , o       X - y M P o.1.#.A l 1 1 1 1 p A #.6.6.q.-.Z < o # 0 n m F F F F ",
"M M v a 4 3 i v M F F M u , o   X o $ < z Y ] @.1.#.A 9 1 1 1 1 p A #.6.6.q.-.Z < o $ 0 n F F F F F ",
"M M c i 3 3 i v M F M M u , + X O @ = 8 V ] *.,.6.#.D 9 1 1 1 1 p D *.8.6.q.-.Z < o $ 0 n m F F F F ",
"M M c i 4 3 i v M F F M h , o X @ & 3 g E ,.4.6.6.#.D 9 3 1 1 3 p D #.8.8.8.-.Z < o $ 0 n F F F F F ",
"M M v a 3 4 8 c M S S M c 0 , % : w d C _ 2.8.8.8.%.~ B p p p p B Q #.8.8.8.:.Z < o $ 0 b m F F F F ",
"S M v a 4 3 i v M M M M n h 0 5 f B D ^ %.4.8.8.8.1.#.~ A A A A Q #.1.8.q.6.-.Z < o $ 0 c H F F F F ",
"M M v i 4 4 i c M M S M M m n M D ^ #.1.1.8.8.8.8.8.1.#.#.#.#.#.*.4.6.6.q.6.-.Z 5 o # 0 c F F F F F ",
"M M c i 4 4 8 z m m M M M F M ' #.*.6.8.q.8.8.8.8.8.8.8.8.8.8.8.8.8.6.6.-.#./ j : + % 0 n F F F F F ",
"S M c a 4 3 6 8 z c b M F K ` ' #.1.5.6.8.8.5.q.8.8.8.8.8.8.8.8.8.8.6.*.( Z f r : @ : e n F F F F F ",
"M M z i 4 1 3 3 6 a v M ' ' @.@.*.5.q.8.8.8.5.5.8.8.8.8.8.8.8.6.8.8.6.#.G i ; ; * * 2 y n F F F F F ",
"M M z i 3 1 1 1 2 9 x M ' o.,.4.8.5.1.5.5.8.q.4.1.1.1.6.1.8.6.:.4.4.6.[ v ; . + * > 6 a v m F F H m ",
"x z i 8 3 1 1 1 3 9 b K ] @.<.<.#.[ ~ [ #.5.:.#.^ ^ #.1.6.#.#.Q _ #.1.#.j - . + & > 3 r f c m m F F ",
"7 p 7 7 3 2 > 2 3 a A [ &.1.4.:.^ C l D #.:.$.! B B ! $.1.$.D l C ^ 1.X.j ; X + & > 3 4 6 i f m m H ",
"> 2 > > > > 2 > 2 N Q :.4.4.6.&.A l 7 l ! 1.[ C 9 w C [ 1.^ l 7 s D #._ j ; . O & > 1 1 2 6 i v F Z ",
"> 2 > 3 > 2 2 > 3 x E :.q.6.6.#.A p > l ! 1._ B 7 7 B [ :.! l 4 p A $.X.k : O @ * > 2 1 > 2 r f B k ",
"2 > 2 > 2 > > 2 3 N Q :.8.6.6.#.A p 7 l ! 1._ B 7 7 B ^ :.! l 4 p A $.$.V q & & = > 1 1 1 2 6 r 9 p ",
"> 2 > 2 2 > > > 3 x Q :.8.8.8.*.A p > l ! 1.^ B 7 7 B [ -.! l > p A #.$.A w > > > > 1 1 1 2 2 3 7 7 ",
"2 > 1 1 > 2 7 w l D #.e.y.y.y.q.^ Z k J $.e.q./ B k / 4.e.$.G l C _ q.q._ G d w 7 1 1 1 1 1 1 > > > ",
"1 1 1 1 2 6 k U +.r.i.k.k.k.k.d.u.w.w.r.i.d.s.t.w.w.t.s.g.a.w.w.w.u.d.d.u.w.) G d 2 1 1 1 1 1 1 3 > ",
"1 1 > 1 > w U r.h.z.x.v.v.v.v.c.z.l.h.z.z.c.z.z.h.l.z.z.c.z.z.k.z.z.c.c.z.z.f.w.Z 4 1 1 1 1 1 1 > > ",
"1 1 1 1 1 l $.h.m.m.m.m.m.M.m.m.m.m.m.m.m.m.m.m.m.m.m.m.M.m.m.m.m.m.m.m.m.m.b.p.U 7 > > > 3 > > 3 > ",
"1 1 1 1 1 l 9.h.m.m.m.m.M.M.M.M.M.M.M.M.M.M.M.M.M.M.M.M.M.M.M.M.M.M.M.M.M.M.n.a.U 5 > > > > > 3 3 > "
};
