/* XPM */
static char *xpm_[] = {
/* columns rows colors chars-per-pixel */
"50 50 201 2 ",
"   c #151C1C",
".  c #181F1E",
"X  c #1A201F",
"o  c #20231F",
"O  c #172020",
"+  c #1B2423",
"@  c #1D292A",
"#  c #232721",
"$  c #232925",
"%  c #2A2C24",
"&  c #242E2B",
"*  c #292F2A",
"=  c #26302C",
"-  c #2C322C",
";  c #323127",
":  c #33352B",
">  c #39372A",
",  c #363A2F",
"<  c #3D3A2B",
"1  c #212F32",
"2  c #263334",
"3  c #2B3432",
"4  c #2F3A33",
"5  c #253539",
"6  c #27393D",
"7  c #2D3C3C",
"8  c #3A3D32",
"9  c #353C39",
"0  c #433E2D",
"q  c #403F30",
"w  c #36423C",
"e  c #3B443B",
"r  c #46402E",
"t  c #464332",
"y  c #494634",
"u  c #4A4937",
"i  c #43473A",
"p  c #4C4C3A",
"a  c #4E503F",
"s  c #2B3E43",
"d  c #2D4146",
"f  c #2E4449",
"g  c #334344",
"h  c #3C4342",
"j  c #3D4A42",
"k  c #33484C",
"l  c #384B4B",
"z  c #334B52",
"x  c #3B4E51",
"c  c #3D5353",
"v  c #365058",
"b  c #3B555C",
"n  c #3C5961",
"m  c #424C46",
"M  c #445147",
"N  c #4E5242",
"B  c #44534A",
"V  c #49574C",
"C  c #4A594D",
"Z  c #515644",
"A  c #525947",
"S  c #545B4A",
"D  c #5C5C49",
"F  c #475857",
"G  c #4E5E51",
"H  c #555A5A",
"J  c #56604E",
"K  c #59614F",
"L  c #546354",
"P  c #596554",
"I  c #576758",
"U  c #5C6B5A",
"Y  c #5E705F",
"T  c #636E5B",
"R  c #6C725D",
"E  c #415D63",
"W  c #415F68",
"Q  c #525F62",
"!  c #4A6267",
"~  c #43626B",
"^  c #5B6162",
"/  c #5F7160",
"(  c #476974",
")  c #4A6C76",
"_  c #4A6E79",
"`  c #4C707B",
"'  c #54747D",
"]  c #646969",
"[  c #647563",
"{  c #6A7A67",
"}  c #6E7D6A",
"|  c #727B67",
" . c #73826E",
".. c #798671",
"X. c #7C8873",
"o. c #818D77",
"O. c #86917A",
"+. c #8C967E",
"@. c #4D7380",
"#. c #517A87",
"$. c #567A85",
"%. c #537D8A",
"&. c #777E80",
"*. c #55808E",
"=. c #568290",
"-. c #598695",
";. c #5D8B9B",
":. c #5F909F",
">. c #738F96",
",. c #6D919D",
"<. c #5F90A0",
"1. c #6193A4",
"2. c #6B98A6",
"3. c #669BAE",
"4. c #759CA8",
"5. c #689EB1",
"6. c #7DA0AB",
"7. c #6BA3B6",
"8. c #6DA6B9",
"9. c #6FA9BD",
"0. c #74A3B2",
"q. c #71ABBF",
"w. c #73AEC3",
"e. c #78AEC0",
"r. c #75B1C6",
"t. c #7FB4C7",
"y. c #77B4CA",
"u. c #7BB6CA",
"i. c #7AB8CE",
"p. c #7FBBD0",
"a. c #848888",
"s. c #8E9394",
"d. c #8F9595",
"f. c #86A4AE",
"g. c #99A6AA",
"h. c #9AA9AD",
"j. c #84AAB7",
"k. c #8EACB6",
"l. c #8BAFBA",
"z. c #92ABB3",
"x. c #99AEB4",
"c. c #87B1BF",
"v. c #89B1BE",
"b. c #9BB5B7",
"n. c #93B1BB",
"m. c #9AB3BB",
"M. c #A6ABAB",
"N. c #A2AEB0",
"B. c #A6B3B7",
"V. c #ACB6B9",
"C. c #AEB9BC",
"Z. c #B3B7B7",
"A. c #B6B9BA",
"S. c #83B3C3",
"D. c #8AB4C3",
"F. c #93B6C2",
"G. c #9DBAC3",
"H. c #91BCCB",
"J. c #85BED2",
"K. c #A6BCC3",
"L. c #B5BFC2",
"P. c #95C0CF",
"I. c #8DC1D4",
"U. c #95C5D6",
"Y. c #99C9D9",
"T. c #ABC1C7",
"R. c #BBC3C5",
"E. c #B7C5C9",
"W. c #B4C6CB",
"Q. c #A2CDDC",
"!. c #B4CCD4",
"~. c #AAD2DF",
"^. c #B4D2DB",
"/. c #ADD3E1",
"(. c #BBDAE5",
"). c #C5C9CB",
"_. c #C4CBCD",
"`. c #C6CFD1",
"'. c #C7D2D6",
"]. c #CDD3D5",
"[. c #D2D3D3",
"{. c #D1D6D8",
"}. c #D5DADC",
"|. c #DBDDDD",
" X c #C8DDE3",
".X c #D7DEE0",
"XX c #C7E1EA",
"oX c #CBE2EB",
"OX c #DDE1E2",
"+X c #D3E3E9",
"@X c #DCECF2",
"#X c #E3E5E6",
"$X c #E5E8E9",
"%X c #EAECED",
"&X c #E2EFF3",
"*X c #EDF1F3",
"=X c #EFF7F9",
"-X c #F3F4F5",
";X c #F5F7F8",
":X c #F5F8F9",
">X c #FEFEFE",
/* pixels */
"/ / { ..O.O...{ Y Y Y Y Y Y Y U S p r a J Y Y Y Y [ / / / / / / Y Y Y I S p y D | O.+.+.+.+.+.+.+.+.",
"Y / { ..O.O. .{ [ Y [ Y Y [ Y U S p y a J U Y Y Y Y / / / / / / [ Y Y U S p y D | +.+.+.+.+.+.+.+.+.",
"P P T | ..X. .[ Y Y Y Y Y Y Y I D p r a J Y Y Y Y Y [ Y / / / / Y Y Y U S p y D R o.O.O.+.+.+.+.+.s.",
"Z Z K T }  .{ [ Y Y [ Y Y [ Y U S p y a J U [ Y Y Y Y Y / / / / [ Y Y I S p y a D | o.o.+.+.+.+.+.+.",
"y u a K T [ [ / Y Y Y Y Y T Y U S p t a J Y [ Y Y Y Y Y / Y Y Y T Y Y U S p y a K R  ...O.+.+.+.+.+.",
"y u a S L U I U P U U U I U U K Z u r a S P I U U U U I U U U U U I U P A a u Z K T [  .o.O.O.+.+.+.",
"Z Z S A S S S S S S S S S S S S a y r u a S S S S S S S S S S S S S S S A Z A J U Y [  . ...o.O.+.+.",
"P P S Z p p p p p p p p p p p u y r r y u u p p r e : : : : - : > e u a Z J P I U Y [ [ {  ...O.+.+.",
"Y Y P S u y r r r r r r r r r r r r r r r r r r > %             X % r r Z P U Y Y / / Y / / X.X.+.+.",
"Y Y U S Z p u y r r r r r r r r r r r r r r r r > # X @ 5 f d d w w > e u Z J I I Y / Y /  ...X.+.+.",
"/ Y U P P S a u r r r r r r r r r r r r r r r r > % X 6 W %.%.%._ l = ; r p N S L Y Y Y / /  .X.+.+.",
"/ / / T U P S u r r r r r r r r r r r r r r r r > % @ c -.w.r.r.<.W & & > r t N G Y Y Y /  . .X.+.+.",
"/ / U U P J Z u r r r r r u u p p p p p p p i < w l b ' 2.S.t.u.8.*.E l w ; e p L U Y Y /  . . .O.O.",
"[ Y U L S a p y r r r r y a A S A S S S S N e - w ( ;.2.f.k.c.u.q.7.:.) w # ; u J Y Y Y / / /  . . .",
"Y Y P A p y y r r r r r u A P I I L J G G C j 2 z *.r.D.m.B.n.S.u.u.y.-.z X % e J Y Y Y / / / / [  .",
"Y Y P Z u r 0 r r r y y a S U Y I V j e j j c ~ #.1.r.P.!.`.T.F.c.t.r.-.z X ; e C L I Y / / / / T Y ",
"[ Y P Z y r r r r y a N P P U / G w $ @ # 2 ~ ,.8.w.i.Q.+X%X'.B.z.c.y.-.z X - e M j C G / / / / / / ",
"Y Y P Z y r r r r a Z J P U L G B l d d d z $.0.S.I.Y.(.&X:X].V.z.c.y.,.~ d g w 4 - w M L / / / / / ",
"Y Y P Z u r r r y a P U U I V w l ! ` #.#.%.,.f.G./.XX@X=X:X{.V.z.c.u.8.;.@.E w @ O = e L / / / / / ",
"Y Y P Z u r y a a J L / / L e & k #.8.r.r.w.j.z.L.{.*X:X>X:X{.C.x.c.u.y.r.7.` s X O = j L / / / / / ",
"Y Y P Z y y a Z J P L L C B c v ( ,.q.v.v.v.K.E.].#X>X>X>X:X#X'.T.G.D.S.u.w.` 6 X X & j L [ / / / / ",
"Y Y P Z y u a P Y Y U C w 9 ~ =.,.6.z.z.z.b.E..X%X-X>X>X>X>X-X%X}.E.x.c.t.w.@.6 X X = j L Y / / / / ",
"Y Y P Z y y N L / / I M 5 s _ 8.t.k.g.h.N.C.{.-X>X>X>X>X>X>X>X>X%X_.N.k.S.q.@.6   X & j L / / / / / ",
"[ Y P Z y y A L L C e c E _ ;.w.t.k.h.V.R.{.#X:X>X>X>X>X>X>X>X>X%X_.N.z.S.q.@.6 X   & e L / / / / / ",
"Y Y P Z y y Z P G 9 2 b *.7.w.y.S.k.b.A.|.-X;X>X>X>X>X>X>X>X>X>X%X`.N.z.S.q.@.6 X X & j L / / / / / ",
"Y Y P Z y y Z P G 4 + n <.i.u.S.D.G.A.R.).[.#X;X>X>X>X%X|.[.#X;X%X_.N.k.S.q.@.6 X X & j L / / / / / ",
"Y Y P Z y y Z P V 4 + n <.u.S.v.G.E.[.A.s.a.A.%X>X>X>X[.M.a.A.$X%X`.N.z.S.q.` 6 X X & j L / / / / / ",
"Y Y P Z u y Z P C 3 @ n <.i.v.z.R..X*XM.^ < s.OX>X>X;XZ.] 9 a.|.%X_.N.k.S.q.@.6 X X & l L / / / / / ",
"Y [ P Z u u a P C 4 @ n ;.t.k.z.C.|.%XM.H * a.|.>X>X;XZ.H * a.[.%X`.N.k.r.9.@.6 X X & j L / / / / / ",
"Y T P Z u u Z P C 4 @ n 1.u.l.g.L..X-XM.H 3 a.|.>X>X;XM.H * a.|.*X`.N.z.t.w.@.6 O X & j L / / / / / ",
"Y Y P Z y u Z P C 4 + n 1.u.c.z.L.}.%XM.] m s.#X>X>X;XZ.] 9 a.[.#XE.x.k.t.9.@.w O X & e L / / / / / ",
"[ Y P a y u Z P C 3 @ n 1.u.S.l.G.E.].Z.d.a.A.%X>X>X;X[.M.a.M.).`.T.n.v.u.9.` 6 + X = j L / / / / / ",
"Y Y P Z u y Z P C 4 @ b 1.i.u.t.D.G.V.L.`.|.$X;X>X>X>X*X.X[.).L.B.F.S.u.u.w.@.6 X . = j L / / / / / ",
"Y Y P Z y y Z P G w 2 b *.5.9.y.S.D.z.L..X*X;X>X>X>X>X;X-X$X`.B.l.S.u.w.8.1.) s $ . = j L / / / / / ",
"Y Y P Z y u Z P I C j F n ( ;.q.u.S.D.K.L.[.#X;X>X>X>X%X.X_.K.F.S.t.u.3.#.W F m 3 . * e L / / / / / ",
"Y Y P Z y y a J I P I j 6 w ` 8.y.u.u.D.m.V.].*X>X>X>X#XR.N.F.S.u.i.y.-.b 2 m V e # - m I / / / / / ",
"Y Y P Z y y u Z S P P C w w ~ *.1.8.u.S.l.F.L..X#X#XOX'.K.k.S.u.w.3.;._ x 4 9 i 8 % 8 M I / / / Y / ",
"Y Y P Z y r y u p S L L L G C v ( 1.r.S.S.D.G.L.R.R.R.K.F.S.S.i.7.#.b F B 9 3 : > > i N I / / / Y Y ",
"Y U K N y r r r y a S I [ [ C 2 z %.w.i.u.u.D.z.h.h.h.n.S.i.u.i.2.( 2 h m 4 . # ; 0 p S I U Y Y Y [ ",
"J J A a y r r r 0 i i M C J E E _ ,.S.S.u.u.S.l.k.k.l.S.u.u.S.S.4.=.~ F j &   o % > y a S L I U Y Y ",
"a a p y 0 0 0 0 > , = - = w ~ ;.4.f.z.D.e.u.u.t.S.t.t.u.u.u.S.z.f.0.1.' z +     X ; t u p Z S U Y Y ",
"y y 0 y 0 0 0 0 8 9 5 5 5 k $.S.H.F.g.k.S.S.t.t.u.t.t.t.u.S.k.z.x.F.H.2.W 5 5 5 2 , < 0 q p Z P Y / ",
"0 0 0 0 0 0 > % 9 E ) _ _ $.j.^.^.K.h.h.k.l.l.D.l.l.l.l.l.l.x.h.B.E.(.G.,._ ( _ ~ l , ; < y N S P P ",
"0 0 y 0 0 0 % o f #.8.9.q.t.^.&X#XL.N.h.h.h.g.h.g.h.h.h.h.h.g.g.V.].*XoXH.w.w.8.;.n @ $ ; t p p Z N ",
"y 0 y 0 0 0 ; . f *.r.i.i.J.~.+X X`.L.L.L.Z.g.a.&.&.&.d.N.L.L.L.E.{.+X(.Y.i.i.i.3.~ @ # ; r y y u u ",
"0 0 y 0 0 0 ; . f *.r.i.i.i.U.Q.(. X.X#X.X`.d.^ m m E &.Z..X.XOX.X(./.Y.J.i.i.i.3.W @ # ; 0 0 0 r r ",
"r r 0 0 0 q 9 $ z %.9.w.w.r.y.i.Q. X=X;X;XOXs.s O O @ ] L.-X;X;X@X/.I.i.u.w.w.w.1.n $ # > r r r r r ",
"r 0 y 0 0 N C V ! ` #.#.#.=.3.r.J./.XXoXoX!.&.7     O Q z.oXoXoX(.Y.i.7.;.%.#.%._ v % ; 0 0 r r r r ",
"r r r r r D | s.>.^ f s s v %.w.p.J.Y.Y.Y.S.$.2       E ,.Y.Y.U.U.I.i.<.( s s s f 9 > < 0 r r r r r ",
"r r r r r D &.N.f.Q +     1 ( 8.i.i.i.i.i.8.) 2     O v ;.i.i.i.i.i.y.-.z       @ 3 0 r r r r r r r "
};
