/* XPM */
static char *a937f88c4b83465b9b596a15163e3c46hKbCggEzqFtH75Ba[] = {
/* columns rows colors chars-per-pixel */
"50 50 210 2 ",
"   c #151C1C",
".  c #1A231D",
"X  c #1D281F",
"o  c #202D1F",
"O  c #24321F",
"+  c #1A2423",
"@  c #1D2926",
"#  c #1B2628",
"$  c #1E2A2B",
"%  c #243524",
"&  c #283720",
"*  c #2A3A22",
"=  c #26352C",
"-  c #212F32",
";  c #243436",
":  c #25363A",
">  c #2A3A38",
",  c #353B3B",
"<  c #2F4223",
"1  c #2D432C",
"2  c #334623",
"3  c #354A23",
"4  c #364B28",
"5  c #334D2C",
"6  c #3E5526",
"7  c #3B5329",
"8  c #3E592D",
"9  c #2F4333",
"0  c #324B36",
"q  c #385536",
"w  c #3C643D",
"e  c #425C26",
"r  c #415C2D",
"t  c #415C32",
"y  c #46622A",
"u  c #4C6B2B",
"i  c #52732C",
"p  c #577A2C",
"a  c #597D2D",
"s  c #446334",
"d  c #4C6B34",
"f  c #44613E",
"g  c #49673A",
"h  c #4C7539",
"j  c #537733",
"k  c #2B3F42",
"l  c #2C4146",
"z  c #2F454B",
"x  c #384745",
"c  c #30474D",
"v  c #344C4D",
"b  c #3A5544",
"n  c #3A5845",
"m  c #334B51",
"M  c #3B5757",
"N  c #37525A",
"B  c #3F6643",
"V  c #396050",
"C  c #3B5760",
"Z  c #3D5B63",
"A  c #4A4F4F",
"S  c #465747",
"D  c #445C56",
"F  c #525757",
"G  c #466447",
"H  c #457345",
"J  c #4D7E44",
"K  c #4A7F4B",
"L  c #446555",
"P  c #44655A",
"I  c #527D5D",
"U  c #455E64",
"Y  c #436364",
"T  c #43626B",
"R  c #486C6B",
"E  c #596365",
"W  c #466873",
"Q  c #496B73",
"!  c #4A6E79",
"~  c #4E7476",
"^  c #4C727D",
"/  c #50777B",
"(  c #69736B",
")  c #5D832E",
"_  c #5C8331",
"`  c #59873C",
"'  c #5E913F",
"]  c #60872E",
"[  c #628A2F",
"{  c #648D30",
"}  c #638F3C",
"|  c #669233",
" . c #699431",
".. c #6E9C35",
"X. c #63943D",
"o. c #67983B",
"O. c #6A9B39",
"+. c #709E34",
"@. c #74A334",
"#. c #4F8447",
"$. c #4D8149",
"%. c #528646",
"&. c #558944",
"*. c #5A8D42",
"=. c #5E9040",
"-. c #56846A",
";. c #649570",
":. c #89937B",
">. c #4E7581",
",. c #537B85",
"<. c #5A7B85",
"1. c #547E8B",
"2. c #55818D",
"3. c #5A848F",
"4. c #578392",
"5. c #588594",
"6. c #5B8995",
"7. c #5D8C9B",
"8. c #7F8586",
"9. c #639983",
"0. c #648995",
"q. c #688C97",
"w. c #6BA182",
"e. c #5F91A1",
"r. c #6293A3",
"t. c #6396A8",
"y. c #6999A8",
"u. c #789CA9",
"i. c #6A9EB1",
"p. c #7DA1AD",
"a. c #6EA4B6",
"s. c #6EA6BA",
"d. c #6FA9BD",
"f. c #70ABBF",
"g. c #7AA9B9",
"h. c #73ADC2",
"j. c #7FAFC0",
"k. c #75B2C7",
"l. c #7AB3C7",
"z. c #77B4CA",
"x. c #7CB6CA",
"c. c #79B8CE",
"v. c #7FBBD0",
"b. c #878F91",
"n. c #8D9090",
"m. c #969A9B",
"M. c #949EA0",
"N. c #86A5AF",
"B. c #9AA7AA",
"V. c #97A8AE",
"C. c #9BA9AC",
"Z. c #81A7B4",
"A. c #8FABB4",
"S. c #8BAEBA",
"D. c #93AAB2",
"F. c #86B1BF",
"G. c #88B0BD",
"H. c #93B2BC",
"J. c #A1A4A4",
"K. c #A1ABAD",
"L. c #A3ADB0",
"P. c #A4B0B3",
"I. c #A9B4B6",
"U. c #A7B6BB",
"Y. c #ABB5B8",
"T. c #B3B9BB",
"R. c #80AFC0",
"E. c #83B3C2",
"W. c #84BBCE",
"Q. c #88BBCD",
"!. c #95B9C6",
"~. c #88BFD2",
"^. c #A8BCC2",
"/. c #B6BFC1",
"(. c #8EC3D4",
"). c #9BC9D8",
"_. c #A5C2CB",
"`. c #BEC4C6",
"'. c #A6CBD8",
"]. c #AECED9",
"[. c #B5CCD4",
"{. c #A8D1DF",
"}. c #B7D4DD",
"|. c #ADD3E1",
" X c #B7D8E3",
".X c #BEDCE6",
"XX c #C1C9CB",
"oX c #C6C8C8",
"OX c #C9CFD1",
"+X c #CED3D5",
"@X c #CAD6DA",
"#X c #D0D6D7",
"$X c #D9DDDF",
"%X c #C4DBE2",
"&X c #C2DEE8",
"*X c #CCE4EC",
"=X c #D1E6ED",
"-X c #DAE6EB",
";X c #D6E9F0",
":X c #DDEDF2",
">X c #E3E5E5",
",X c #E6E9EA",
"<X c #EBEDEE",
"1X c #E2EEF3",
"2X c #EBEFF1",
"3X c #ECF3F5",
"4X c #F4F5F6",
"5X c #F3F7F9",
"6X c #F2F8FA",
"7X c #FEFEFE",
/* pixels */
"( = q *.@.@.@.@.@.o.&...@.@.@...&...@.@.@...&.o.@.@.@.@.@.*.X.@.@.@.@.@.@.o.&...@.@.@.@.+.&.1 S :.:.",
"> q ` ..@.@.@.@.@.@.o.@.@.@.@.@.o.@.@.X.' @.o.@.@.@.@.@.@.....@.@.@.@.@.@.@.o.*.o.@.@.@.@.o.h q S :.",
"q H X.@.@.@.@.@.@.@.@.@.@.@.@.@.@.@.@.o.' X.@.@.@.@.@.@.@.@.@.@.@.@.@.@.@.@.@.X.=.o.@.@.@.@.o.h q S ",
"*.*.o.@.@.@.@.@.@.@.@.@.@.@.@.@.@.@.@.@.O.' @.@.@.@.@.@.@.@.@.@.@.@.@.@.@.@.@.@.X.o.@.@.@.@.@.o.h 1 ",
"o.@.@.@.@.@.@.@.@.@.@.@.@.@.@.@.@.@.@.@.@.@.@.@.@.@.@.@.@.@.@.@.@.@.@.@.@.@.@.@.@.@.@.@.@.@.@.@.X.$.",
"&.o.@.@.@.@.@.@.@.@.@.@.@.@.@.@.@.@.@.@.@.@.@.@.@.@.@.+.@.@.@.@.@.@.@.@.@.@.@.@.@.@.@.@.@.@.@.X.#.K ",
"..@.@.@.@.@.@.' X.@.@.@.@.@.@.@.@.@.@.@.@.@.@.@.@.@.O.*.....{ ) ) ) ) ) ) [  .@.@.@.@.@.@.@.' =.X.$.",
"@.@.@.@.@.@.' X...@.@.@.@.@.@.@.@.@.@.@.@.@.@.@.@.o.*.o.@.) 7 .           & u ..@.@.@.@.@.' X.O.+.o.",
"X...@.@.@.@.X...@.@.@.@.@.@.@.@.@.@.@.@.@.@.@.@.@.o.X.@.@.) 7 . + - ; ; ; 0 d _  ...@.@.@.X.O.o.X.' ",
"*...@.@.@.@.@.@.@.@.@.@.@.@.@.@.@.@.@.@.@.@.@.@.@.@.@.@.@.) 7 + : Z ^ ^ ^ R G r i { @.@.@.@.@.o.%.K ",
"@.@.@.@.@.@.@.@.@.@.@.@.@.@.@.@.@.@.@.@.@.@.@.@.@.@.@.@.@.) 7 @ m 4.f.f.f.7.Z = 3 a @.@.@.@.@.@.o.%.",
"@.@.@.@.@.@.@.@.@.@.@.@.@.@.@.@.@.@.@.@.@.@.@.@.@.@.+.{ ) d S N <.Z.).(.v.t.Z @ 2 p @.@.@.@.@.@.@.O.",
"@.@.@.@.@.@.@.@.@.@.@.@.@.@.@.@.@.@.@.@.@.@.@.@.@.@...i 6 q R 3.Z.[.*X{.~.t.Z @ 2 p @.@.@.@.@.@.O.&.",
"@.@.@.@.@.@.@.@.@.@.@.@.@.@.@.@.@.@.@.@.@.@.+.......{ y = c 1.h.'.;X3X.X(.y.T ; 4 p ..+.@.@.@.@...X.",
"@.@.@.@.@.@.@.@.@.@.@.@.@.@.@.@.@.@.@.@.@. .a u u u d G M ^ r.x.{.:X5X%X!.u.<.T L g u ) ..@.@.@...X.",
"..@.@.@.@.@.@.@.@.@.@.@.@.@.@.@.@.@.@.@.@.] e * O & 9 Y 6.i.f.c.{.:X4X@XU.N.u.r./ b < u { @.@.+.X.$.",
"&.o.@.@.@.@.@.@.@.@.@.@.@.@.@.@... .{ { { j q ; ; ; c <.j.(.(.(. X1X4X#XY.D.F.l.5.m X 6 [ @.@.X.%.K ",
"..@.@.@.@.@.@.@.@.@.@.@.@.@.@.+.) u e e e f P Q ! ! <.N.]..X.X&X;X3X4X#XY.D.F.l.5.m X 6 [ @.@.@.X.$.",
"@.@.@.@.@.@.@.@.@.@.@.@.@.@.@...i 2 X X X x ,.a.d.d.l.].:X6X6X6X6X7X4X#XY.D.F.l.5.m X 6 [ @.@.@.@.o.",
"X...@.@.@.@.@.@.@.@.@.@.@...[ a g b z z z T 0.R.Q.).{.*X6X7X7X7X7X7X4X#XY.D.F.l.5.m X 6 [ @.@.o.' ' ",
"$.o.@.@.@.@.@.@.@.@.@.@.@.[ u 7 G ~ 2.2.2.q.u.A._.}.;X3X6X7X7X7X7X7X4X#XY.D.F.l.5.m X 6 [ @.@.o.%.K ",
"%.o.@.@.@.@.@.@.@.@.@.+...p 7 = Y r.x.x.x.E.H.P.XX,X7X7X7X7X7X7X7X7X4X#XY.D.F.l.5.m X 6 [ @.@.@.o.%.",
"..*.X.@.@.@.@.@.@.@...) i g D Y 0.!.|.|.|.].[.XX$X2X7X7X7X7X7X7X7X7X4X#XY.D.F.l.5.m X 6 [ @.@.@.@.O.",
"@.....@.@.@.@.@.@.@. .u 2 b ~ r.!.%X:X:X:X1X,X,X4X5X7X7X7X7X7X7X7X7X4X#XY.D.F.l.5.m X 6 [ @.@.@.o.&.",
"@.@.@.@.@.@.@.@... ._ t > Z q.Q.].@X>X2X5X7X7X7X7X7X7X7X7X7X7X7X5X4X<XOXI.D.F.l.5.m X 6 [ @.@.@...X.",
"@.@.@.@.@.@.@.o._ u s L R q.H.}.^.M.m.oX4X7X7X7X7X7X7X7X7X7X7X7X<X$XOX/.L.D.F.l.5.m X 6 [ @.o.o.@.@.",
"@.@.@.@.@.@.O.` s 2 > Q y.!.%X-XK.E F m.,X7X7X7X7X7X7X7X7X7X7X7X>X`.P.K.B.D.F.l.5.m X 6 { ..*.X.@.o.",
"..@.@.@.@.+.*.' u & ; ! d.).=X2XJ.A , n.>X7X7X7X4X<X,X,X,X,X,X>X+XT.B.V.D.S.E.l.5.m X 6 _ *.X...o.$.",
"&.o.@.@.@.@... .u & ; ! d.).=X<XJ.A , n.>X7X7X7X,X#XXXXXXXXXXX`.T.P.V.D.S.E.x.z.5.m X 6 { ..@.X.%.K ",
"o.@.@.@.@.@.+. .u * : >.h.'.=X<XJ.F x m.>X7X7X4X$X/.K.K.K.K.K.C.C.V.V.S.x.x.z.h.2.v o e [ @.@...' $.",
"@.@.@.@.@. .) i f M Q u.).&X1X4XoXn.8.T.<X4X,X$XXXY.B.B.B.B.B.B.V.D.S.E.x.h.r.2.R n 6 i  .@.@.@.o.$.",
"o.@.@.@.@.) e 1 L ,.u._.=X3X6X5X>X#XoX>X5X<X#X/.Y.K.B.B.B.B.B.B.D.G.E.x.c.i.>.m b d ) { ..@.@...' $.",
"&.o.@.@.@.p 2 @ Z t.(..X2X4X4X4X4X4X4X4X4X-X`.C.B.B.B.B.V.V.V.V.S.E.c.c.c.t.Z @ 2 p @.@.@.@.@.X.%.K ",
"..@.@.@.@.p 2 @ Z t.Q.'.OX+X+X+X+X+X+X+X+XXXY.C.B.B.B.D.S.S.S.S.E.x.c.c.c.t.Z @ 2 p @.@.@.@.@.@.o.$.",
"@.@.@.@.@.p 2 @ Z t.W.!.U.Y.I.Y.Y.Y.Y.Y.Y.P.K.B.B.B.V.S.E.x.x.x.x.c.c.c.c.t.Z @ 2 p @.@.@.@.@.@.@...",
"@.@.@.@.@.) e 1 P 2.y.p.A.D.D.D.D.D.D.D.D.D.D.D.D.D.D.F.x.c.c.c.c.c.z.s.y.2.D 1 e ) @.@.@.@.@.@...*.",
"@.@.@.@.@. .a u G D Q 0.g.F.F.F.F.F.F.F.F.F.F.F.F.F.E.x.c.c.c.c.c.c.h.7.W D G u a  .@.@.@.@.@.@...*.",
"@.@.@.@.@.@.+. .u 1 k ^ a.l.l.l.l.l.l.x.x.x.x.x.x.x.x.x.c.c.c.c.z.z.s.^ k 1 u  .+.@.@.@.@.@.@.@.@.o.",
"@.@.@.@.@.@.@...a e q P ,.2.4.4.4.4.7.i.k.x.E.E.E.E.E.E.E.E.x.x.s.e.,.P q e a ..@.@.@.@.@...@.@.o.&.",
"@.@.X.' @.@.@.@. .) j f v c c c c c C 2.f.x.G.D.D.D.D.D.D.S.E.z.e.W v f j )  .+.@.@.@.@.@.*.o.@.@...",
"&.&.X...@.@.@.@.@.@.{ y O .     + # k ^ s.E.A.B.B.V.V.V.V.A.g.a.1.m = r _ ....*.o.@.@.@.@.o.*.X.@.@.",
"K K X.@.@.@.@.@.@.@. .p y 2 O + ; N ! 0.Z.S.D.B.D.A.S.S.S.p.0.^ W W Y G s i _ X.' o.@.@.@.@.o.' =.=.",
"K &.o...o.@.@.@.@.@.+. .{ u < + m 1.i.N.D.V.V.B.D.E.x.x.x.y.W l Z 2.r.R 9 3 i ..X.o.@.@.o.@.@.X.K K ",
"$.X.O.X.*.@.@.@.@.@.....@.a 3 @ Z r.W.!.U.K.m.b.u.g.c.c.c.r.C @ N 7.d.! ; % y ..@.@.@...*.o...*.K K ",
"K $.$.*...+.@.@.+.o.%.&.O.a 3 @ Z r.~.'.@XT.8.E <.i.c.c.c.r.C @ N 7.d.! ; % 8 | @.@.@...o.&.$.$.K K ",
"K K K $.%.&...' %.#.$.o.@.a 3 @ Z r.~..X1X`.( > U r.z.z.z.r.Z $ N 7.s.! ; % q J o.@.o.%.%.$.K K K K ",
"K K K K K $.&.X.*.$.$.*...j 8 1 M ^ r.!.%XP.E @ z W 5.5.5.,.T N T >.1.Y 0 5 w K o.o.&.K K K K K K K ",
"$.&.%.%.*.$.K *.&.K K $.*.J B w n v U q.!.u.U # $ k m m m Z ^ 4.^ Z v b n w H K *.&.%.*.$.K K %.&.$.",
"$.o.*.*.o.$.%.$.#.%.$.%.$.%.%.J u % ; ! s.r.N +           l ,.s.2.c + 5 H $.%.$.%.#.*.O.$.%.$.*.o.H ",
"$.o.*.*.o.%.o.&.*.o.%.o.&.X.X.%._ q s I 9.;.L 8 5 5 7 5 6 B -.w.-.H 5 d ` &.o.%.o.*.*.O.%.o.*.*.} V "
};
