/* XPM */
static char *xpm_[] = {
/* columns rows colors chars-per-pixel */
"62 64 198 2 ",
"   c #000100",
".  c #090704",
"X  c #090805",
"o  c #0C0B0A",
"O  c #060609",
"+  c #110C05",
"@  c #120E0A",
"#  c #14120D",
"$  c #1A120B",
"%  c #131212",
"&  c #1E1612",
"*  c #1B1B1B",
"=  c #171618",
"-  c #0D0E1F",
";  c #21180F",
":  c #231B02",
">  c #241B12",
",  c #291D12",
"<  c #22070C",
"1  c #342702",
"2  c #2C2116",
"3  c #372619",
"4  c #141422",
"5  c #171937",
"6  c #1E202F",
"7  c #242323",
"8  c #2B2B2B",
"9  c #2A2A25",
"0  c #382B22",
"q  c #3C342C",
"w  c #3B3B3B",
"e  c #353536",
"r  c #473118",
"t  c #46352A",
"y  c #543A27",
"u  c #4D3E33",
"i  c #79202F",
"p  c #564102",
"a  c #60490A",
"s  c #59473A",
"d  c #55422D",
"f  c #644327",
"g  c #6A4629",
"h  c #62472F",
"j  c #734D2D",
"k  c #684B36",
"l  c #6D5034",
"z  c #6D503E",
"x  c #785537",
"c  c #171C54",
"v  c #1E2357",
"b  c #2A2C4A",
"n  c #35374A",
"m  c #3A3C5C",
"M  c #262A73",
"N  c #3E4267",
"B  c #444444",
"V  c #5C5C5C",
"C  c #555555",
"Z  c #5A4E43",
"A  c #64584A",
"S  c #7A5945",
"D  c #73514B",
"F  c #776755",
"G  c #4C4F72",
"H  c #4B4E70",
"J  c #626262",
"K  c #6A6A6A",
"L  c #7A7A7A",
"P  c #636677",
"I  c #A52A3F",
"U  c #9E7809",
"Y  c #A67E09",
"T  c #8B5C36",
"R  c #835B39",
"E  c #966339",
"W  c #99663B",
"Q  c #9D693F",
"!  c #8D4140",
"~  c #BA585D",
"^  c #8B644D",
"/  c #9E6B40",
"(  c #916945",
")  c #836A56",
"_  c #A16D42",
"`  c #A57146",
"'  c #A97548",
"]  c #AD7A4D",
"[  c #A5764C",
"{  c #B07C4F",
"}  c #AD7C51",
"|  c #A7785D",
" . c #B37E51",
".. c #BD5E61",
"X. c #8D7A65",
"o. c #B07F62",
"O. c #AF7E61",
"+. c #C25F5E",
"@. c #C8980B",
"#. c #DDA80C",
"$. c #E2AC0C",
"%. c #B68153",
"&. c #B98556",
"*. c #BF8A5B",
"=. c #BB8759",
"-. c #96836C",
";. c #9D8972",
":. c #B78668",
">. c #AC957B",
",. c #B48B71",
"<. c #C08B5C",
"1. c #C58D6D",
"2. c #D79A77",
"3. c #D89B78",
"4. c #CD8E74",
"5. c #E5A47E",
"6. c #2B3297",
"7. c #2D3499",
"8. c #32399B",
"9. c #343B9C",
"0. c #282E8A",
"q. c #3A419F",
"w. c #3D43A1",
"e. c #51558F",
"r. c #5D6093",
"t. c #747590",
"y. c #444AA4",
"u. c #4B52A7",
"i. c #545AAB",
"p. c #5C62AE",
"a. c #5E63B2",
"s. c #666AA3",
"d. c #797DA8",
"f. c #6166B2",
"g. c #666CB6",
"h. c #6A6FB8",
"j. c #7A7EBD",
"k. c #7378B6",
"l. c #6E73BA",
"z. c #83698A",
"x. c #7F819F",
"c. c #7D82BC",
"v. c #7F83C1",
"b. c #838382",
"n. c #8B8C8C",
"m. c #878789",
"M. c #86889D",
"N. c #979798",
"B. c #B79F84",
"V. c #BBA286",
"C. c #8889B4",
"Z. c #A78EA1",
"A. c #A0A0A0",
"S. c #B7B8B8",
"D. c #C3AA8C",
"F. c #C8A889",
"G. c #DEB18E",
"H. c #CDB293",
"J. c #D8BA99",
"K. c #EBA983",
"L. c #E7AE8A",
"P. c #F2B18A",
"I. c #E9B893",
"U. c #F3BB94",
"Y. c #EFB38D",
"T. c #EDBBA0",
"R. c #CFADA9",
"E. c #E8C29E",
"W. c #FACAA4",
"Q. c #F5CAA4",
"!. c #F7D3AD",
"~. c #FBD7B1",
"^. c #FDDCB6",
"/. c #FADAB4",
"(. c #FFE1BA",
"). c #8A8EC5",
"_. c #8589C4",
"`. c #969ACD",
"'. c #9797C5",
"]. c #8C90C7",
"[. c #A5A8D3",
"{. c #B5B8DB",
"}. c #B0AECC",
"|. c #C8C8C9",
" X c #D4D4D4",
".X c #DBDBDB",
"XX c #CCCDD7",
"oX c #C8CAE4",
"OX c #D9DBEB",
"+X c #E2E2E2",
"@X c #ECECEC",
"#X c #E1E3EE",
"$X c #E8E9F3",
"%X c gray96",
"&X c #F3F3F9",
"*X c #FEFEFE",
"=X c #F8F8F7",
"-X c None",
/* pixels */
"-X-X-X-X-X-X-X-X-X-X-X-X-X-X-X-X-X-X-X-X-X            -X-X-X-X-X-X-X-X-X-X-X-X-X-X-X-X-X-X-X-X-X-X-X-X-X-X-X-X-X-X-X-X-X-X-X",
"-X-X-X-X-X-X-X-X-X-X-X-X-X-X-X-X-X-X                  X o   -X-X-X-X-X-X-X-X-X-X-X-X-X-X-X-X-X-X-X-X-X-X-X-X-X-X-X-X-X-X-X-X",
"-X-X-X-X-X-X-X-X-X-X-X-X-X-X-X-X                      8 e .   -X-X-X-X-X-X-X-X-X-X-X-X-X-X-X-X-X-X-X-X-X-X-X-X-X-X-X-X-X-X-X",
"-X-X-X-X-X-X-X-X-X-X-X-X-X-X                          o * e %     -X-X-X-X-X-X-X-X-X-X-X-X-X-X-X-X-X-X-X-X-X-X-X-X-X-X-X-X-X",
"-X-X-X-X-X-X-X-X-X-X-X-X                                X 8 7 =     -X-X-X-X-X-X-X-X-X-X-X-X-X-X-X-X-X-X-X-X-X-X-X-X-X-X-X-X",
"-X-X-X-X-X-X-X-X-X-X-X                                      8 w @ .   -X-X-X-X-X-X-X-X-X-X-X-X-X-X-X-X-X-X-X-X-X-X-X-X-X-X-X",
"-X-X-X-X-X-X-X-X-X                    + > , > , > , &       8 B B %   -X-X-X-X-X-X-X-X-X-X-X-X-X-X-X-X-X-X-X-X-X-X-X-X-X-X-X",
"-X-X-X-X-X-X-X                        u 3.3.2.2.3.3.1.&     8 w * O   -X-X-X-X-X-X-X-X-X-X-X-X-X-X-X-X-X-X-X-X-X-X-X-X-X-X-X",
"-X-X-X-X-X-X-X-X-X                . F D.W.Q.Q.W.Q.U.3.>     @ %     -X-X-X-X-X-X-X-X-X-X-X-X-X-X-X-X-X-X-X-X-X-X-X-X-X-X-X-X",
"-X-X-X-X-X-X-X-X-X                O V.>.>.^./.;.B.~.L.>   : Y Y :   -X-X-X-X-X-X-X-X-X-X-X-X-X-X-X-X-X-X-X-X-X-X-X-X-X-X-X-X",
"-X-X-X-X-X-X-X-X-X-X-X-X-X-X-X-X-Xs J.-.X.^./.X.;.^.!.F s y Y $.1   -X-X-X-X-X-X-X-X-X-X-X-X-X-X-X-X-X-X-X-X-X-X-X-X-X-X-X-X",
"-X-X-X-X-X-X-X-X-X-X-X-X-X-X-X-X-X-./.^.^.^.^.^.^.^.^.~.L.^ : @.1   -X-X-X-X-X-X-X-X-X-X-X-X-X-X-X-X-X-X-X-X-X-X-X-X-X-X-X-X",
"-X-X-X-X-X-X-X-X-X-X-X-X-X-X-X-X-X% V.^.^.~.~.~.^.^.!.Y.S 1 @.$.1   -X-X-X-X-X-X-X-X-X-X-X-X-X-X-X-X-X-X-X-X-X-X-X-X-X-X-X-X",
"-X-X-X-X-X-X-X-X-X-X-X-X-X-X-X-X-X-X0 ;.T.~ ~ 4.^./.U.K.s 1 $.p .                 -X-X-X-X-X-X-X-X-X-X-X-X-X-X-X-X-X-X-X-X-X",
"-X-X-X-X-X-X-X-X-X-X-X-X-X-X-X-X-X-X  9 D I I +.U.U.K.K.k + a 5 n V C b b V V V V 8         -X-X-X-X-X-X-X-X-X-X-X-X-X-X-X-X",
"-X-X-X-X-X-X-X-X-X-X-X-X-X-X-X-X-X-X-XO < i i T | :.3.K.D e 5 0.].*X&Xp.C.*X*X*X*XL 8 8 8 8 % -X-X-X-X-X-X-X-X-X-X-X-X-X-X-X",
"-X-X-X-X-X-X-X-X-X-X-X-X-X-X-X-X-X-X-X-X-XO X o . & 1.5.Z.#Xp.6.y.OX*X`.u.#X*X*X*X%X@X@X@XOXm   -X-X-X-X-X-X-X-X-X-X-X-X-X-X",
"-X-X-X-X-X-X-X-X-X-X-X-X-X-X-X-X-X-X    w S.S.S.e.M z.R.}.*X[.8.8.[.*XOXu.{.*X*X*X*X*X*X*X&Xm   -X-X-X-X-X-X-X-X-X-X-X-X-X-X",
"-X-X-X-X-X-X-X-X-X-X-X-X-X-X-X-X-X. C m.r.`.=X*X`.8.9.[.*X*XoXw.6.l.=X@Xm b J J J J n.&X*X$Xm   -X-X-X-X-X-X-X-X-X-X-X-X-X-X",
"-X-X-X-X-X-X-X-X-X-X-X-X-X-X-X-XO 4 |.*X`.q.c.XXXXy.6.f.=X*X&Xp.6.u.$X@XV o         = G G G 5   -X-X-X-X-X-X-X-X-X-X-X-X-X-X",
"-X-X-X-X-X-X-X-X-X-X-X-X-X-X-XO   c }.*X#Xs.M - m.).6.q.{.*X*X[.7.8.`.*X%XV % -X-X  . @ +       -X-X-X-X-X-X-X-X-X-X-X-X-X-X",
"-X-X-X-X-X-X-X-X-X-X-X-X-X-X  s F 7 b d.M.= O   b.oX9.7._.*X*XOXy.6.g.=X*X@XA.. -X  q F.1.0   -X-X-X-X-X-X-X-X-X-X-X-X-X-X-X",
"-X-X-X-X-X-X-X-X-X-X-X-X-X-X  A ^.D.3 - - -X-X  b.&Xi.6.u.$X*X=Xf.6.y.OX*X*XS.o -X  q Q.K.t   -X-X-X-X-X-X-X-X-X-X-X-X-X-X-X",
"-X-X-X-X-X-X-X-X-X-X-X-X-X-X-Xt -.!.G.S 0 -X-X  b.*X_.6.9.{.*X*X`.7.8.[.*X*X@XA.* Z X.E.| 0 -X-X-X-X-X-X-X-X-X-X-X-X-X-X-X-X",
"-X-X-X-X-X-X-X-X-X-X-X-X-X-X-X-X> V.!.U.^ o -X  b.*X{.8.7.].*X*XoX9.6.j.*X*X.Xm.% B.^.V.+ -X-X-X-X-X-X-X-X-X-X-X-X-X-X-X-X-X",
"-X-X-X-X-X-X-X-X-X-X-X-X-X-X-X-X-X= D.^.L.| @   L =XOXy.6.p.%X*X$Xu.6.i.$X%Xm.o % V.W.:.. -X-X-X-X-X-X-X-X-X-X-X-X-X-X-X-X-X",
"-X-X-X-X-X-X-X-X-X-X-X-X-X-X-X-X-XX D.(.~.E.>.:.s J $Xf.6.y.$X*X*Xh.7.w.oXJ A H.H.!.W.o.. -X-X-X-X-X-X-X-X-X-X-X-X-X-X-X-X-X",
"-X-X-X-X-X-X-X-X-X-X-X-X-X-X-X-X-XX Z B.^.J.X.^ 3 & t.H c v t.n.n.H c v P * & A A H.W.1.k @ -X-X-X-X-X-X-X-X-X-X-X-X-X-X-X-X",
"-X-X-X-X-X-X-X-X-X-X-X-X-X-X-X-X-X-X  F !.o.  + @ $ & ; > ; $ ; ; > , ; 2 > ; @   V.W.K.2.>   -X-X-X-X-X-X-X-X-X-X-X-X-X-X-X",
"-X-X-X-X-X-X-X-X-X-X-X-X-X-X-X-X-X-X  F W.o.. x [ [ %.] ] %.} %.%.} } ] } } ] h > D.Q.K.1.> -X-X-X-X-X-X-X-X-X-X-X-X-X-X-X-X",
"-X-X-X-X-X-X-X-X-X-X-X-X-X-X-X-X-X-X  z P.o.o j _ Q Q Q Q Q Q Q Q Q Q / Q / j # >.U.P.o.2 -X-X-X-X-X-X-X-X-X-X-X-X-X-X-X-X-X",
"-X-X-X-X-X-X-X-X-X-X-X-X-X-X-X-X-X-X  & k | + g W E W E E E E E E E E E E W g o ,.P.1.t O -X-X-X-X-X-X-X-X-X-X-X-X-X-X-X-X-X",
"-X-X-X-X-X-X-X-X-X-X-X-X-X-X-X-X-X-X  & 0 y . x { ` W ' ] ] ] ' Q / ] ] ] ` g   d S y +   -X-X-X-X-X-X-X-X-X-X-X-X-X-X-X-X-X",
"-X-X-X-X-X-X-X-X-X-X-X-X-X-X-X-X-X-X  l R @ & ( <.%.W %.<.<.<.*./ ' *.*.<.' j $ + X 3 g . -X-X-X-X-X-X-X-X-X-X-X-X-X-X-X-X-X",
"-X-X-X-X-X-X-X-X-X-X-X-X-X-X-X-X-X-X  l %.T [ =.<.%.W %.<.<.*.*./ ' *.*.*.` E R T T T j X -X-X-X-X-X-X-X-X-X-X-X-X-X-X-X-X-X",
"-X-X-X-X-X-X-X-X-X-X-X-X-X-X-X-X-X-XO l %.W %.*.<. .W %.<.<.*.=./ ' *.*.*.` E W %.` W j . -X-X-X-X-X-X-X-X-X-X-X-X-X-X-X-X-X",
"-X-X-X-X-X-X-X-X-X-X-X-X-X-X-X-X-X-X  l &.W %.*.<. .W %.<.*.*.*.Q ' *.*.*.` E W =.` E j X -X-X-X-X-X-X-X-X-X-X-X-X-X-X-X-X-X",
"-X-X-X-X-X-X-X-X-X-X-X-X-X-X-X-X-X-X  l %.W %.*.<. .W %.<.*.<.*.Q ' <.<.<.` E Q =.` W j . -X-X-X-X-X-X-X-X-X-X-X-X-X-X-X-X-X",
"-X-X-X-X-X-X-X-X-X-X-X-X-X-X-X-X-X-X  l %.W %.<.<. .W %.<.*.*.*.Q ' *.*.*.` E Q &.` W j . -X-X-X-X-X-X-X-X-X-X-X-X-X-X-X-X-X",
"-X-X-X-X-X-X-X-X-X-X-X-X-X-X-X-X-X-X. l %.W  .<.<. .W %.*.*.*.=.Q ' *.<.*._ E Q =.` W j X -X-X-X-X-X-X-X-X-X-X-X-X-X-X-X-X-X",
"-X-X-X-X-X-X-X-X-X-X-X-X-X-X-X-X-X-X. l %.W %.*.*.%.W %.*.*.*.*.Q ' <.*.*.` E Q &.` E j . -X-X-X-X-X-X-X-X-X-X-X-X-X-X-X-X-X",
"-X-X-X-X-X-X-X-X-X-X-X-X-X-X-X-X-X-X  l &.Q [ &.*. .W %.*.*.*.*./ ' *.<.*.` E W =.' E j X -X-X-X-X-X-X-X-X-X-X-X-X-X-X-X-X-X",
"-X-X-X-X-X-X-X-X-X-X-X-X-X-X-X-X-X-X  l *.%.Q %.*.%.E %.<.*.*.*.Q ' *.<.&._ E ` %.` W j X -X-X-X-X-X-X-X-X-X-X-X-X-X-X-X-X-X",
"-X-X-X-X-X-X-X-X-X-X-X-X-X-X-X-X-X-X  l *.%.E %.*. .Q %.<.*.*.*.Q ' *.*.` E _ %._ W W j X -X-X-X-X-X-X-X-X-X-X-X-X-X-X-X-X-X",
"-X-X-X-X-X-X-X-X-X-X-X-X-X-X-X-X-X-X-X0 l %.Q %.<.%.E %.*.*.*.*.Q ' <.*.Q E ` *.Q W g , -X-X-X-X-X-X-X-X-X-X-X-X-X-X-X-X-X-X",
"-X-X-X-X-X-X-X-X-X-X-X-X-X-X-X-X-X-X-X  2 ` E %.*. .Q %.<.*.*.=./ ' <.*.` E Q ' Q W y   -X-X-X-X-X-X-X-X-X-X-X-X-X-X-X-X-X-X",
"-X-X-X-X-X-X-X-X-X-X-X-X-X-X-X-X-X-X-X  , E E ` *.%.Q %.<.*.*.&.Q ' =.%.Q E E E E W y . -X-X-X-X-X-X-X-X-X-X-X-X-X-X-X-X-X-X",
"-X-X-X-X-X-X-X-X-X-X-X-X-X-X-X-X-X-X-X  , T E E ' { E { =.=.&./ W ' ] W E E E W E E r   -X-X-X-X-X-X-X-X-X-X-X-X-X-X-X-X-X-X",
"-X-X-X-X-X-X-X-X-X-X-X-X-X-X-X-X-X-X-X-X# 2 R W W W E W Q Q Q E E W W E E W E E E 3 @ -X-X-X-X-X-X-X-X-X-X-X-X-X-X-X-X-X-X-X",
"-X-X-X-X-X-X-X-X-X-X-X-X-X-X-X-X-X-X-X-X-X. 3 r g W W W W W E W W W W W W W W y 3 # -X-X-X-X-X-X-X-X-X-X-X-X-X-X-X-X-X-X-X-X",
"-X-X-X-X-X-X-X-X-X-X-X-X-X-X-X-X-X-X-X-X-X-X    2 f f f f f f f f f f f f f f ;   -X-X-X-X-X-X-X-X-X-X-X-X-X-X-X-X-X-X-X-X-X",
"-X-X-X-X-X-X-X-X-X-X-X-X-X-X-X-X-X-X-X-X-X-X-X-X# @ # # # o X     . @ @       -X-X-X-X-X-X-X-X-X-X-X-X-X-X-X-X-X-X-X-X-X-X-X",
"-X-X-X-X-X-X-X-X-X-X-X-X-X-X-X-X-X-X-X-X-X-X-X-Xx.t.d.M.x.x.-X-X9 Z >.,.u w -X-X-X-X-X-X-X-X-X-X-X-X-X-X-X-X-X-X-X-X-X-X-X-X",
"-X-X-X-X-X-X-X-X-X-X-X-X-X-X-X-X-X-X-X-X-X-X-X-Xh.a.a.p.g.g.-X-Xk.d.'.'.'.`.{.-X-X-X-X-X-X-X-X-X-X-X-X-X-X-X-X-X-X-X-X-X-X-X",
"-X-X-X-X-X-X-X-X-X-X-X-X-X-X-X-X-X-X-X-X-X-X-X-Xv.).).v.j.k.-X-X].v.z.v.l.h.v.-X-X-X-X-X-X-X-X-X-X-X-X-X-X-X-X-X-X-X-X-X-X-X",
"-X-X-X-X-X-X-X-X-X-X-X-X-X-X-X-X-X-X-X-X-X-X-X-XV +X*X*XN.e -X-X-Xg.i.v.).e.e.-X-X-X-X-X-X-X-X-X-X-X-X-X-X-X-X-X-X-X-X-X-X-X",
"-X-X-X-X-X-X-X-X-X-X-X-X-X-X-X-X-X-X-X-X-X-X-X2 t. X+X*Xb.  -X-X-X8 J .X%XC O -X-X-X-X-X-X-X-X-X-X-X-X-X-X-X-X-X-X-X-X-X-X-X",
"-X-X-X-X-X-X-X-X-X-X-X-X-X-X-X-X-X-X-X-X-X-X  x. X X|. XK   -X-XX B  X X+XC   -X-X-X-X-X-X-X-X-X-X-X-X-X-X-X-X-X-X-X-X-X-X-X",
"-X-X-X-X-X-X-X-X-X-X-X-X-X-X-X-X-X-X-X-X-X. b..X+X|.8 % X   -X  J S.+X@X%XC   -X-X-X-X-X-X-X-X-X-X-X-X-X-X-X-X-X-X-X-X-X-X-X",
"-X-X-X-X-X-X-X-X-X-X-X-X-X-X-X-X-X-X-X-X-X  8 w e q -X-X-X-Xo L |.%X+XC B =   -X-X-X-X-X-X-X-X-X-X-X-X-X-X-X-X-X-X-X-X-X-X-X",
"-X-X-X-X-X-X-X-X-X-X-X-X-X-X-X-X-X-X-X-X-X          -X-X-X-Xo K -.t.K X     -X-X-X-X-X-X-X-X-X-X-X-X-X-X-X-X-X-X-X-X-X-X-X-X",
"-X-X-X-X-X-X-X-X-X-X-X-X-X-X-X-X-X-X-X-X-X-X-X-X-X-X-X-X-X-X          -X-X-X-X-X-X-X-X-X-X-X-X-X-X-X-X-X-X-X-X-X-X-X-X-X-X-X",
"-X-X-X-X-X-X-X-X-X-X-X-X-X-X-X-X-X-X-X-X-X-X-X-X-X-X-X-X-X-X-X-X-X-X-X-X-X-X-X-X-X-X-X-X-X-X-X-X-X-X-X-X-X-X-X-X-X-X-X-X-X-X",
"-X-X-X-X-X-X-X-X-X-X-X-X-X-X-X-X-X-X-X-X-X-X-X-X-X-X-X-X-X-X-X-X-X-X-X-X-X-X-X-X-X-X-X-X-X-X-X-X-X-X-X-X-X-X-X-X-X-X-X-X-X-X"
};
