/* XPM */
static char *fd42e48e17594d06e5e697bf042d474bqZlfBO6fwPUTNuI3[] = {
/* columns rows colors chars-per-pixel */
"50 50 205 2 ",
"   c #00070E",
".  c #020A12",
"X  c #030B17",
"o  c #03101C",
"O  c #0C131A",
"+  c #0D1217",
"@  c #14191E",
"#  c #031626",
"$  c #0D1A24",
"%  c #07192A",
"&  c #141C24",
"*  c #1A1F23",
"=  c #001F39",
"-  c #1C252D",
";  c #16242E",
":  c #00233B",
">  c #072438",
",  c #1D2F3B",
"<  c #1C303B",
"1  c #20282D",
"2  c #252E33",
"3  c #32373B",
"4  c #29323B",
"5  c #062D44",
"6  c #1E3A4B",
"7  c #063C53",
"8  c #0D3346",
"9  c #273947",
"0  c #363E46",
"q  c #1A4A5F",
"w  c #26414D",
"e  c #35414B",
"r  c #264455",
"t  c #3B4B56",
"y  c #37515E",
"u  c #1A4963",
"i  c #294E65",
"p  c #304C61",
"a  c #27556E",
"s  c #345164",
"d  c #365568",
"f  c #375B73",
"g  c #235878",
"h  c #3D6A7E",
"j  c #575858",
"k  c #484F57",
"l  c #4D5A65",
"z  c #505960",
"x  c #5A646B",
"c  c #4A6C7D",
"v  c #4A6877",
"b  c #576D76",
"n  c #516C77",
"m  c #686A6D",
"M  c #72716F",
"N  c #6B6E71",
"B  c #69747A",
"V  c #757575",
"C  c #757A7D",
"Z  c #7C7C7C",
"A  c #757677",
"S  c #817E7C",
"D  c #7B807E",
"F  c #82817D",
"G  c #3C6B82",
"H  c #3D6780",
"J  c #397188",
"K  c #456C81",
"L  c #486E86",
"P  c #506F83",
"I  c #4E7284",
"U  c #477489",
"Y  c #567786",
"T  c #4A7A96",
"R  c #567C96",
"E  c #6B7F8A",
"W  c #6A7B83",
"Q  c #7C7E81",
"!  c #767C81",
"~  c #607F91",
"^  c #817F80",
"/  c #5B849D",
"(  c #528598",
")  c #4F819C",
"_  c #6B818B",
"`  c #738285",
"'  c #7D8183",
"]  c #7B878A",
"[  c #7C8A8C",
"{  c #6E8896",
"}  c #788B95",
"|  c #4E83A2",
" . c #588AA7",
".. c #5C95BB",
"X. c #5D92B3",
"o. c #628AA2",
"O. c #6393AD",
"+. c #6D93AB",
"@. c #6D98AF",
"#. c #6894A9",
"$. c #7597AC",
"%. c #7793A4",
"&. c #6B97B2",
"*. c #6599B4",
"=. c #6B9BB4",
"-. c #659ABC",
";. c #6C9DBD",
":. c #6494B4",
">. c #759CB3",
",. c #719EBA",
"<. c #6FA2BF",
"1. c #75A2BC",
"2. c #7BA5BD",
"3. c #7CA2B7",
"4. c #5E9BC4",
"5. c #649EC3",
"6. c #6A9EC2",
"7. c #729FC0",
"8. c #6CA2C5",
"9. c #6CA5CA",
"0. c #68A3CA",
"q. c #7BAAC7",
"w. c #72A6C9",
"e. c #73A9CC",
"r. c #77A7C6",
"t. c #71AFD8",
"y. c #838383",
"u. c #8A8A87",
"i. c #848689",
"p. c #84898B",
"a. c #8B8B8C",
"s. c #888789",
"d. c #8C8E92",
"f. c #848C92",
"g. c #8D9194",
"h. c #8D969C",
"j. c #949494",
"k. c #95999D",
"l. c #9B9B9B",
"z. c #949699",
"x. c #A09E9C",
"c. c #9BA09C",
"v. c #A1A19F",
"b. c #879AA5",
"n. c #929BA3",
"m. c #9A9EA3",
"M. c #9AA4A9",
"N. c #86A7BA",
"B. c #92ADBB",
"V. c #98AAB4",
"C. c #89A4AD",
"Z. c #A4A4A4",
"A. c #A5A6A9",
"S. c #A7A9AB",
"D. c #ABACAC",
"F. c #A8A9A6",
"G. c #B0AFAD",
"H. c #B1B0AE",
"J. c #ABADB1",
"K. c #A4AEB4",
"L. c #B1AFB0",
"P. c #AEB1B4",
"I. c #ABB5BC",
"U. c #B4B4B4",
"Y. c #B9B9B6",
"T. c #B5B6B9",
"R. c #B4BABD",
"E. c #BCBCBC",
"W. c #B9B7B6",
"Q. c #C0BEBC",
"!. c #BFC0BC",
"~. c #C1C1BE",
"^. c #93BBD2",
"/. c #9AAFC0",
"(. c #B4BDC3",
"). c #BCBEC1",
"_. c #B2BEC9",
"`. c #C1BFC0",
"'. c #AFC1CA",
"]. c #B5C2C6",
"[. c #BCC2C4",
"{. c #BBC4CA",
"}. c #B6C5CC",
"|. c #BBCCD3",
" X c #C3C3C3",
".X c #C4C7CA",
"XX c #C4CACD",
"oX c #C9C9C9",
"OX c #CDCDCD",
"+X c #CACACA",
"@X c #C9C8C6",
"#X c #C5CED3",
"$X c #C8D3D9",
"%X c #D1D3D5",
"&X c #D1D6DA",
"*X c #D5DADD",
"=X c #D0CCCB",
"-X c #C9D7E4",
";X c #D8DCE1",
":X c #D7E3EF",
">X c #E2E5EA",
",X c #EBF5FB",
"<X c #F5FFFF",
"1X c #F7FFFF",
"2X c #F1FFFF",
/* pixels */
" XE. XF.Z y.Z Z F. X X X Xa.y.Z Z y.E.E.oX XT.y.Z y.Z j.Q.~.E. XD.Z y.y.Z Z.oXE.E. Xa.Z y.y.Z E. X X",
" X X XF.Z y.y.A Z. XE.E.OXj.Z y.y.y.T. XU. XE.Z y.Z Z j. X~. X~.Z.Z y.y.Z Z. XE.E. Xj.Z y.Z Z U. X X",
"E. X XF.Z y.y.A F.oXE.T. Xj.V y.y.Z U.OX X XE.a.Q Q Z a. XE.~. XD.Z y.y.Z Z.oXE.E. Xj.Z y.Z y.E. X X",
" X X XF.Z Z y.Z Z. X XoX Xl.Z y.Z y.E.E. X XT.Z Z y.Q s.oX XE.+XZ.V A y.Z F.OXE. X Xj.V y.Z Z U. X X",
"T.U.U.F.j.s.a.a.D.D.T.T.F.l.a.a.a.s.U.T.T.T.T.g.a.d.a.j.U.T.D.E.F.j.s.a.a.l.U.U.T.D.j.s.a.a.j.F.U.U.",
"Z A Z l.E.E. XoXl.A Z F Z D. X X X Xy.V Z ' C XX%X.X+XT.s.Z Z A j. X X XOXZ.Z y.Z Z D.OX X XE.s.Z y.",
"y.y.Z l.oX XE.E.l.Z y.y.Z U. XE.E.W.d.s.Z S.z.f.g.d.k.i.Z Z y.Z j.OX XE. Xl.A y.y.Z D. XE. X Xs.Z Z ",
"Z y.Z j. XE.E.oXj.Z s.y.Z U. X X`.`.y.Z S.).j + + + + + m a.y.Q l.E.E. X Xl.y.Z Z y.D.E. X XE.a.Z Z ",
"Z Z Z l.OX XE. Xl.Z Z Z Z D.oXE. X Xj.m P.m.. & & - O @ @ N i.C l.oXE.E. XZ.A y.Z Z D.oXE. X Xs.Z Z ",
"y.a.s.j.U.E.E.E.j.s.y.a.d.F.E.E.W.U.a.g.m m z - I.-Xn.. & * T.U.j.D.E.E.E.Z.y.y.y.y.F.E.T.T.U.j.s.s.",
"E. X XF.y.y.y.Z F. X XE. Xj.A Z s.y.T.%Xx   4 _.1X1X1Xh.O + J.>XT.Z y.y.Z Z.oX X X Xj.A y.y.y.T. X X",
"E.E. XD.A Z Z Z F.oX XE. Xa.Z s.A Z E.XXC . t 1X1X,X1X$X- O z.&XoXA Z y.Z F.oXT.T. Xj.Z y.Z Z E. X X",
" XE. XF.Z y.y.Z F.E.E. X Xj.y.Z s.Z U.OXC   9 ,X1X<X1X{.& & g.%X).y.y.Z y.Z. X X X Xj.y.Z Z y.U. X X",
" X X XF.Z Z y.A F.oX X X Xj.Z y.^ Z E.>XB o $ W <X<X:Xe & O K.,XU.Z y.y.A l. XE.E. Xj.V y.Z y.E. X X",
"U.E.T.F.j.y.a.y.l. XE.T.E.l.Z s.a.s.A.>Xk.O ; o l B t $ o k ;X).Z.y.y.j.y.F. XE.E.E.l.y.a.s.s.F.E.E.",
"y.Z Z l.E.E. X Xl.Z Z y.Z D. XE. XE.d.] $Xy # % % o # $ $ e B } n.+X).E. Xl.A y.y.A D.oXE.E. Xj.Z Z ",
"Z y.Z j.oX X X Xl.Z Z Z Z U.E. X X[.} %.$.$.s 5 % > % # y c G R C.[.).). Xx.S y.y.Z J.oXE.!. Xs.Z Z ",
"Z Z Z l. XE.E. Xl.Z y.y.Z U. XE.E.{.{ +.>.2.>.o.i : r s I K J G b.{..X[. Xx.V F Z y.D.). X XE.a.Z Z ",
"y.Z Z l. X X X Xl.Z y.y.Z D. XR.{.}.N.3.$.#.N.+.q.R L U K q 5 G _ ].{.). XZ.Z y.y.y.U.oXE. X Xu.Z Z ",
"y.y.y.l.T.E.E.E.l.y.y.y.y.F. X.X}.B.$.+.8 Y >.1.:.w.T G G U 7 q n V.(.R.E.Z.y.S y.y.S. XT.E.E.j.y.y.",
"E.E.E.F.s.y.y.y.F.E.E.E.E.l.Z ! } v >.o.: i N.=.w.0...T G ( *.U v ` p.' y.v.~. X XQ.z.Q s.y.s.D.E.E.",
" X X XF.Z Z Z Z F.oXE.E. Xj.Z p.E c @.@.: 5 @.1.0.0.5.9. .G J U n W ] ' Z c.~.Y.E. Xg.Z y.Z Z Y. X X",
" X X XF.Z y.y.Z Z. XE.E. Xa.Z ] E I >.@.G : U <...t.4.8.q.=.J U n W [ ` D v.@X!. X[.j.y.Q Z y.U. X X",
" X X XF.Z Z Z Z F. X X X Xj.y.Q E P o.;.O.q 7 -.9...e.-.;.=.<.T v ` ] C ' v.~.~.E. Xj.Z y.y.S U. X X",
"E. X XF.y.s.Z y.Z. X XE. Xj.Z p.f.Y U q.X.| g -.9...w.;.,.=.8.*.{ ` [ ] D c.!.E.E. Xj.Z y.y.y.U. XE.",
"y.y.s.l.T.E.T.E.Z.Z y.s.y.F. XU.).b.R :.w.9.X.e.5.6.7.&.2.1.5.;.N.'.].R.E.F.u.y.y.y.S.oXT.E.T.j.y.y.",
"Z Z Z l. X XE.oXj.A Z y.Z D.oXE.oX{.P T w.8.8.-.6.;.r.+.K &.5.-.B.|.].R.[.l.V F y.y.J.+X). XE.s.Z Z ",
"y.y.Z j. XE.E. Xl.y.y.Z Z U.E.oXQ.(.Y H  .8.-.8.8.:.q./ : &.9.-.B.].{..X Xv.Z F A y.F.E.oX XE.a.Z Z ",
"Z y.Z j.oX X X Xl.A Z y.Z U. XT. X{._ I U ) r.9.6.6.7.T = / e.*.B.(.{.[.E.l.Z F y.Z D. X). X Xu.Z y.",
"y.Z y.l.E.E.E. Xl.Z y.y.y.D. X[.T.].%.c K G O.*.8.0.8. .5 a q.O.B.{.{.). Xx.Z F y.Z S. XE.E.E.j.Z y.",
"E.T.T.F.s.y.y.y.F.T.E.T.U.j.y.y.g.[ |.b r I h *.5.4.9.-.u a r.@.} f.i.' a.Z.U.E.E.T.l.a.a.a.j.F.E.E.",
" X XoXF.A y.y.A F. X X X Xj.Z y.D C $XC.. w I h | ..5.-.T =.*.2.b.! Q Q A Z.=XE. X Xj.C Z Z y.Y. X X",
"E.E. XF.Z y.y.A F. XE.E.oXj.Z y.D C ].|.} w y 6 d f / &.,.;.;.1.V.Z Q S Z Z. X X XE.j.y.y.Z y.T. XE.",
"E.E. XF.Z y.y.y.l. X XE.oXj.A s.y.Z ).R.l e 9 # X s c R ,.,.-.^.I.A y.y.Z F.oXT.E. Xj.Z s.y.Z E. X X",
" X XE.F.y.y.Z Z F. X XE.E.j.Z Z y.A  XI.. ; < ; r s p v R 1.:.^.V.Z Z Z Z Z.oX XE. Xj.A Z y.y.T. XE.",
"s.s.s.l.U.E.U.E.l.s.a.a.j.F.E.U.H.T.g.! - $   E -X/.d v f / 2.+.n.T.E.T.E.Z.y.y.s.a.F.E.U.U.D.j.a.a.",
"Z Z Z j. XoX X XZ.Z Z Z A F.oXE. XOXs.N - - t _.-X'._ 9 6 I #.{ h.oX XE.OXZ.A s.y.A D.OXE. XoXa.Z Z ",
"y.y.Z l. XE.E. Xj.Z y.y.y.T. X X XU.s.' 0 0 n.M.|.#Xb.< o 6 ~ { k. XE.E. Xl.A Z y.Z F. XE. XE.y.Z y.",
"y.y.Z z. XE.E. Xl.Z y.Z Z D.E. XW.oXa.Q m.1 B {.{.I.#X} , { b _ M. XE.E. XZ.y.y.y.y.F. X X X Xa.Z y.",
"y.Z Z l. X X X Xl.M y.y.A T. XE.@XE.s.A R.e M.&X(.[.&XR.2 }.x b k. X X~.oXl.Z Z Z Z D. X X XE.s.Z Z ",
"T.U.U.F.y.j.a.s.F.T.U.U.T.l.s.j.j.y.T.S.&X3 p.m.i.a.k.m.1 XXK.I.A.s.a.a.a.F.U.U.T.U.l.s.a.s.a.F.T.T.",
" X X XF.Z y.Z Z Z. X X X Xl.Z Z M y.E. X*X3 Q d.Z y.Z j 2 *X{.XXS.A Z y.V Z.%X X X Xj.V y.Z Z E. X X",
" XE. XF.Z y.Z Z F.oXE.E.E.j.Z y.y.y.T. X;Xk.Q s.Z y.a.j y.>X[.{.A.y.y.y.y.Z. XT. X Xj.Z Z Z y.T. XE.",
"E.E.oXZ.Z y.y.F l. XE. X Xj.Z y.y.Z E.E.OX).V j.Z ^ a.j l.*XP..XZ.y.Z Z Z Z. XoX XE.j.y.Z Z y.D. X X",
" X XOXF.y.Z A Z D.oX X XE.j.Z A V y.E. X%XJ.N d.A S S j a.%XR.&XZ.y.Z y.Z l.oX X X Xj.V Z y.s.E. X X",
"j.a.j.j.F.U.U.U.l.j.a.d.j.Z.U.T.T.D.j.a.k..Xs.T.U.D.W.z.L.D.d.a.Z.F.F.D.D.l.j.a.s.j.F.U.T.D.Z.j.a.a.",
"y.Z A j. XoX X Xl.Z Z Z Z F. X XE.E.a.Z ! XXs.E.oXE.+XG.E.p.' A l.oX XE.OXZ.A y.Z A U.oX X XoXa.Z Z ",
"Z y.Z l.oXT.E. Xl.A y.y.Z U.oXE.~. Xp.Z a.a.s. XE.oXQ.D.a.y.' Q j. XE.E. Xl.Z y.y.Z D.E. XE. Xs.Z y.",
"y.y.Z j. X XE. Xl.Z y.Z Z D. XE.E. Xs.D y.y.s.E. XE. XD.y.y.' Z l. X XE. Xl.Z y.y.Z D. XE. X Xs.Z y.",
"y.y.Z j. X XE. Xl.Z y.Z Z D. XE.E. Xs.Z y.y.y.E. XE. XD.y.y.y.Z l. X XE. Xl.Z y.y.Z D. XE. X Xs.Z y."
};
