/* XPM */
static char *xpm_[] = {
/* columns rows colors chars-per-pixel */
"64 66 210 2 ",
"   c #000100",
".  c #0C0906",
"X  c #05050C",
"o  c #0C0B0A",
"O  c #090705",
"+  c #100C07",
"@  c #120E0A",
"#  c #13100B",
"$  c #1A130C",
"%  c #181201",
"&  c #040614",
"*  c #141414",
"=  c #1C1C1C",
"-  c #1D1612",
";  c #24190B",
":  c #310A10",
">  c #2A1D11",
",  c #251D15",
"<  c #22070B",
"1  c #3A2C02",
"2  c #2E2114",
"3  c #2B231C",
"4  c #322415",
"5  c #3B2619",
"6  c #2D2200",
"7  c #0F1228",
"8  c #11142C",
"9  c #0E102A",
"0  c #242424",
"q  c #2C2D2C",
"w  c #2A2726",
"e  c #3D2C22",
"r  c #332E2E",
"t  c #3B332A",
"y  c #2E2B34",
"u  c #323333",
"i  c #3A3B3A",
"p  c #483318",
"a  c #5E1C26",
"s  c #48362A",
"d  c #553A21",
"f  c #523B2E",
"g  c #433B30",
"h  c #403E3C",
"j  c #432F25",
"k  c #695005",
"l  c #48423A",
"z  c #58483A",
"x  c #5D4424",
"c  c #624226",
"v  c #684B38",
"b  c #7B5435",
"n  c #744D2D",
"m  c #121641",
"M  c #181D44",
"N  c #383941",
"B  c #2B2F54",
"V  c #2F326A",
"C  c #3E4157",
"Z  c #3E427D",
"A  c #424343",
"S  c #4B4B4C",
"D  c #5D5143",
"F  c #515259",
"G  c #6A5B4B",
"H  c #785743",
"J  c #746553",
"K  c #52556A",
"L  c #686969",
"P  c #747473",
"I  c #797A7A",
"U  c #6B6872",
"Y  c #A42B3F",
"T  c #A27B08",
"R  c #835732",
"E  c #855833",
"W  c #8B5D36",
"Q  c #805D3D",
"!  c #966339",
"~  c #99663C",
"^  c #9C693E",
"/  c #8B6907",
"(  c #A52D40",
")  c #825D47",
"_  c #8C664B",
"`  c #9F6C41",
"'  c #956943",
"]  c #9C7259",
"[  c #956B53",
"{  c #A26E42",
"}  c #A57145",
"|  c #A4764E",
" . c #AA764A",
".. c #AD794C",
"X. c #A87954",
"o. c #B27E51",
"O. c #B07B4E",
"+. c #897762",
"@. c #8F7A6C",
"#. c #B26462",
"$. c #C97164",
"%. c #AF850B",
"&. c #D6A20C",
"*. c #EEB50D",
"=. c #E1AB0C",
"-. c #C8980B",
";. c #B38053",
":. c #B98456",
">. c #BC8758",
",. c #BF8A5B",
"<. c #97846D",
"1. c #81817F",
"2. c #BA8667",
"3. c #A48C72",
"4. c #AC9278",
"5. c #C08B5C",
"6. c #D09478",
"7. c #DFA17C",
"8. c #E1A17C",
"9. c #2C3396",
"0. c #2D3498",
"q. c #333A9B",
"w. c #333A9C",
"e. c #373EA0",
"r. c #3B429F",
"t. c #3E45A1",
"y. c #565796",
"u. c #5E629C",
"i. c #6E7198",
"p. c #464CA4",
"a. c #4D53A7",
"s. c #5359AB",
"d. c #5B61AB",
"f. c #5D63B1",
"g. c #666BB5",
"h. c #6F74B8",
"j. c #757ABC",
"k. c #767AB8",
"l. c #7275A6",
"z. c #797EC0",
"x. c #907A85",
"c. c #7D82BD",
"v. c #7E82C1",
"b. c #8B8B8C",
"n. c #979797",
"m. c #999897",
"M. c #B29A80",
"N. c #BBA387",
"B. c #898CB6",
"V. c #A193B4",
"C. c #9FA1A8",
"Z. c #ACACAC",
"A. c #A5A5A3",
"S. c #B2B2B1",
"D. c #B3B3B8",
"F. c #A3A4B5",
"G. c #D99987",
"H. c #C3AA8C",
"J. c #C8A586",
"K. c #D8BB9B",
"L. c #D7AD8B",
"P. c #E6A781",
"I. c #E8A680",
"U. c #EAAA84",
"Y. c #EDAF89",
"T. c #EAB38D",
"R. c #F3B58E",
"E. c #F5BF99",
"W. c #F5BC95",
"Q. c #EFB392",
"!. c #DBB7A8",
"~. c #EEBFA2",
"^. c #F3C29C",
"/. c #F9C39C",
"(. c #DFC2A1",
"). c #E5C6A4",
"_. c #EBCCA9",
"`. c #F4C8A2",
"'. c #FBD3AD",
"]. c #F3D3AF",
"[. c #FCDBB5",
"{. c #FFDFB8",
"}. c #F8D5B0",
"|. c #FFE0BA",
" X c #8589C3",
".X c #969ACD",
"XX c #8C90C6",
"oX c #A5A7C3",
"OX c #AAACD5",
"+X c #B6B9DC",
"@X c #BCBEDE",
"#X c #B2B4D9",
"$X c #CDCDCD",
"%X c #C6C6C4",
"&X c #D2D3D3",
"*X c #DADADA",
"=X c #CCC8D6",
"-X c #C7C9E3",
";X c #CFD1E8",
":X c #D9DAEC",
">X c #DFE0EF",
",X c #E4E4E4",
"<X c #EAEAEB",
"1X c #EAEBF5",
"2X c #E4E5F3",
"3X c #F4F5FB",
"4X c #FEFEFE",
"5X c #F4F4F3",
"6X c #EFF0F8",
"7X c None",
/* pixels */
"7X7X7X7X7X7X7X7X7X7X7X7X7X7X7X7X7X7X7X7X7X7X7X7X7X7X7X7X7X7X7X7X7X7X7X7X              7X7X7X7X7X7X7X7X7X7X7X7X7X7X7X7X7X7X7X7X7X",
"7X7X7X7X7X7X7X7X7X7X7X7X7X7X7X7X7X7X7X7X7X7X7X7X7X7X7X7X7X7X7X7X7X  O o                   7X7X7X7X7X7X7X7X7X7X7X7X7X7X7X7X7X7X7X",
"7X7X7X7X7X7X7X7X7X7X7X7X7X7X7X7X7X7X7X7X7X7X7X7X7X7X7X7X7X7X7X7X    u q                       7X7X7X7X7X7X7X7X7X7X7X7X7X7X7X7X7X",
"7X7X7X7X7X7X7X7X7X7X7X7X7X7X7X7X7X7X7X7X7X7X7X7X7X7X7X7X7X7X7X  o u 0 *                           7X7X7X7X7X7X7X7X7X7X7X7X7X7X7X",
"7X7X7X7X7X7X7X7X7X7X7X7X7X7X7X7X7X7X7X7X7X7X7X7X7X7X7X7X7X    * 0 u @                                   7X7X7X7X7X7X7X7X7X7X7X7X",
"7X7X7X7X7X7X7X7X7X7X7X7X7X7X7X7X7X7X7X7X7X7X7X7X7X7X7X7X    o i q                                         7X7X7X7X7X7X7X7X7X7X7X",
"7X7X7X7X7X7X7X7X7X7X7X7X7X7X7X7X7X7X7X7X7X7X7X7X7X7X7X7X  * i A q       O + . . + . . O                       7X7X7X7X7X7X7X7X7X",
"7X7X7X7X7X7X7X7X7X7X7X7X7X7X7X7X7X7X7X7X7X7X7X7X7X7X7X7X  o q A q     . [ 2.2.2.2.2.2.)                           7X7X7X7X7X7X7X",
"7X7X7X7X7X7X7X7X7X7X7X7X7X7X7X7X7X7X7X7X7X7X7X7X7X7X7X7X7X    = *     * 6.T.^./.^.W./.6.G #                       7X7X7X7X7X7X7X",
"7X7X7X7X7X7X7X7X7X7X7X7X7X7X7X7X7X7X7X7X7X7X7X7X7X7X7X7X7X  % k k %   @ 6.`.).N.].{._.H._.g                   7X7X7X7X7X7X7X7X7X",
"7X7X7X7X7X7X7X7X7X7X7X7X7X7X7X7X7X7X7X7X7X7X7X7X7X7X7X7X7X  1 *.&.p - t K.|.4.g ).|.M.i K.D . 7X7X7X7X7X7X7X7X7X7X7X7X7X7X7X7X7X",
"7X7X7X7X7X7X7X7X7X7X7X7X7X7X7X7X7X7X7X7X7X7X7X7X7X7X7X7X7X  1 -.; _ G.).[.[.]._.}.|.].).[.(.l 7X7X7X7X7X7X7X7X7X7X7X7X7X7X7X7X7X",
"7X7X7X7X7X7X7X7X7X7X7X7X7X7X7X7X7X7X7X7X7X7X7X7X7X7X7X7X7X  1 =./ x ] ^.'.|.[.|.|.|.[.[.[.J # 7X7X7X7X7X7X7X7X7X7X7X7X7X7X7X7X7X",
"7X7X7X7X7X7X7X7X7X7X7X7X7X7X7X7X7X7X7X7X7X7X7X7X7X7X7X7X7X  ; T *.6 f 8.^.[.[.~.G.G.~._.<.3 7X7X7X7X7X7X7X7X7X7X7X7X7X7X7X7X7X7X",
"7X7X7X7X7X7X7X7X7X7X7X7X7X7X7X7X7X7X7X7X7X* * # * # X X * # X @ %.6 f U.U.^.'.6.Y Y #.<.o 7X7X7X7X7X7X7X7X7X7X7X7X7X7X7X7X7X7X7X",
"7X7X7X7X7X7X7X7X7X7X7X7X7X7X7X7X          b.&X$X$X$Xy.y.$X&Xl.V # O f 8.8.U.8.$.Y Y a O 7X7X7X7X7X7X7X7X7X7X7X7X7X7X7X7X7X7X7X7X",
"7X7X7X7X7X7X7X7X7X7X7X7X7X7X7XX U n.m.m.n.*X4X4X4X2Xs..X4X1Xf.9.Z A.x.8.8.v s 5 : : < 7X7X7X7X7X7X7X7X7X7X7X7X7X7X7X7X7X7X7X7X7X",
"7X7X7X7X7X7X7X7X7X7X7X7X7X7X  X oX4X4X4X4X4X4X4X4X+Xt.;X4X@Xq.0.j.4XV.G.6.y 7 N A A u 7X7X7X7X7X7X7X7X7X7X7X7X7X7X7X7X7X7X7X7X7X",
"7X7X7X7X7X7X7X7X7X7X7X7X7X7X  & .X4X4X5X*X*X*X*X&Xu.u.3X4Xj.0.w.+X4X:X=Xs.9.s.<X4X<Xi.w @ 7X7X7X7X7X7X7X7X7X7X7X7X7X7X7X7X7X7X7X",
"7X7X7X7X7X7X7X7X7X7X7X7X7X7X  & B.-X-XF.0 * = * = X S 3X2Xs.0.p.>X4X4X.Xq.9..X4X1Xc.p.-X%Xi   7X7X7X7X7X7X7X7X7X7X7X7X7X7X7X7X7X",
"7X7X7X7X7X7X7X7X7X7X7X7X7X7X    7 8 7 7     7X7X  A Z.4X@Xr.0.j.3X4X1Xf.9.p.oXb.d.t..X3X4XK 9   7X7X7X7X7X7X7X7X7X7X7X7X7X7X7X7X",
"7X7X7X7X7X7X7X7X7X7X7X7X7X7X7X    4 s t   7X7X7XS Z.4X4Xh.0.q.@X4X4X+Xw.9.v.S.X 8 V D.6X#XB X 3 O 7X7X7X7X7X7X7X7X7X7X7X7X7X7X7X",
"7X7X7X7X7X7X7X7X7X7X7X7X7X7X7X7XO ] W.J.o 7X7X= *X4X4X>Xp.0.a.1X4X3Xj.9.e.-XS.      N u.8 u +.N.@ 7X7X7X7X7X7X7X7X7X7X7X7X7X7X7X",
"7X7X7X7X7X7X7X7X7X7X7X7X7X7X7X7X  | E.H.o 7X7Xi ,X4X4X@Xq.0.j.4X4X2Xa.9.a.1XS.O 7X7X7XX e 3.|.L.@ 7X7X7X7X7X7X7X7X7X7X7X7X7X7X7X",
"7X7X7X7X7X7X7X7X7X7X7X7X7X7X7X7X7Xf ] _.3.D N :X4X4X4X X0.0.OX4X4X@Xq.9.j.4XS.O 7X7X3 [ L.{.4.i 7X7X7X7X7X7X7X7X7X7X7X7X7X7X7X7X",
"7X7X7X7X7X7X7X7X7X7X7X7X7X7X7X7X7X  t `.[.J * P *X4X1Xd.0.t.:X4X4X X0.0.OX4XS.    - v T.'.N.z   7X7X7X7X7X7X7X7X7X7X7X7X7X7X7X7X",
"7X7X7X7X7X7X7X7X7X7X7X7X7X7X7X7X7X  t P.}.+., 3 A.<X:Xt.0.d.6X4X3Xf.9.e.;X<Xn.$ @ _ T.{.].g   7X7X7X7X7X7X7X7X7X7X7X7X7X7X7X7X7X",
"7X7X7X7X7X7X7X7X7X7X7X7X7X7X7X7X7X  e P.}._.(.K.t I +Xw.0.v.4X4X2Xp.0.s.1XL t 2.J.).'.[.].g   7X7X7X7X7X7X7X7X7X7X7X7X7X7X7X7X7X",
"7X7X7X7X7X7X7X7X7X7X7X7X7X7X7X7X  s X.P.}.<.t t   q S m m C L P K M m B L 0 + v G 4.'.K.D *   7X7X7X7X7X7X7X7X7X7X7X7X7X7X7X7X7X",
"7X7X7X7X7X7X7X7X7X7X7X7X7X7X7X7X  H U.U.[.G   > 2 2 2 2 3 3 2 2 2 2 4 4 2 , ; @   v /.H..   O 7X7X7X7X7X7X7X7X7X7X7X7X7X7X7X7X7X",
"7X7X7X7X7X7X7X7X7X7X7X7X7X7X7X7X  v 7.U.'.+., ) o.;.;.;.;.;.;.;.;.;.o.o.o.X.X.' + H ^.N.o     7X7X7X7X7X7X7X7X7X7X7X7X7X7X7X7X7X",
"7X7X7X7X7X7X7X7X7X7X7X7X7X7X7X7X7X$ f 7.Y.`.J $ W ^ ^ ^ ^ ^ ^ ^ ^ ^ ^ ^ ` ` ` W + b U.2..     7X7X7X7X7X7X7X7X7X7X7X7X7X7X7X7X7X",
"7X7X7X7X7X7X7X7X7X7X7X7X7X7X7X7X7X  @ H 8.R.H . E ! ! ! ! ! ! ! ! ! ! ! ! ! ! E + H [ 5 d $   7X7X7X7X7X7X7X7X7X7X7X7X7X7X7X7X7X",
"7X7X7X7X7X7X7X7X7X7X7X7X7X7X7X7X7X    @ v H j @ ` O.} !  .X.......^ { ......} E + 5 j 5 W 2   7X7X7X7X7X7X7X7X7X7X7X7X7X7X7X7X7X",
"7X7X7X7X7X7X7X7X7X7X7X7X7X7X7X7X7X7X    @ @ . > X.5...^ >.5.5.5.,.{ } 5.5.5. .E ; O p ! ! >   7X7X7X7X7X7X7X7X7X7X7X7X7X7X7X7X7X",
"7X7X7X7X7X7X7X7X7X7X7X7X7X7X7X7X7X7X7X@ ' ' E | ,.5...~ :.5.,.5.>.{ } >.5.5. .! E E E ! ! ;   7X7X7X7X7X7X7X7X7X7X7X7X7X7X7X7X7X",
"7X7X7X7X7X7X7X7X7X7X7X7X7X7X7X7X7X7X7X# |  .^ ,.5.5...~ :.,.5.,.>.` } 5.5.5. .! ~ .. .! W 2   7X7X7X7X7X7X7X7X7X7X7X7X7X7X7X7X7X",
"7X7X7X7X7X7X7X7X7X7X7X7X7X7X7X7X7X7X7X# |  .^ ,.5.5...~ :.,.,.,.>.` } >.5.5. .! ! ;.;.! ! 2   7X7X7X7X7X7X7X7X7X7X7X7X7X7X7X7X7X",
"7X7X7X7X7X7X7X7X7X7X7X7X7X7X7X7X7X7X7X# |  .^ >.5.5...~ :.,.,.,.5.{ } 5.5.5. .! ! ;.;.! ! >   7X7X7X7X7X7X7X7X7X7X7X7X7X7X7X7X7X",
"7X7X7X7X7X7X7X7X7X7X7X7X7X7X7X7X7X7X7X# |  .^ ,.,.5...~ :.5.,.5.>.^ } 5.5.5. .! ! ;.o.! W >   7X7X7X7X7X7X7X7X7X7X7X7X7X7X7X7X7X",
"7X7X7X7X7X7X7X7X7X7X7X7X7X7X7X7X7X7X7X# | } ^ ,.,.5...~ :.5.,.,.>.^ } 5.,.5. .! ! ;.o.! ! >   7X7X7X7X7X7X7X7X7X7X7X7X7X7X7X7X7X",
"7X7X7X7X7X7X7X7X7X7X7X7X7X7X7X7X7X7X7X# |  .^ >.,.5...~ :.,.,.5.5.{ } ,.,.5...! ! ;.o.! W >   7X7X7X7X7X7X7X7X7X7X7X7X7X7X7X7X7X",
"7X7X7X7X7X7X7X7X7X7X7X7X7X7X7X7X7X7X7X# | ..^ ;.,.5...~ :.,.5.,.,.{ } 5.,.5...! ! ;.o.! ! >   7X7X7X7X7X7X7X7X7X7X7X7X7X7X7X7X7X",
"7X7X7X7X7X7X7X7X7X7X7X7X7X7X7X7X7X7X7X# | >. .^ :.5...~ :.,.,.,.>.^ } ,.5.,. .! ~ o.o.! ! 2   7X7X7X7X7X7X7X7X7X7X7X7X7X7X7X7X7X",
"7X7X7X7X7X7X7X7X7X7X7X7X7X7X7X7X7X7X7X# | 5.;.~ ;.5...^ :.,.,.,.,.^ } 5.,...^ ~ O...{ ! ! >   7X7X7X7X7X7X7X7X7X7X7X7X7X7X7X7X7X",
"7X7X7X7X7X7X7X7X7X7X7X7X7X7X7X7X7X7X7X# b X.o.~ :.5...~ :.,.5.,.,.` } ,.,.} ! ^ >.} ! W c ; 7X7X7X7X7X7X7X7X7X7X7X7X7X7X7X7X7X7X",
"7X7X7X7X7X7X7X7X7X7X7X7X7X7X7X7X7X7X7X7XO n ..! :.,...~ :.,.,.5.,.` } ,.,.} ! ^ :.} ~ R + 7X7X7X7X7X7X7X7X7X7X7X7X7X7X7X7X7X7X7X",
"7X7X7X7X7X7X7X7X7X7X7X7X7X7X7X7X7X7X7X7X  d ^ ~ :.5...~ :.5.,.5.>.` } ,.,.} ! ! ~ ! ! E + 7X7X7X7X7X7X7X7X7X7X7X7X7X7X7X7X7X7X7X",
"7X7X7X7X7X7X7X7X7X7X7X7X7X7X7X7X7X7X7X7X  d ~ ~ } :...^ :.5.5.,. .~ } >.} ^ ! ! ! ! ! b @ 7X7X7X7X7X7X7X7X7X7X7X7X7X7X7X7X7X7X7X",
"7X7X7X7X7X7X7X7X7X7X7X7X7X7X7X7X7X7X7X7XO 5 n ! ! } } ~  . . . .~ ! ^ } ! ! ^ ! ~ ~ b d . 7X7X7X7X7X7X7X7X7X7X7X7X7X7X7X7X7X7X7X",
"7X7X7X7X7X7X7X7X7X7X7X7X7X7X7X7X7X7X7X7X7X  ; b E W ! ! ! ! ! ! ! ~ ! ! ~ ! ! ! W b p   7X7X7X7X7X7X7X7X7X7X7X7X7X7X7X7X7X7X7X7X",
"7X7X7X7X7X7X7X7X7X7X7X7X7X7X7X7X7X7X7X7X7X7X. @ # x ! ! ! ! ! ! ! ! ! ! ! ! ! ! d . . 7X7X7X7X7X7X7X7X7X7X7X7X7X7X7X7X7X7X7X7X7X",
"7X7X7X7X7X7X7X7X7X7X7X7X7X7X7X7X7X7X7X7X7X7X7X7X7X; > > > 2 4 > 2 > > 2 > > > 2 ; 7X7X7X7X7X7X7X7X7X7X7X7X7X7X7X7X7X7X7X7X7X7X7X",
"7X7X7X7X7X7X7X7X7X7X7X7X7X7X7X7X7X7X7X7X7X7X7X7X7X  . r e .     * u u l h u q . 7X7X7X7X7X7X7X7X7X7X7X7X7X7X7X7X7X7X7X7X7X7X7X7X",
"7X7X7X7X7X7X7X7X7X7X7X7X7X7X7X7X7X7X7X7X7X7X7X7X7XI @.!.!.P K 7X7Xc.B.k.k.k.h.7X7X7X7X7X7X7X7X7X7X7X7X7X7X7X7X7X7X7X7X7X7X7X7X7X",
"7X7X7X7X7X7X7X7X7X7X7X7X7X7X7X7X7X7X7X7X7X7X7X7X Xc.v.z.j.h.k.7X7Xg.g.d.d.g.g.7X7X7X7X7X7X7X7X7X7X7X7X7X7X7X7X7X7X7X7X7X7X7X7X7X",
"7X7X7X7X7X7X7X7X7X7X7X7X7X7X7X7X7X7X7X7X7X7X7X7Xv.h.h.v.z.j.XX7X7Xl.B.OX#X+XB.7X7X7X7X7X7X7X7X7X7X7X7X7X7X7X7X7X7X7X7X7X7X7X7X7X",
"7X7X7X7X7X7X7X7X7X7X7X7X7X7X7X7X7X7X7X7X7X7X7X7XV u.#XV.K i.7X7X7X* I 4X4X<XP   7X7X7X7X7X7X7X7X7X7X7X7X7X7X7X7X7X7X7X7X7X7X7X7X",
"7X7X7X7X7X7X7X7X7X7X7X7X7X7X7X7X7X7X7X7X7X7X7X7X  c.3X$XU = 7X7X7X  P 4X,X&XS.S o 7X7X7X7X7X7X7X7X7X7X7X7X7X7X7X7X7X7X7X7X7X7X7X",
"7X7X7X7X7X7X7X7X7X7X7X7X7X7X7X7X7X7X7X7X7X7X7X7XO P ,X*X&XS * 7X7X  S S.Z.$X*XD.w 7X7X7X7X7X7X7X7X7X7X7X7X7X7X7X7X7X7X7X7X7X7X7X",
"7X7X7X7X7X7X7X7X7X7X7X7X7X7X7X7X7X7X7X7X7X7X7X7X  I 5X,X,X$XL   7X      . A.*X*XZ.=   7X7X7X7X7X7X7X7X7X7X7X7X7X7X7X7X7X7X7X7X7X",
"7X7X7X7X7X7X7X7X7X7X7X7X7X7X7X7X7X7X7X7X7X7X7X7X  * q S <X5X&Xb.* 7X7X7X7X= 3 = = O   7X7X7X7X7X7X7X7X7X7X7X7X7X7X7X7X7X7X7X7X7X",
"7X7X7X7X7X7X7X7X7X7X7X7X7X7X7X7X7X7X7X7X7X7X7X7X      * F L L F O 7X7X7X7X7X        7X7X7X7X7X7X7X7X7X7X7X7X7X7X7X7X7X7X7X7X7X7X",
"7X7X7X7X7X7X7X7X7X7X7X7X7X7X7X7X7X7X7X7X7X7X7X7X7X7X7X7X          7X7X7X7X7X7X7X7X7X7X7X7X7X7X7X7X7X7X7X7X7X7X7X7X7X7X7X7X7X7X7X",
"7X7X7X7X7X7X7X7X7X7X7X7X7X7X7X7X7X7X7X7X7X7X7X7X7X7X7X7X7X7X7X7X7X7X7X7X7X7X7X7X7X7X7X7X7X7X7X7X7X7X7X7X7X7X7X7X7X7X7X7X7X7X7X7X",
"7X7X7X7X7X7X7X7X7X7X7X7X7X7X7X7X7X7X7X7X7X7X7X7X7X7X7X7X7X7X7X7X7X7X7X7X7X7X7X7X7X7X7X7X7X7X7X7X7X7X7X7X7X7X7X7X7X7X7X7X7X7X7X7X"
};
