/* XPM */
static char *db79b73cbe75448b8c6de6bbbb3de79bDRDqMoHmJJ0dcTER[] = {
/* columns rows colors chars-per-pixel */
"50 50 209 2 ",
"   c #151C1C",
".  c #1B251E",
"X  c #1D281F",
"o  c #202D1F",
"O  c #24321F",
"+  c #1A2422",
"@  c #1D2926",
"#  c #1B2628",
"$  c #1E2A2B",
"%  c #253623",
"&  c #283720",
"*  c #2A3A22",
"=  c #26352C",
"-  c #212F32",
";  c #243436",
":  c #25363A",
">  c #2A3A38",
",  c #353B3B",
"<  c #2F4223",
"1  c #2D422B",
"2  c #334623",
"3  c #354B23",
"4  c #364B28",
"5  c #344D2C",
"6  c #3D5526",
"7  c #3B5429",
"8  c #3F5C2E",
"9  c #2F4333",
"0  c #334C35",
"q  c #385536",
"w  c #3E613C",
"e  c #425C26",
"r  c #415C2C",
"t  c #415C32",
"y  c #46632C",
"u  c #4C6B2B",
"i  c #52732C",
"p  c #577A2D",
"a  c #597E2D",
"s  c #486835",
"d  c #44613E",
"f  c #49673A",
"g  c #4B7136",
"h  c #4B753B",
"j  c #537834",
"k  c #2B3F42",
"l  c #2C4146",
"z  c #2F454B",
"x  c #384745",
"c  c #30474D",
"v  c #344B4C",
"b  c #395546",
"n  c #334B51",
"m  c #3B5757",
"M  c #37525A",
"N  c #3C614A",
"B  c #3B5760",
"V  c #3D5B63",
"C  c #4A4F4F",
"Z  c #465747",
"A  c #445C56",
"S  c #525757",
"D  c #466447",
"F  c #457344",
"G  c #4A7C46",
"H  c #47774B",
"J  c #4A7F4B",
"K  c #446555",
"L  c #44655A",
"P  c #527D5D",
"I  c #455E64",
"U  c #436365",
"Y  c #43626B",
"T  c #486C6B",
"R  c #596365",
"E  c #466873",
"W  c #496B73",
"Q  c #4A6E79",
"!  c #4E7476",
"~  c #4C727D",
"^  c #50777B",
"/  c #69736B",
"(  c #5D832E",
")  c #5E8431",
"_  c #58863B",
"`  c #5E913F",
"'  c #60872E",
"]  c #628A2F",
"[  c #648D30",
"{  c #638F3C",
"}  c #679234",
"|  c #699331",
" . c #6E9C35",
".. c #63943D",
"X. c #67983B",
"o. c #6A9B39",
"O. c #709E34",
"+. c #74A334",
"@. c #4F8346",
"#. c #4D8149",
"$. c #528646",
"%. c #558944",
"&. c #5A8D42",
"*. c #5E9040",
"=. c #56846A",
"-. c #649570",
";. c #89937B",
":. c #4E7581",
">. c #537B85",
",. c #5A7B85",
"<. c #537E8B",
"1. c #55818D",
"2. c #5A848F",
"3. c #578392",
"4. c #588594",
"5. c #5B8995",
"6. c #5D8C9B",
"7. c #7F8586",
"8. c #639983",
"9. c #648995",
"0. c #688C97",
"q. c #6BA182",
"w. c #5F91A1",
"e. c #6293A3",
"r. c #6396A8",
"t. c #6999A8",
"y. c #789CA9",
"u. c #6A9EB1",
"i. c #7DA1AD",
"p. c #6EA4B6",
"a. c #6EA6BA",
"s. c #6FA9BD",
"d. c #70ABBF",
"f. c #7AA9B9",
"g. c #73ADC2",
"h. c #7FAFC0",
"j. c #75B2C7",
"k. c #7AB3C7",
"l. c #77B4CA",
"z. c #7CB6CA",
"x. c #79B8CE",
"c. c #7FBBD0",
"v. c #878F91",
"b. c #8D9090",
"n. c #969A9B",
"m. c #949EA0",
"M. c #86A5AF",
"N. c #9AA7AA",
"B. c #97A8AE",
"V. c #9BA9AC",
"C. c #81A7B4",
"Z. c #8FABB4",
"A. c #8BAEBA",
"S. c #93AAB2",
"D. c #86B1BF",
"F. c #88B0BD",
"G. c #93B2BC",
"H. c #A1A4A4",
"J. c #A1ABAD",
"K. c #A3ADB0",
"L. c #A4B0B3",
"P. c #A9B4B6",
"I. c #A7B6BB",
"U. c #ABB5B8",
"Y. c #B3B9BB",
"T. c #80AFC0",
"R. c #83B3C2",
"E. c #84BBCE",
"W. c #88BBCD",
"Q. c #95B9C6",
"!. c #88BFD2",
"~. c #A8BCC2",
"^. c #B6BFC1",
"/. c #8EC3D4",
"(. c #9BC9D8",
"). c #A5C2CB",
"_. c #BEC4C6",
"`. c #A6CBD8",
"'. c #AECED9",
"]. c #B5CCD4",
"[. c #A8D1DF",
"{. c #B7D4DD",
"}. c #ADD3E1",
"|. c #B7D8E3",
" X c #BEDCE6",
".X c #C1C9CB",
"XX c #C6C8C8",
"oX c #C9CFD1",
"OX c #CED3D5",
"+X c #CAD6DA",
"@X c #D0D6D7",
"#X c #D9DDDF",
"$X c #C4DBE2",
"%X c #C2DEE8",
"&X c #CCE4EC",
"*X c #D1E6ED",
"=X c #DAE6EB",
"-X c #D6E9F0",
";X c #DDEDF2",
":X c #E3E5E5",
">X c #E6E9EA",
",X c #EBEDEE",
"<X c #E2EEF3",
"1X c #EBEFF1",
"2X c #ECF3F5",
"3X c #F4F5F6",
"4X c #F3F7F9",
"5X c #F2F8FA",
"6X c #FEFEFE",
/* pixels */
"/ = q &.+.+.+.+.+.X.%. .+.+.+. .%. .+.+.+. .%.X.+.+.+.+.+.&...+.+.+.+.+.+.X.%. .+.+.+.+.O.%.1 Z ;.;.",
"> q _  .+.+.+.+.+.+.X.+.+.+.+.+.X.+.+...` +.X.+.+.+.+.+.+. . .+.+.+.+.+.+.+.X.&.X.+.+.+.+.X.h q Z ;.",
"q F ..+.+.+.+.+.+.+.+.+.+.+.+.+.+.+.+.X.` ..+.+.+.+.+.+.+.+.+.+.+.+.+.+.+.+.+...*.X.+.+.+.+.X.h q Z ",
"&.&.X.+.+.+.+.+.+.+.+.+.+.+.+.+.+.+.+.+.o.` +.+.+.+.+.+.+.+.+.+.+.+.+.+.+.+.+.+...X.+.+.+.+.+.X.h 1 ",
"X.+.+.+.+.+.+.+.+.+.+.+.+.+.+.+.+.+.+.+.+.+.+.+.+.+.+.+.+.+.+.+.+.+.+.+.+.+.+.+.+.+.+.+.+.+.+.+...#.",
"%.X.+.+.+.+.+.+.+.+.+.+.+.+.+.+.+.+.+.+.+.+.+.+.+.+.+.O.+.+.+.+.+.+.+.+.+.+.+.+.+.+.+.+.+.+.+...$.J ",
" .+.+.+.+.+.+.` ..+.+.| ' ( ( ( ( ( ( [  .+.+.+.+.+.o.&. .+.+.+.+.+.+.+.+.+.+.+.+.+.+.+.+.+.` *...#.",
"+.+.+.+.+.+.` .. .+. .u &           . 6 ( +.+.+.+.X.&.X.+.+.+.+.+.+.+.+.+.+.+.+.+.+.+.+.+.` ..o.O.X.",
".. .+.+.+.+... . .| ) s 0 : : : - # . 6 ( +.+.+.+.X...+.+.+.+.+.+.+.+.+.+.+.+.+.+.+.+.+.+...o.X...` ",
"&. .+.+.+.+.+.+.[ i r D T ~ ~ ~ B : + 6 ( +.+.+.+.+.+.+.+.+.+.+.+.+.+.+.+.+.+.+.+.+.+.+.+.+.+.X.$.J ",
"+.+.+.+.+.+.+.+.a 3 = V 6.d.d.d.3.n @ 6 ( +.+.+.+.+.+.+.+.+.+.+.+.+.+.+.+.+.+.+.+.+.+.+.+.+.+.+.X.$.",
"+.+.+.+.+.+.+.+.p 2 @ V r.c./.(.C.,.M Z g ( [ O.+.+.+.+.+.+.+.+.+.+.+.+.+.+.+.+.+.+.+.+.+.+.+.+.+.o.",
"+.+.+.+.+.+.+.+.p 2 @ V r.!.[.&X].C.2.T q 6 i  .+.+.+.+.+.+.+.+.+.+.+.+.+.+.+.+.+.+.+.+.+.+.+.+.o.%.",
"+.+.+.+.+.+.O. .p 4 ; Y r./. X4X=X`.g.<.v = y [  . . .O.+.+.+.+.+.+.+.+.+.+.+.+.+.+.+.+.+.+.+.+. ...",
"+.+.+.+.+. .( u f K Y ,.y.Q.$X4X-X[.z.e.~ m D u u u u a | +.+.+.+.+.+.+.+.+.+.+.+.+.+.+.+.+.+.+. ...",
" .+.+.+.+.[ u < b ^ r.y.M.I.+X4X-X[.x.d.u.5.U 9 & & * e ' +.+.+.+.+.+.+.+.+.+.+.+.+.+.+.+.+.+.O...#.",
"%.o.+.+.+.' 6 X n 3.k.D.S.U.@X4X;X|./././.h.,.c ; ; ; q j [ [ [ |  .+.+.+.+.+.+.+.+.+.+.+.+.+...$.J ",
" .+.+.+.+.' 6 X n 3.k.D.S.U.@X4X4X-X%X X X'.M.,.Q Q W L d e e e u ( O.+.+.+.+.+.+.+.+.+.+.+.+.+...#.",
"+.+.+.+.+.' e X n 3.k.D.S.U.@X4X6X5X5X5X5X;X'.k.s.s.p.>.x X X X 2 i  .+.+.+.+.+.+.+.+.+.+.+.+.+.+.X.",
".. .+.+.+.' 6 X n 3.k.D.S.U.@X4X6X6X6X6X6X5X&X[.(.W.T.9.Y z z z b f a '  .+.+.+.+.+.+.+.+.+.+.X.` ` ",
"#.X.+.+.+.' 6 X n 3.k.D.S.U.@X4X6X6X6X6X6X5X2X-X{.).Z.y.9.1.1.1.! K 7 u ' +.+.X.O.+.+.+.+.+.+.X.$.J ",
"$.X.+.+.+.' 6 X n 3.k.D.S.U.@X4X6X6X6X6X6X6X6X6X>X.XL.G.R.z.z.z.r.U = 7 p  . .&...+.+.+.+.+.+.+.X.$.",
" .&...+.+.' 6 X n 3.k.D.S.U.@X4X6X6X6X6X6X6X6X6X1X#X.X].'.}.}.}.Q.9.U A f i ( } &...+.+.+.+.+.+.+.o.",
"+. . .+.+.' 6 X n 3.k.D.S.U.@X4X6X6X6X6X6X6X6X6X4X3X>X>X<X;X;X;X$XQ.e.! b 2 u |  . .+.+.+.+.+.+.X.%.",
"+.+.+.+.+.' 6 X n 3.k.D.S.P.oX,X4X4X6X6X6X6X6X6X6X6X6X6X6X4X1X:X+X'.W.0.B > t ) |  .+.+.+.+.+.+. ...",
"+.+.+.+.+.' 6 X n 3.k.D.S.K.^.oX#X,X6X6X6X6X6X6X6X6X6X6X6X3XXXn.m.~.{.G.0.T K s u ( O.+.+.+.X.X.+.+.",
"+.+.+.+.+.[ 7 + n 3.k.D.S.N.J.L._.:X6X6X6X6X6X6X6X6X6X6X6X>Xn.S R J.=X$XQ.r.W > 2 i  .+.+. .&...+.X.",
" .+.+.+.+.) 5 + n 3.k.R.A.S.B.N.Y.OX:X>X>X>X>X>X,X4X6X6X6X:Xb., C H.1X*X(.s.Q : & u  .+.+.&... .X.#.",
"%.X.+.+.+.[ 6 X n 3.l.z.R.A.S.V.L.Y._..X.X.X.X.X@X>X6X6X6X:Xb., C H.1X*X(.s.Q : & u  .+.+. .+...$.J ",
"X.+.+.+.+.] e o v 1.g.l.z.z.A.B.V.V.V.J.J.J.J.J.^.#X4X6X6X:Xn.x S H.1X*X[.g.:.> * u | O.+.+.+. .` #.",
"+.+.+.+.+.| i 6 b T 1.r.g.z.R.A.S.B.N.N.N.N.N.N.U..X#X>X4X,XY.7.b.XX3X<X%X(.y.E m d i ( | +.+.+.X.#.",
"X.+.+.+.+. .[ ( g b n :.u.x.z.R.F.S.N.N.N.N.N.N.J.U.^.@X,X4X:XXXOX:X4X5X2X*X).y.>.K 1 e ( +.+. .` #.",
"%.X.+.+.+.+.+.+.p 2 @ V r.x.x.x.R.A.B.B.B.B.N.N.N.N.V._.=X4X4X4X4X4X4X4X4X1X|./.r.V $ 2 p +.+...$.J ",
" .+.+.+.+.+.+.+.p 2 @ V r.x.x.x.z.R.A.A.A.A.S.V.N.N.V.U..XOXOXOXOXOXOXOXOXoX`.E.r.V $ 2 p +.+.+.X.#.",
"+.+.+.+.+.+.+.+.p 2 @ V r.x.x.x.x.z.z.z.z.R.A.B.N.N.N.J.L.U.U.U.U.U.P.P.U.I.Q.E.r.V $ 2 p +.+.+.+. .",
"+.+.+.+.+.+.+.+.( e 1 A 1.t.a.l.x.x.x.x.x.z.D.S.S.S.S.S.S.S.S.S.S.S.S.S.S.Z.i.t.1.K 1 e ( +.+.+. .&.",
"+.+.+.+.+.+.+.+.| a u D A E 6.g.x.x.x.x.x.x.z.R.D.D.D.D.D.D.D.D.D.D.D.D.D.f.9.E A D u a | +.+.+. .&.",
"+.+.+.+.+.+.+.+.+.O.| u 1 k ~ a.l.l.x.x.x.x.z.z.z.z.z.z.z.z.z.k.k.k.k.k.k.p.~ k 1 u | O.+.+.+.+.+.X.",
"+.+.+.+.+.+.+.+.+.+. .a e q L >.w.a.z.z.R.R.R.R.R.R.R.R.z.j.u.6.1.3.3.3.3.>.L q e a  .+.+. .+.+.X.%.",
"+.+...` +.+.+.+.+.+.+.| ( j d v E w.l.R.A.S.S.S.S.S.S.F.z.d.1.B c c c c c v d i ( | +.+.+.&.X.+.+. .",
"%.%... .+.+.+.+.+.+.+.O. .) r = n <.p.f.Z.V.V.V.V.N.N.Z.R.p.~ k # +   . . O r h X.+.+.+.+.X.&...+.+.",
"J J ..+.+.+.+.+.+.+.O.' i s D U E E :.9.i.A.A.A.Z.S.N.S.Z.C.9.Q M : + O 2 y p _ ` X.+.+.+.+.X.` *.*.",
"J %.X. .X.+.+.+.+.+. .i 3 9 T e.1.B l E t.z.z.z.R.S.N.V.B.S.C.p.<.n # 2 u [ |  ...X.+.+.X.+.+...J J ",
"#...o...&.+.+.+.+.+.} y & ; Q s.6.M $ B e.x.x.x.f.y.v.n.J.I.Q.E.r.B @ 3 p  . .+.+.+.+. .&.X. .&.J J ",
"J #.#.&. .O.+.+.O.X.G q & ; Q s.6.M $ B e.x.x.x.u.,.R 7.Y.+X`.E.r.B @ 3 g $.$.X.+.+.+. .X.%.#.#.J J ",
"J J J #.$.%. .` $.@.G y & ; Q a.6.M $ B e.l.l.l.e.B > / _.<X|.!.e.B @ 3 p ..#.$.X.+.X.$.$.#.J J J J ",
"J J J J J #.%...&.J G s 6 0 U <.:.Y M Y >.4.4.4.E z $ R L.$XQ.e.~ m 4 8 h %.#.#.X.X.%.J J J J J J J ",
"#.%.$.$.&.#.#.&.%.J J F g w b n V ~ 3.~ B n n n k $ # I y.Q.0.I v b s h F J J #.&.%.$.&.#.J J $.%.#.",
"#.X.&.&.X.#.$.#.@.$.#.$.#.F 5 + c 1.a.>.l           + M e.a.Q ; % q G $.$.#.$.#.$.@.&.o.#.$.#.&.X.H ",
"#.X.&.&.X.$.X.%.&.X.$.X.%._ g 5 F =.q.=.N 6 5 7 5 5 8 K -.8.P d q a @.....$.X.$.X.&.&.o.$.X.&.&.{ N "
};
