/* XPM */
static char *xpm_[] = {
/* columns rows colors chars-per-pixel */
"64 64 206 2 ",
"   c #010101",
".  c #0A0906",
"X  c #04040B",
"o  c #0C0C0B",
"O  c #070805",
"+  c #110F0C",
"@  c #14100B",
"#  c #1D150D",
"$  c #1E180F",
"%  c #171202",
"&  c #030411",
"*  c #060816",
"=  c #141414",
"-  c gray10",
";  c #1A1514",
":  c #231A07",
">  c #271C15",
",  c #312B01",
"<  c #312503",
"1  c #2B231C",
"2  c #34261B",
"3  c #342415",
"4  c #353001",
"5  c #101127",
"6  c #201E2C",
"7  c #242424",
"8  c #2C2C2C",
"9  c #2D2821",
"0  c #3C2D23",
"q  c #323232",
"w  c #3C3C3C",
"e  c #3F362C",
"r  c #4A3905",
"t  c #49311D",
"y  c #442F1B",
"u  c #493529",
"i  c #573C26",
"p  c #463B31",
"a  c #534303",
"s  c #6A5105",
"d  c #6C5306",
"f  c #52473A",
"g  c #6A4729",
"h  c #6C492B",
"j  c #624226",
"k  c #774F2E",
"l  c #6F513E",
"z  c #7E5735",
"x  c #6D4D3B",
"c  c #191C4E",
"v  c #1C215F",
"b  c #3B3B43",
"n  c #363640",
"m  c #292C52",
"M  c #313351",
"N  c #1F256B",
"B  c #393D63",
"V  c #272C6E",
"C  c #3D406A",
"Z  c #454545",
"A  c #45464B",
"S  c #524B46",
"D  c #4F4F52",
"F  c #575757",
"G  c #58585C",
"H  c #4F505E",
"J  c #675A4A",
"K  c #775542",
"L  c #796957",
"P  c #6F6050",
"I  c #434779",
"U  c #56576F",
"Y  c #646464",
"T  c DimGray",
"R  c #696A78",
"E  c #747474",
"W  c #75767B",
"Q  c #826407",
"!  c #8F6D06",
"~  c #906E06",
"^  c #987303",
"/  c #8D5E36",
"(  c #835A37",
")  c #905F37",
"_  c #966339",
"`  c #99663B",
"'  c #9C693E",
"]  c #805B46",
"[  c #8C6643",
"{  c #8D6649",
"}  c #9F6C41",
"|  c #886A55",
" . c #9F755B",
".. c #A16E42",
"X. c #A57246",
"o. c #A77448",
"O. c #A97549",
"+. c #AE7A4D",
"@. c #AD7D53",
"#. c #A2755A",
"$. c #B37E51",
"%. c #B07C4E",
"&. c #8A7661",
"*. c #81797E",
"=. c #BF920A",
"-. c #B5953E",
";. c #C3950A",
":. c #D5A60A",
">. c #EFBC0B",
",. c #F4BB0C",
"<. c #E5AF0C",
"1. c #FFC50D",
"2. c #FFC80D",
"3. c #EFDB02",
"4. c #FED208",
"5. c #FFD907",
"6. c #EFC00A",
"7. c #EFE200",
"8. c #FFEB02",
"9. c #F8E303",
"0. c #B68254",
"q. c #BA8557",
"w. c #BC8758",
"e. c #BF8A5B",
"r. c #99866E",
"t. c #93896E",
"y. c #AD967D",
"u. c #B59579",
"i. c #AA8C72",
"p. c #C08B5C",
"a. c #C89979",
"s. c #DFA17B",
"d. c #E3A47F",
"f. c #2B3297",
"g. c #2D3499",
"h. c #353C9C",
"j. c #2B3187",
"k. c #3A419F",
"l. c #3940A0",
"z. c #494D83",
"x. c #42478D",
"c. c #525686",
"v. c #4E539E",
"b. c #6F728C",
"n. c #444AA3",
"m. c #4047A1",
"M. c #4C52A9",
"N. c #545AAB",
"B. c #5E64B2",
"V. c #5C61AD",
"C. c #656AB5",
"Z. c #696EB6",
"A. c #6065B2",
"S. c #6D72B8",
"D. c #7175BA",
"F. c #757ABE",
"G. c #817D86",
"H. c #7F83BD",
"J. c #7F83C1",
"K. c #8B8B8B",
"L. c #848590",
"P. c #959595",
"I. c #999897",
"U. c #B39D82",
"Y. c #BAA186",
"T. c #8D90B4",
"R. c #9FA0B7",
"E. c #AAAAAD",
"W. c #B2B2B2",
"Q. c #BABAB9",
"!. c #CBAB8C",
"~. c #D6A988",
"^. c #D6BA9A",
"/. c #CAB092",
"(. c #E6A984",
"). c #F1BE98",
"_. c #D6B6AE",
"`. c #DAC3BF",
"'. c #F4CDA8",
"]. c #FAD2AC",
"[. c #FCDAB4",
"{. c #FDD7B1",
"}. c #E6C9A6",
"|. c #FFE0B9",
" X c #878BC5",
".X c #989BCA",
"XX c #9EA1CF",
"oX c #A9ACD6",
"OX c #B3B5D6",
"+X c #A0A2C1",
"@X c #C7C7C9",
"#X c #C9C9D3",
"$X c #D7D7D8",
"%X c #C2C4E2",
"&X c #CACCE5",
"*X c #C6C8E3",
"=X c #D6D7EB",
"-X c #DFE0EF",
";X c gray91",
":X c #EAEBF6",
">X c #E7E8F5",
",X c #F4F4FB",
"<X c #FEFEFE",
"1X c #F3F3F4",
"2X c #EFF0F7",
"3X c None",
/* pixels */
"3X3X3X3X3X3X3X3X3X3X3X3X3X3X3X3X3X3X3X3X3X3X3X3X3X3X3X3X3X3X3X3X                        3X3X3X3X3X3X3X3X3X3X3X3X3X3X3X3X3X3X3X3X",
"3X3X3X3X3X3X3X3X3X3X3X3X3X3X3X3X3X3X3X3X3X3X3X3X3X3X3X3X3X3X3X  = q o                       3X3X3X3X3X3X3X3X3X3X3X3X3X3X3X3X3X3X",
"3X3X3X3X3X3X3X3X3X3X3X3X3X3X3X3X3X3X3X3X3X3X3X3X3X3X3X3X3X3X  = 7 q o                           3X3X3X3X3X3X3X3X3X3X3X3X3X3X3X3X",
"3X3X3X3X3X3X3X3X3X3X3X3X3X3X3X3X3X3X3X3X3X3X3X3X3X3X3X3X  X o q 8                                 3X3X3X3X3X3X3X3X3X3X3X3X3X3X3X",
"3X3X3X3X3X3X3X3X3X3X3X3X3X3X3X3X3X3X3X3X3X3X3X3X3X3X3X    - w = O                                     3X3X3X3X3X3X3X3X3X3X3X3X3X",
"3X3X3X3X3X3X3X3X3X3X3X3X3X3X3X3X3X3X3X3X3X3X3X3X3X3X    7 w Z +                                           3X3X3X3X3X3X3X3X3X3X3X",
"3X3X3X3X3X3X3X3X3X3X3X3X3X3X3X3X3X3X3X3X3X3X3X3X3X3X    8 w Z +                                               3X3X3X3X3X3X3X3X3X",
"3X3X3X3X3X3X3X3X3X3X3X3X3X3X3X3X3X3X3X3X3X3X3X3X3X3X3X    = q O                                               3X3X3X3X3X3X3X3X3X",
"3X3X3X3X3X3X3X3X3X3X3X3X3X3X3X3X3X3X3X3X3X3X3X3X3X3X3X3X    % :                                           3X3X3X3X3X3X3X3X3X3X3X",
"3X3X3X3X3X3X3X3X3X3X3X3X3X3X3X3X3X3X3X3X3X3X3X3X3X3X3X3X3X  r ;.s :                 a s s s <   3X3X3X3X3X3X3X3X3X3X3X3X3X3X3X3X",
"3X3X3X3X3X3X3X3X3X3X3X3X3X3X3X3X3X3X3X3X3X3X3X3X3X3X3X3X3X  r 1.1.Q < , , < , , 4 4 :.2.1.1.Q   3X3X3X3X3X3X3X3X3X3X3X3X3X3X3X3X",
"3X3X3X3X3X3X3X3X3X3X3X3X3X3X3X3X3X3X3X3X3X3X3X3X3X3X3X3X3X  r ,.1.,.>.3.3.>.6.3.7.7.4.1.1.1.Q   3X3X3X3X3X3X3X3X3X3X3X3X3X3X3X3X",
"3X3X3X3X3X3X3X3X3X3X3X3X3X3X3X3X3X3X3X3X3X3X3X3X3X3X3X3X3X  r :.,.1.1.9.8.5.5.8.8.8.4.1.1.<.d   3X3X3X3X3X3X3X3X3X3X3X3X3X3X3X3X",
"3X3X3X3X3X3X3X3X3X3X3X3X3X3X3X3X3X3X3X3X3X                    % ;.1.1.2.2.1.2.2.2.2.1.1.>.s O 3X3X3X3X3X3X3X3X3X3X3X3X3X3X3X3X3X",
"3X3X3X3X3X3X3X3X3X3X3X3X3X3X3X3X          T I.P.P.P.B C P.I.U c r ^ 1.4.1.1.2.1.2.2.2.:.r % 3X3X3X3X3X3X3X3X3X3X3X3X3X3X3X3X3X3X",
"3X3X3X3X3X3X3X3X3X3X3X3X3X3X3X3Xn F F F F @X<X<X<X,XA.J.<X,XF.j.m t.0.~ ~ ~ ~ ! ~ ~ ~ d   3X3X3X3X3X3X3X3X3X3X3X3X3X3X3X3X3X3X3X",
"3X3X3X3X3X3X3X3X3X3X3X3X3X3X  & R.<X<X<X<X<X<X<X<X%Xk.*X<X&Xk.g.A.,Xc.X & X & = = = .   3X3X3X3X3X3X3X3X3X3X3X3X3X3X3X3X3X3X3X3X",
"3X3X3X3X3X3X3X3X3X3X3X3X3X3X  & +X<X<X<X,X<X<X<X,XH.V.:X<X Xg.g.oX<XOXT.j.V k.@X$X$XE O   3X3X3X3X3X3X3X3X3X3X3X3X3X3X3X3X3X3X3X",
"3X3X3X3X3X3X3X3X3X3X3X3X3X3X  & .X1X,X#XD Z f b Z 5 H <X,XA.g.m.&X<X<XOXl.g. X<X<XoXM.R.K.q 3X3X3X3X3X3X3X3X3X3X3X3X3X3X3X3X3X3X",
"3X3X3X3X3X3X3X3X3X3X3X3X3X3X  X m B B n           1 W <X&Xk.g.A.,X<X,XS.f.l.OX@X Xl.S.2X<XH & 3X3X3X3X3X3X3X3X3X3X3X3X3X3X3X3X3X",
"3X3X3X3X3X3X3X3X3X3X3X3X3X3X      . @ +   3X3X3X; K.<X<X Xg.h.OX<X<X%Xk.f.F.E.= v x.#X<X=XB * o   3X3X3X3X3X3X3X3X3X3X3X3X3X3X3X",
"3X3X3X3X3X3X3X3X3X3X3X3X3X3X3X3X  { ~.y.. 3X3X- @X1X<X:XN.f.M.=X<X<X Xg.g.oXW.  X O G .XB 6 f r.+ 3X3X3X3X3X3X3X3X3X3X3X3X3X3X3X",
"3X3X3X3X3X3X3X3X3X3X3X3X3X3X3X3XO #.).!.O 3X3X7 ;X<X<X*Xh.f.Z.,X<X:XN.g.m.>XW.    3X* 5 # | {.^.+ 3X3X3X3X3X3X3X3X3X3X3X3X3X3X3X",
"3X3X3X3X3X3X3X3X3X3X3X3X3X3X3X3X  ] a.^.J p w Q.,X<X<X.Xf.f.XX<X<X*Xh.g.Z.<XW.O 3X3X$ i u.}./.L o 3X3X3X3X3X3X3X3X3X3X3X3X3X3X3X",
"3X3X3X3X3X3X3X3X3X3X3X3X3X3X3X3X3X  p ].[.P 7 W.;X<X,XZ.f.l.&X<X<X.Xg.g..X<XW.O 3XO u d.].}.P   3X3X3X3X3X3X3X3X3X3X3X3X3X3X3X3X",
"3X3X3X3X3X3X3X3X3X3X3X3X3X3X3X3X3X  y (.[.L O = Q.<X>Xn.f.M.:X<X<XS.f.h.*X<XE.    l a.'.{.f o 3X3X3X3X3X3X3X3X3X3X3X3X3X3X3X3X3X",
"3X3X3X3X3X3X3X3X3X3X3X3X3X3X3X3X3X  0 (.[.^.Y.U.S I.OXl.f.F.<X<X>XM.g.v.>XK.f | &.~.].|.[.p   3X3X3X3X3X3X3X3X3X3X3X3X3X3X3X3X3X",
"3X3X3X3X3X3X3X3X3X3X3X3X3X3X3X3X3X> u #.y.r.&.L @ D b.N N b.W.W.I.V N k.E.w : #.y.U.U.y.t.1   3X3X3X3X3X3X3X3X3X3X3X3X3X3X3X3X3X",
"3X3X3X3X3X3X3X3X3X3X3X3X3X3X3X3X  K l O . O O   . . . . . o o o o O O . o O O o . o o o O     3X3X3X3X3X3X3X3X3X3X3X3X3X3X3X3X3X",
"3X3X3X3X3X3X3X3X3X3X3X3X3X3X3X3X  K l @ ( [ [ [ [ [ [ [ [ [ [ [ [ [ [ [ [ [ [ [ [ [ _ z g #   3X3X3X3X3X3X3X3X3X3X3X3X3X3X3X3X3X",
"3X3X3X3X3X3X3X3X3X3X3X3X3X3X3X3X3X0 1 # } O.O.O.O.O.O.O.O.O.O.O.O.O.O.O.O.O.O.O.O.O.O.X.) $   3X3X3X3X3X3X3X3X3X3X3X3X3X3X3X3X3X",
"3X3X3X3X3X3X3X3X3X3X3X3X3X3X3X3X3X    @ ( ` _ _ _ _ _ _ _ _ _ _ _ ` _ _ _ _ ` ` _ _ _ _ ) #   3X3X3X3X3X3X3X3X3X3X3X3X3X3X3X3X3X",
"3X3X3X3X3X3X3X3X3X3X3X3X3X3X3X3X3X    @ ) } ` ..} ..' _ } } } } ' ` ' ..' ..' _ _ _ _ ` / #   3X3X3X3X3X3X3X3X3X3X3X3X3X3X3X3X3X",
"3X3X3X3X3X3X3X3X3X3X3X3X3X3X3X3X3X3X  $ @...} q.w.w.o.' q.e.w.e.q.' O.w.w.w.X._ ` _ ` _ / #   3X3X3X3X3X3X3X3X3X3X3X3X3X3X3X3X3X",
"3X3X3X3X3X3X3X3X3X3X3X3X3X3X3X3X3X3X  $ @.o.} w.e.p.O.' q.e.e.p.w.' O.p.w.p.O._ _ _ ` _ / $   3X3X3X3X3X3X3X3X3X3X3X3X3X3X3X3X3X",
"3X3X3X3X3X3X3X3X3X3X3X3X3X3X3X3X3X3X  $ @.o.} e.e.p.O.} q.e.e.e.w.' O.p.p.p.X._ _ X.} _ / :   3X3X3X3X3X3X3X3X3X3X3X3X3X3X3X3X3X",
"3X3X3X3X3X3X3X3X3X3X3X3X3X3X3X3X3X3X  $ @.o.} e.e.e.O.} w.p.e.p.w.' O.e.p.p.O._ ` 0.+._ / $   3X3X3X3X3X3X3X3X3X3X3X3X3X3X3X3X3X",
"3X3X3X3X3X3X3X3X3X3X3X3X3X3X3X3X3X3X  $ @.X.} w.e.p.O.` q.e.e.e.w.' O.p.p.w.o._ ` 0.+.` / $   3X3X3X3X3X3X3X3X3X3X3X3X3X3X3X3X3X",
"3X3X3X3X3X3X3X3X3X3X3X3X3X3X3X3X3X3X  $ @.X.} e.e.e.O.} w.p.p.e.w.' O.e.p.p.o._ ` 0.+._ / $   3X3X3X3X3X3X3X3X3X3X3X3X3X3X3X3X3X",
"3X3X3X3X3X3X3X3X3X3X3X3X3X3X3X3X3X3X  $ @.o.} e.e.e.O.` q.e.e.e.w.} O.p.w.w.o._ ` 0.+.` / #   3X3X3X3X3X3X3X3X3X3X3X3X3X3X3X3X3X",
"3X3X3X3X3X3X3X3X3X3X3X3X3X3X3X3X3X3X  $ 0.X.} w.e.p.O.' q.e.p.e.w.' O.p.e.e.o._ ` 0.+._ / $   3X3X3X3X3X3X3X3X3X3X3X3X3X3X3X3X3X",
"3X3X3X3X3X3X3X3X3X3X3X3X3X3X3X3X3X3X  $ 0.} } w.e.e.O.' w.e.e.e.w.' O.e.e.e.o._ ` 0.+._ / $   3X3X3X3X3X3X3X3X3X3X3X3X3X3X3X3X3X",
"3X3X3X3X3X3X3X3X3X3X3X3X3X3X3X3X3X3X  $ 0.@...o.w.p.O.' q.e.e.e.w.' X.p.e.p.O._ ` 0.+.` / $   3X3X3X3X3X3X3X3X3X3X3X3X3X3X3X3X3X",
"3X3X3X3X3X3X3X3X3X3X3X3X3X3X3X3X3X3X  $ @.e.O.} q.p.O.' w.p.e.p.w.' O.p.e.0...` X.$.O._ / $   3X3X3X3X3X3X3X3X3X3X3X3X3X3X3X3X3X",
"3X3X3X3X3X3X3X3X3X3X3X3X3X3X3X3X3X3X  $ @.e.O.' q.p.O.' q.p.e.p.w.' O.e.w..._ } q.X.` _ ( #   3X3X3X3X3X3X3X3X3X3X3X3X3X3X3X3X3X",
"3X3X3X3X3X3X3X3X3X3X3X3X3X3X3X3X3X3X3X3X1 [ O.' q.p.O.' q.e.e.e.w.} O.p.p..._ } e...` k : 3X3X3X3X3X3X3X3X3X3X3X3X3X3X3X3X3X3X3X",
"3X3X3X3X3X3X3X3X3X3X3X3X3X3X3X3X3X3X3X3X  h X.' q.p.O.' q.p.e.e.w.' O.p.e..._ ` X.' ` k . 3X3X3X3X3X3X3X3X3X3X3X3X3X3X3X3X3X3X3X",
"3X3X3X3X3X3X3X3X3X3X3X3X3X3X3X3X3X3X3X3XO j ` ` $.e.O.' w.p.p.e.$.' O.w.$..._ _ _ _ ` k . 3X3X3X3X3X3X3X3X3X3X3X3X3X3X3X3X3X3X3X",
"3X3X3X3X3X3X3X3X3X3X3X3X3X3X3X3X3X3X3X3X  j _ _ ` $.o.' 0.q.q.0.' _ o.+.' _ _ _ _ ` _ h . 3X3X3X3X3X3X3X3X3X3X3X3X3X3X3X3X3X3X3X",
"3X3X3X3X3X3X3X3X3X3X3X3X3X3X3X3X3X3X3X3X3X# t _ ` ` ` ` ` ` ' ` _ _ ` ` _ ` _ _ ` ` t @ 3X3X3X3X3X3X3X3X3X3X3X3X3X3X3X3X3X3X3X3X",
"3X3X3X3X3X3X3X3X3X3X3X3X3X3X3X3X3X3X3X3X3X3X# y y ( ` ` ` ` ` ` ` ` ` ` ` ` ` ` j 3 $ 3X3X3X3X3X3X3X3X3X3X3X3X3X3X3X3X3X3X3X3X3X",
"3X3X3X3X3X3X3X3X3X3X3X3X3X3X3X3X3X3X3X3X3X3X3X    t h g g g g g g g g g g g g g 3     3X3X3X3X3X3X3X3X3X3X3X3X3X3X3X3X3X3X3X3X3X",
"3X3X3X3X3X3X3X3X3X3X3X3X3X3X3X3X3X3X3X3X3X3X3X3X3XO   . o . . O O O .       . X   3X3X3X3X3X3X3X3X3X3X3X3X3X3X3X3X3X3X3X3X3X3X3X",
"3X3X3X3X3X3X3X3X3X3X3X3X3X3X3X3X3X3X3X3X3X3X3X3X3X3X  9 i.#.>   3XM c.c.z.z.z.z.3X3X3X3X3X3X3X3X3X3X3X3X3X3X3X3X3X3X3X3X3X3X3X3X",
"3X3X3X3X3X3X3X3X3X3X3X3X3X3X3X3X3X3X3X3X3X3X3X3X3X3X  - ~.~.2   3X3XD.D.C.C.Z.S.3X3X3X3X3X3X3X3X3X3X3X3X3X3X3X3X3X3X3X3X3X3X3X3X",
"3X3X3X3X3X3X3X3X3X3X3X3X3X3X3X3X3X3X3X3X3X3X3X3X3X3X  0 ).s.2   3X3XH b b n n A 3X3X3X3X3X3X3X3X3X3X3X3X3X3X3X3X3X3X3X3X3X3X3X3X",
"3X3X3X3X3X3X3X3X3X3X3X3X3X3X3X3X3X3X3X3X3X3X3X3X3X3XR G.`._.*.b.3X3X            3X3X3X3X3X3X3X3X3X3X3X3X3X3X3X3X3X3X3X3X3X3X3X3X",
"3X3X3X3X3X3X3X3X3X3X3X3X3X3X3X3X3X3X3X3X3X3X3X3X3X3XB.B.N.A.Z.C.3X  o . o . o o   3X3X3X3X3X3X3X3X3X3X3X3X3X3X3X3X3X3X3X3X3X3X3X",
"3X3X3X3X3X3X3X3X3X3X3X3X3X3X3X3X3X3X3X3X3X3X3X3X3X3XS.D.Z.B.C.C.M = T E E E E Y + 3X3X3X3X3X3X3X3X3X3X3X3X3X3X3X3X3X3X3X3X3X3X3X",
"3X3X3X3X3X3X3X3X3X3X3X3X3X3X3X3X3X3X3X3X3X3X3X3X3X3XL.W W R R L.8   . o X o o o   3X3X3X3X3X3X3X3X3X3X3X3X3X3X3X3X3X3X3X3X3X3X3X",
"3X3X3X3X3X3X3X3X3X3X3X3X3X3X3X3X3X3X3X3X3X3X3X3X3X3X            3X3X3X3X3X3X3X3X3X3X3X3X3X3X3X3X3X3X3X3X3X3X3X3X3X3X3X3X3X3X3X3X",
"3X3X3X3X3X3X3X3X3X3X3X3X3X3X3X3X3X3X3X3X3X3X3X3X3X              3X3X3X3X3X3X3X3X3X3X3X3X3X3X3X3X3X3X3X3X3X3X3X3X3X3X3X3X3X3X3X3X",
"3X3X3X3X3X3X3X3X3X3X3X3X3X3X3X3X3X3X3X3X3X3X3X3X3X= G Y Y Y Y F + 3X3X3X3X3X3X3X3X3X3X3X3X3X3X3X3X3X3X3X3X3X3X3X3X3X3X3X3X3X3X3X",
"3X3X3X3X3X3X3X3X3X3X3X3X3X3X3X3X3X3X3X3X3X3X3X3X  O 8 8 8 8 8 8 O 3X3X3X3X3X3X3X3X3X3X3X3X3X3X3X3X3X3X3X3X3X3X3X3X3X3X3X3X3X3X3X"
};
