/* XPM */
static char *_78607a587d24aa7f3badd5d343dad6eFkU52Obeq2BlhENC[] = {
/* columns rows colors chars-per-pixel */
"50 50 202 2 ",
"   c #141B1B",
".  c #1B241D",
"X  c #1D281D",
"o  c #25331F",
"O  c #171F20",
"+  c #172021",
"@  c #1B2424",
"#  c #1D2824",
"$  c #1E2A2B",
"%  c #242D2D",
"&  c #233223",
"*  c #2B3C22",
"=  c #27372A",
"-  c #202E31",
";  c #293A35",
":  c #26363A",
">  c #27383C",
",  c #303838",
"<  c #2E4022",
"1  c #2B432B",
"2  c #334826",
"3  c #364B24",
"4  c #354D2A",
"5  c #3C5425",
"6  c #3F5926",
"7  c #39532C",
"8  c #2E4435",
"9  c #324C36",
"0  c #395736",
"q  c #39533A",
"w  c #3E6234",
"e  c #3C623C",
"r  c #405926",
"t  c #425C29",
"y  c #415D36",
"u  c #456027",
"i  c #46632A",
"p  c #496629",
"a  c #4D6C2B",
"s  c #52732C",
"d  c #56792C",
"f  c #5A7E2D",
"g  c #476736",
"h  c #46633D",
"j  c #4F7434",
"k  c #4B753B",
"l  c #527531",
"z  c #547C37",
"x  c #2E4343",
"c  c #2F454A",
"v  c #30474D",
"b  c #344C4A",
"n  c #3C5848",
"m  c #344E55",
"M  c #395553",
"N  c #39545C",
"B  c #396050",
"V  c #3D5A62",
"C  c #3F5E68",
"Z  c #475746",
"A  c #475A55",
"S  c #535C5D",
"D  c #426544",
"F  c #43624C",
"G  c #477646",
"H  c #4A7F4B",
"J  c #456757",
"K  c #455E64",
"L  c #436463",
"P  c #496B67",
"I  c #43626B",
"U  c #5A6466",
"Y  c #456772",
"T  c #496C75",
"R  c #486C77",
"E  c #556C72",
"W  c #4D7375",
"Q  c #4D727D",
"!  c #50797E",
"~  c #6A7470",
"^  c #5E832E",
"/  c #578237",
"(  c #5F913F",
")  c #60862E",
"_  c #628A2F",
"`  c #638B30",
"'  c #628F3A",
"]  c #669131",
"[  c #6A9531",
"{  c #6E9C35",
"}  c #63943D",
"|  c #67983B",
" . c #6A9B39",
".. c #709E34",
"X. c #74A334",
"o. c #4F8247",
"O. c #4C8149",
"+. c #528546",
"@. c #558944",
"#. c #5A8D41",
"$. c #5E9040",
"%. c #5D8B76",
"&. c #62927A",
"*. c #89937B",
"=. c #4D7581",
"-. c #547B84",
";. c #537E8B",
":. c #5A818D",
">. c #598593",
",. c #5A8897",
"<. c #5D8C9C",
"1. c #7E8789",
"2. c #679B83",
"3. c #648C99",
"4. c #69909D",
"5. c #6BA69C",
"6. c #72AC9A",
"7. c #6293A3",
"8. c #6A96A5",
"9. c #669BAC",
"0. c #699CAD",
"q. c #789CA7",
"w. c #769CA9",
"e. c #699EB1",
"r. c #7AA1AD",
"t. c #6AA1B3",
"y. c #6EA7BB",
"u. c #76A6B5",
"i. c #70AABE",
"p. c #72AEC3",
"a. c #75B0C5",
"s. c #7FB4C6",
"d. c #77B5CA",
"f. c #7BB6CB",
"g. c #7AB8CE",
"h. c #7FBBD0",
"j. c #818C8E",
"k. c #8D9698",
"l. c #949FA1",
"z. c #87A5AF",
"x. c #9AA7AB",
"c. c #96A9AF",
"v. c #9BA9AD",
"b. c #84A9B4",
"n. c #8EACB5",
"m. c #8AAEBB",
"M. c #93ABB3",
"N. c #9DAEB3",
"B. c #92AFB9",
"V. c #87B0BF",
"C. c #8AB0BD",
"Z. c #98B3BC",
"A. c #A2ACAF",
"S. c #A4AEB1",
"D. c #A4B1B5",
"F. c #A6B4B9",
"G. c #ABB6B9",
"H. c #B0B6B8",
"J. c #B2BBBD",
"K. c #84B2C2",
"L. c #8BB8C7",
"P. c #92B5C1",
"I. c #95BBC8",
"U. c #84BED2",
"Y. c #A4BDC5",
"T. c #AABFC5",
"R. c #B7BFC1",
"E. c #8BC1D4",
"W. c #9CC7D6",
"Q. c #9CCBDB",
"!. c #ACC2CA",
"~. c #B7C2C4",
"^. c #BDC6C9",
"/. c #BDC9CD",
"(. c #A4CFDE",
"). c #ADD2DF",
"_. c #B8D5DF",
"`. c #AED3E1",
"'. c #B4D5E1",
"]. c #BDDAE5",
"[. c #C0C7C9",
"{. c #C2CACC",
"}. c #C4CED1",
"|. c #C8CED0",
" X c #CBD2D4",
".X c #C8D6DB",
"XX c #D5DADC",
"oX c #D6DBDC",
"OX c #C6DDE4",
"+X c #DCDFE1",
"@X c #C7E1EA",
"#X c #DDE2E3",
"$X c #D6E9F0",
"%X c #DDEBF0",
"&X c #E2E6E6",
"*X c #E6E9EA",
"=X c #EBEEEE",
"-X c #E2EDF0",
";X c #EAF4F7",
":X c #F4F6F6",
">X c #F7F9FA",
",X c #FDFDFE",
/* pixels */
"~ = 0 #.X.X.X.X.X.| @.{ X.X.X. .@.{ X.X.X.{ @.| X.X.X.X.X.#.} X.X.X.X.X.X.| @. .X.X.X.X...@.1 Z *.*.",
"; 0 /  .X.X.X.X.X.X.| X.X.X.X.X.| X.X.| ( X.| X.X.X.X.X.X. .{ X.X.X.X.X.X.X.| #.| X.X.X.X.| k q Z *.",
"0 G } X.X.X.X.X.X.X.X.X.X.X.X.X.X.X.X.| ( } X.X.X.X.X.X.X.X.X.X.X.X.X.X.X.X.X.| $.| X.X.X.X.| k q Z ",
"#.#.| X.X.X.X.X.X.X.X.X.X.X.X.X.X.X.X.X. .( X.X.X.X.X.X.X.X.X.X.X.X.X.X.X.X.X.X.} | X.X.X.X.X.| k 1 ",
"| X.X.X.X.X.X.X.X.X.X.X.X.X.X.X.X.X.X.X.X.X.X.X.X.X.X.X.X.X.X.X.X.X.X.X.X.X.X.X.X.X.X.X.X.X.X.X.} O.",
"@.| X.X.X.X.X.X.X.X.X.X.X.X.X.X.{ [ [ [ [ [ [ [ { ..X...X.X.X.X.X.X.X.X.X.X.X.X.X.X.X.X.X.X.X.} +.H ",
" .X.X.X.X.X.X.( } X.X.X.X.X.X.[ p o           . 3 f | #.{ X.X.X.X.X.X.X.X.X.X.X.X.X.X.X.X.X.( $.} O.",
"X.X.X.X.X.X.( }  .X.X.X.X...[ ` g 8 - - - $ + . 3 l #.| X.X.X.X.X.X.X.X.X.X.X.X.X.X.X.X.X.( }  .X.| ",
"} { X.X.X.X.}  .X.X.X.X.X._ s i F L Y Y Y N : @ 3 l } X.X.X.X.X.X.X.X.X.X.X.X.X.X.X.X.X.X.}  .| } } ",
"#. .X.X.X.X.X.X.X.X.X.X...d 3 = L ,.t.t.t.;.m # 3 f X.X.X.X.X.X.X.X.X.X.X.X.X.X.X.X.X.X.X.X.X.| +.H ",
"X.X.X.X.X.X.X.X.X.X.{ ] ^ g q v =.t.f.f.s.8.T c q l _ ] ..X.X.X.X.X.X.X.X.X.X.X.X.X.X.X.X.X.X.X.| +.",
"X.X.X.X.X.X.X.X.X.X.` s t D P ;.7.i.f.K.m.q.3.=.P y r d [ X.X.X.X.X.X.X.X.X.X.X.X.X.X.X.X.X.X.X.X. .",
"X.X.X.X.X.X.X.X.X.X.^ 5 & M >.p.a.f.s.C.M.n.b.y.;.b & t _ X.X.X.X.X.X.X.X.X.X.X.X.X.X.X.X.X.X.X. .@.",
"X.X.X.X.X.X.X.X.X.X.f 3 # N <.g.f.K.L.Y.~.T.I.f.7.Y b Z j d d d ^ ] X.X.X.X.X.X.X.X.X.X.X.X.X.X.{ } ",
"X.X.X.X.X.X.X.X.X.X.f 3 # N <.f.K.m.Z./.oX.XW.f.y.7.;.L q 2 2 2 u ^ ..X.X.X.X.X.X.X.X.X.X.X.X.X.{ | ",
" .X.X.X.X.X.X.X...{ f 7 % V <.f.V.M.G. X:X%X`.E.g.f.y.Q x # # # 2 s [ ..X.X.X.X.X.X.X.X.X.X.X...} O.",
"@.| X.X.X.X.X.{ ^ s g F V ;.e.f.C.M.G.oX:X;X@X'.W.I.b.3.T V V V A h a ^ [ X.X.X.X.X.X.X.X.X.X.| +.H ",
"{ X.X.X.X.X.X.] a 2 n W <.e.p.f.C.M.G.XX:X>X;X%X.XT.n.r.8.7.7.7.-.M 2 u ^ X.X.X.X.X.X.X.X.X.X.X.} O.",
"X.X.X.X.X.X.X._ r X c ;.a.g.f.K.P.N.R.oX>X,X,X,X#X^.D.Z.K.f.f.f.7.I ; 7 l ] { X.X.X.X.X.X.X.X.X.X.| ",
"} { X.X.X.X.X._ r X c ;.a.s.K.C.T./.XX*X>X,X,X,X=XoX|.!.P.m.m.m.w.:.T J h p f [ X.X.X.X.X.X.X.| ( ( ",
"O.| X.X.X.X.X._ r X c ;.a.K.m.N./.#X:X>X,X,X,X,X>X:X*X XF.c.c.c.z.r.0.! b * i / ..X.X.X.X.X.X.| +.H ",
"+.| X.X.X.X.X._ r X c ;.a.K.M.S.|.=X,X,X,X,X,X,X,X,X>X+X^.G.S.v.M.K.a.<.C x 0 h / ] X.X.X.X.X.X.| +.",
"{ #.| X.X.X.X._ r X c ;.a.K.M.S.|.=X,X,X,X,X,X,X,X,X>X=X#X XR.A.M.K.f.t.,.Q J 0 7 j { X.X.X.X.X.X. .",
"X.{ { X.X.X.X._ r X c ;.a.K.M.S.|.=X,X,X,X,X,X,X,X,X,X,X>X*X{.D.M.K.f.d.a.t.T ; * p [ X.X.X.X.X.| @.",
"X.X.X.X.X.X.X._ r X c ;.a.K.M.S.|.=X,X,X,X,X,X,X,X,X,X,X,X:XoX[.T.I.K.f.f.i.Q > o i [ X.X.X.X.X.{ } ",
"X.X.X.X.X.X.X./ 5 X c ;.a.K.M.S.|.=X,X,X,X,X,X,X,X,X,X,X,X>X=X&X X!.B.V.s.i.Q > o i [ X.X.X.| | X.X.",
"X.X.X.X.X.X. .z 7 X c ;.a.K.M.S.|.=X,X,X>X>X>X>X>X>X>X>X>X>X>X,X&X^.v.n.K.i.Q > o i [ X.X. .#.} X.| ",
"{ X.X.X.X...#./ 6 X c ;.a.K.M.S.|.=X>X=X+XoXoXoXoXoXoXoXoX#X=X,X*X[.v.M.K.i.Q > o i [ X.X.#.| { | O.",
"@.| X.X.X.X.{ ` r X v ;.a.K.M.S.|.=X:XoX~.J.J.J.J.J.J.J.J.[.#X>X*X[.v.M.K.i.Q > o i [ X.X.{ X.| +.H ",
"| X.X.X.X.X.X.` i * b ! e.u.n.N.{.&X&X{.S.x.v.c.c.c.c.v.x.G. X=X#X^.N.z.u.9.T 8 < a [ X.X.X.X.{ ( O.",
"X.X.X.X.X.X.X.[ f i h J T :.w.B.!.}.{.J.v.c.M.m.m.m.m.M.v.S.R.|./.Y.m.8.;.Y J y p ^ { X.X.X.X.X.| O.",
"| X.X.X.X.X.X...[ ] l 0 > I 4.K.P.F.D.S.v.M.C.s.f.f.K.m.c.v.S.D.Z.L.s.>.N ; y f ] { X.X.X.X.X.{ ( O.",
"@.| X.X.X.X.X.X.X.X.f 3 # N <.f.K.n.M.M.M.m.K.g.g.g.f.K.n.M.M.M.m.K.a.:.v X 6 _ X.X.X.X.X.X.X.| +.H ",
"{ X.X.X.X.X.X.X.X.X.f 3 # N <.g.s.K.V.V.V.K.f.g.g.g.g.s.K.V.V.V.K.f.a.:.v X 6 _ X.X.X.X.X.X.X.X.| O.",
"X.X.X.X.X.X.X.X.X.X.f 3 # N <.d.f.f.f.f.f.g.g.g.g.g.g.g.f.f.f.f.f.f.p.;.v X 6 _ X.X.X.X.X.X.X.X.X. .",
"X.X.X.X.X.X.X.X.X.X._ p 4 n W <.0.p.g.g.g.g.g.g.g.g.g.g.g.g.g.g.i.9.>.P n 3 a ] X.X.X.X.X.X.X.X.{ #.",
"X.X.X.X.X.X.X.X.X.X.[ ) s g n V ;.t.g.g.g.g.g.g.g.g.g.g.g.g.g.g.0.=.N Z g d _ { X.X.X.X.X.X.X.X.{ #.",
"X.X.X.X.X.X.X.X...{ { { ] a 4 : Y 0.g.g.g.g.g.g.g.g.g.g.g.g.g.g.7.C : 7 l [ { { { ..X.X.X.X.X.X.X.| ",
"X.X.X.X.X.X.X.{ ) s a a a h A I :.r.K.s.g.g.g.g.g.g.g.g.g.f.K.K.w.-.K F g a a a d _ ..X.X.{ X.X.| @.",
"X.X.} ( X.X.X.] a 2 * * * M ! 7.w.z.n.K.f.g.g.g.g.g.g.g.g.f.V.M.z.w.3.W n * * * 3 s { X.X.#.| X.X.{ ",
"@.@.}  .X.{ [ ^ y ; - - : I 8.U.P.M.c.m.s.f.f.f.f.f.f.f.f.K.m.v.M.P.L.3.N - - - ; g ` [ { | #.} X.X.",
"H H } X.{ ^ a g F I Y Y T 4.I.'.!.N.v.M.m.m.m.m.m.m.m.m.m.m.M.x.F.!._.B.3.Y Y Y L F i s _ ..| ( $.$.",
"H @.| { ' a 2 8 P 7.t.t.y.I.OX-X XG.x.v.c.c.c.c.c.c.c.c.c.c.v.x.J..X-X_.L.t.t.t.<.L = 3 j { X.} H H ",
"O.}  .} / i o : Q y.g.g.g.Q.@X%X.X~.J.J.J.A.l.j.1.1.j.l.D.J.J.J./.oX%X].W.g.g.g.0.I $ * w }  .#.H H ",
"H O.O.#.] i o : Q y.g.g.g.E.(.'..XXXXXXXXXH.1.S A A U k.~.oXXXXX.X].'.Q.E.g.g.g.0.I $ * a +.O.O.H H ",
"H H H O.G 0 & : Q y.d.d.f.g.U.E.'.-X:X:X:XR.~ % @ @ , 1. X:X:X:X$X).E.h.g.d.d.d.9.I $ = 0 H H H H H ",
"H H H H G e 4 9 L :.,.,.,.9.i.U.(.@X$X$X$XD.U @     % ~ !.$X$X$X].Q.g.y.7.,.,.,.-.J 8 9 e H H H H H ",
"O.@.+.+.@.G e e n m m m N =.9.g.E.Q.(.(.(.q.K @     % E m.(.(.(.Q.E.f.7.T m m m M n e k G H H +.@.O.",
"O.| #.#.| o.+.D 9 # O + # N <.g.g.g.g.g.g.3.N +     $ I 0.g.g.g.g.g.a.:.m + O O & 0 z | o.+.O.#.| G ",
"O.| #.#.| +.| z g 4 1 2 1 J &.5.6.5.6.6.5.&.J 4 1 1 7 J 2.5.6.6.5.6.5.%.D 1 2 1 7 g +. .+.| #.#.' B "
};
